<svg width="13317" height="1284" viewBox="0 0 13317 1284" fill="none" xmlns="http://www.w3.org/2000/svg">
<path fill-rule="evenodd" clip-rule="evenodd" d="M13141.1 223.584C13140.8 223.779 13140.4 223.715 13140.1 223.433C13138.7 222.136 13137 221.09 13135.5 219.843C13134.7 219.167 13133.8 218.559 13132.9 218.024C13132.2 217.64 13131.7 217.039 13131.1 216.601L13130.9 216.486C13130.1 216.009 13129.5 215.32 13128.7 214.785C13128.1 214.333 13127.6 213.663 13127 213.179C13126.1 212.464 13125.2 211.703 13124.4 210.899C13123.8 210.449 13123.2 209.893 13122.8 209.259C13122.8 209.078 13122.6 209.039 13122.5 208.927C13121.9 208.462 13121.4 207.965 13121 207.439C13120 206.298 13118.9 205.251 13118 204.097C13117.3 203.259 13116.6 202.467 13115.9 201.651C13115.2 200.867 13114.5 200.068 13113.9 199.257C13112.3 197.362 13110.9 195.38 13109.6 193.32C13108.6 191.695 13107.7 190.015 13106.9 188.288C13106.2 186.915 13105.6 185.497 13105.1 184.042C13104.7 182.867 13104.2 181.74 13103.9 180.553C13103.6 179.433 13103.3 178.319 13103.1 177.213C13102.4 174.653 13101.9 172.074 13101.5 169.478C13101.2 167.95 13101 166.407 13100.7 164.888C13100.4 163.106 13100.2 161.301 13099.9 159.519C13099.7 158.475 13099.7 157.37 13099.6 156.299C13099.4 155.262 13099.5 154.215 13099.3 153.186C13099.1 152.153 13099 151.114 13099 150.072C13098.9 149.104 13098.6 148.087 13098.9 147.095C13098.4 146.4 13098.8 145.596 13098.7 144.851C13098.6 144.107 13098.6 143.349 13098.5 142.624C13098.3 141.878 13098.2 141.114 13098.1 140.372C13097.9 138.866 13097.6 137.389 13097.3 135.892C13097.2 134.979 13096.8 134.171 13096.6 133.295C13096.2 131.617 13095.6 129.984 13094.9 128.42C13094.6 127.798 13094.4 127.133 13094.3 126.448C13094.2 125.926 13093.7 125.704 13093.6 125.228C13093.3 124.459 13093 123.729 13092.7 122.978C13092.6 122.723 13092.5 122.515 13092.2 122.435L13092.4 121.776C13092.3 121.507 13092.2 121.826 13092.1 121.741C13091.9 121.443 13091.7 121.161 13091.7 120.755C13091.7 120.375 13091.3 120.262 13091.2 119.907C13091 119.137 13090.2 118.612 13090.3 117.68C13089.8 117.15 13089.6 116.383 13089.2 115.738C13089 115.437 13088.9 115.072 13088.9 114.708L13088.9 114.624C13089 114.268 13088.3 114.227 13088.5 113.773C13087.6 112.796 13087.6 111.455 13087.2 110.286C13086.6 108.411 13085.9 106.57 13085.6 104.581C13085.5 103.587 13085.1 102.593 13084.9 101.582C13084.5 99.3097 13084 97.0585 13083.9 94.7432C13083.9 93.7868 13083.7 92.8379 13083.6 91.8805L13083.6 90.774C13083.6 89.1139 13083.5 87.453 13083.6 85.7927C13083.6 85.4078 13083.7 85.0193 13083.8 84.6714C13084.1 84.2853 13083.6 83.936 13083.7 83.511C13083.7 83.0065 13084 82.5713 13084 82.0194C13083.9 81.7153 13084.1 81.2627 13084.1 80.9099C13084 79.7629 13084.5 78.6988 13084.4 77.5548C13084.4 77.1255 13084.5 76.7069 13084.8 76.3295C13085.2 75.0292 13085 73.5904 13085.7 72.3538C13086 71.7421 13086.1 71.0693 13086.1 70.3884L13086.1 70.1251C13086.1 69.9302 13086.1 69.7425 13086.3 69.6319C13086.7 69.17 13086.7 68.5173 13086.9 67.9604C13087.1 67.364 13087.1 66.7001 13087.4 66.1063C13087.8 65.5374 13088.1 64.9089 13088.2 64.2501C13088.3 63.1089 13088.9 62.1664 13089.3 61.1631C13089.5 60.6619 13089.5 60.0249 13090.1 59.7379C13090.5 59.5919 13089.8 59.0875 13090.3 58.8721L13090.4 58.8502C13090.7 58.7311 13090.7 58.4495 13090.7 58.0999C13090.7 57.7802 13091.3 57.6629 13091.2 57.3231C13091.1 56.9834 13091.1 56.5158 13091.3 56.4897C13091.7 56.4219 13091.4 55.8566 13091.8 55.8305C13091.8 55.817 13091.8 55.7855 13091.8 55.7454C13092.2 54.5932 13093.1 53.7622 13093.5 52.6211C13093.8 51.945 13094.1 51.3251 13094.6 50.7941C13095.1 50.2719 13095.4 49.7155 13095.8 49.1305C13096.4 48.1546 13097.3 47.4043 13097.8 46.4308C13098 46.1674 13098.7 46.3909 13098.4 45.7451C13098.9 45.6695 13098.8 45.2041 13099.1 44.9579C13099.3 44.7823 13099.5 44.6426 13099.8 44.5438C13100.1 43.9497 13100.5 43.427 13101 43.018C13101.9 42.0685 13102.9 41.1785 13103.9 40.3535L13104.8 39.6765C13105.9 38.7742 13107.1 37.9007 13108.5 37.3848C13108.9 37.2523 13108.8 36.8662 13109.1 36.7182C13110.8 35.8472 13112.5 34.8009 13114.4 34.2444C13115.2 34.0109 13115.9 33.4775 13116.8 33.2322C13118.4 32.7393 13120 32.0289 13121.7 31.7703C13122.7 31.6178 13123.8 31.2956 13124.8 31.1132C13127 30.673 13129.2 30.4954 13131.4 30.5842L13132.8 30.6712C13134 30.7488 13135.2 30.837 13136.4 31.015C13137 31.0993 13137.5 31.3746 13138 31.4011C13138.5 31.4262 13139 31.5579 13139.5 31.7877C13139.9 31.9636 13140.2 31.689 13140.6 31.9407C13140.9 32.1964 13141.3 32.2959 13141.7 32.2107L13141.7 32.1912C13142 32.1118 13142.3 32.391 13142.6 32.5116C13143 32.6497 13143.4 32.8317 13143.8 33.0548C13144.1 33.2605 13144.6 32.8543 13144.7 33.4025C13145.2 33.1581 13145.5 33.4976 13145.9 33.6452L13146 33.6641C13146.4 33.7926 13146.7 33.9732 13147.1 34.1308L13148.3 34.6563C13148.7 34.8642 13149.1 35.0158 13149.4 35.1054C13150.2 35.1482 13150.8 35.5977 13151.5 35.7343C13152.2 35.9461 13153 36.2536 13153.7 36.6497C13154.3 36.9524 13155.1 36.8047 13155.7 37.1756C13156.3 37.5806 13157 37.8575 13157.7 37.9888C13158.4 38.0604 13159 38.5263 13159.6 38.566L13159.8 38.5682C13160.6 38.551 13161.2 39.143 13161.9 39.2225C13163.5 39.3958 13164.9 40.0644 13166.5 40.2675C13168.4 40.5237 13170.3 41.0204 13172.3 41.1831C13173.6 41.2888 13174.9 41.354 13176.2 41.4604C13177.4 41.5166 13178.7 41.4636 13180 41.3019C13181.6 41.1429 13183.2 40.8551 13184.7 40.4413C13186.3 40.0427 13187.8 39.4108 13189.3 38.9893C13190.1 38.7969 13190.7 38.4786 13191.4 38.3065C13192.2 38.1212 13192.9 37.6332 13193.7 37.445C13195.6 36.9738 13197.4 35.9809 13199.4 35.7264C13201.7 34.719 13204.2 34.5432 13206.6 33.8671C13207.8 33.5516 13209 33.5285 13210.1 33.3845L13210.4 33.3516C13212.4 33.064 13214.5 32.9857 13216.6 32.8876C13218.5 32.8132 13220.4 32.8642 13222.3 33.0405C13223.7 33.1559 13225 33.3378 13226.4 33.4275C13227 33.4643 13227.4 33.9428 13228 33.7067C13229.1 34.244 13230.5 34.0694 13231.6 34.6488C13232.4 34.5534 13233.1 34.9768 13233.8 35.3208C13234.4 35.5845 13234.9 35.3337 13235.5 35.6765C13235.9 36.0344 13236.5 36.2632 13237.1 36.3399C13238 36.3619 13238.8 36.8611 13239.7 37.2012C13241.6 37.9917 13243.5 38.8159 13245.5 39.674C13246.1 39.9555 13246.9 40.0225 13247.3 40.6274C13247.7 41.1582 13248.6 41.0183 13249 41.6278C13249.1 41.8497 13249.4 41.5204 13249.7 41.7117C13250.1 42.0849 13250.8 42.0178 13251.2 42.6108C13251.5 43.0498 13252.2 42.9162 13252.6 43.4398L13252.6 43.5154C13252.8 43.8856 13253.5 43.2209 13253.6 43.9853C13254.3 44.174 13254.9 44.6895 13255.5 45.0852C13256 45.4122 13256.7 45.3966 13257.1 45.9634C13257.4 46.4465 13258.3 46.2867 13258.6 46.9635C13259.4 47.1288 13260 47.9166 13260.8 48.2436C13261.4 48.5282 13262 48.8943 13262.5 49.3322C13263.4 49.9676 13264.2 50.5783 13265.1 51.167C13265.4 51.3836 13265.7 51.6171 13266 51.8665C13266.1 52.0024 13266.1 52.2413 13266.4 52.3425C13267.9 52.9845 13269.1 54.1645 13270.3 55.2306C13271.1 55.7756 13271.7 56.3767 13272.3 57.0281L13272.6 57.2471C13272.7 57.4628 13273.1 57.6271 13273.3 57.9084C13273.7 58.6914 13274.4 59.1649 13275 59.703L13275.1 59.7934C13275.4 60.0919 13275.7 60.4395 13276 60.8253C13276 60.8988 13276 61.04 13276.1 61.0662C13277.2 61.5522 13277.7 62.6219 13278.5 63.4401C13279.2 64.2313 13279.8 65.1591 13280.6 65.9289C13282.1 67.4811 13297.4 91.8039 13298.9 95.8028L13299.3 96.9472C13299.8 98.0934 13300.2 99.2458 13300.6 100.41L13300.9 101.402C13301.2 102.395 13301.5 103.394 13301.8 104.399L13302.1 105.74C13302.8 108.424 13303.4 111.116 13303.9 113.848C13304.3 116.286 13304.6 118.736 13304.9 121.19C13305 122.765 13305.1 124.334 13305.2 125.915C13305.3 128.442 13305.3 130.969 13305.2 133.496C13305.2 135.875 13304.6 138.199 13304.7 140.574C13304.2 141.922 13304.5 143.452 13303.9 144.791C13304 145.532 13303.7 146.209 13303.5 146.887C13303.4 147.588 13303.4 148.354 13303 149.019C13302.8 149.321 13303 149.764 13302.8 150.132C13302.6 150.431 13302.5 150.819 13302.6 151.19C13302 151.326 13302.6 151.766 13302.3 152.044C13302 152.347 13301.9 152.732 13301.8 153.139C13301.8 154.059 13301.2 154.795 13301.1 155.619C13301 156.463 13300.5 157.092 13300.4 157.834L13300.4 157.975C13300.3 158.96 13299.4 159.571 13299.3 160.487C13299.2 160.568 13299 160.608 13298.9 160.67C13298.9 160.883 13299.2 160.876 13299.3 161.066C13299 161.245 13298.7 161.465 13298.5 161.719C13298.3 162.088 13298.1 162.478 13298 162.882L13298.5 163.849C13298.1 164.293 13298.1 164.751 13297.8 165.075C13297.6 165.217 13297.6 165.74 13297.5 166.089C13297.4 166.547 13296.7 166.718 13296.8 167.108C13296.9 167.548 13296.7 167.986 13296.5 168.352C13295 171.948 13293.5 175.538 13291.9 179.122C13291.8 179.506 13291.8 180.025 13291.2 180.173C13291.7 180.824 13290.8 180.869 13290.7 181.308C13290.6 181.708 13290.3 182.072 13290 182.374C13289.6 182.959 13289.4 183.752 13289.1 184.444C13288.9 184.947 13288.7 185.401 13288.3 185.753C13287.9 186.036 13287.8 186.636 13287.5 187.07C13287.1 187.585 13286.7 188.158 13286.4 188.774C13286.2 189.23 13286 189.638 13285.6 189.952C13285.3 190.194 13285.4 190.83 13284.9 190.958C13284.6 191.771 13284 192.356 13283.5 193.024L13283.4 193.151C13282.1 194.88 13280.8 196.532 13279.3 198.1C13278.1 199.422 13277 200.764 13275.8 202.073C13275.4 202.496 13275 202.913 13274.5 203.306C13273.1 204.762 13271.5 206.137 13269.9 207.422C13268.4 208.522 13267 209.691 13265.4 210.729C13264.6 211.282 13263.9 212.01 13263.1 212.608C13261.2 214.02 13259.3 215.379 13257.3 216.638C13255.6 217.816 13253.8 218.825 13251.9 219.653C13251.4 219.853 13251 220.198 13250.5 220.43C13249.9 220.633 13249.3 220.878 13248.7 221.163C13248.1 221.602 13247.3 221.821 13246.6 222.219C13246.1 222.528 13245.4 222.18 13245 222.822C13244.7 223.288 13243.8 222.948 13243.4 223.489C13242.6 223.373 13242.1 224.092 13241.3 224.221L13241.2 224.234C13240.4 224.309 13239.6 224.819 13238.8 225.138C13238.1 225.504 13237.3 225.818 13236.4 226.077C13234.9 226.461 13233.6 227.209 13232.1 227.62C13230.7 228.01 13229.3 228.712 13227.8 228.807C13227.5 228.829 13227.5 229.137 13227.3 229.222C13227 229.312 13226.7 229.178 13226.5 229.293C13225.5 229.722 13224.5 230.069 13223.4 230.333C13221.9 230.756 13220.4 231.139 13218.9 231.573C13216.6 232.21 13214.3 232.725 13212 233.116C13210.4 233.395 13208.9 233.62 13207.3 233.861L13205.2 234.198C13204.1 234.366 13203.1 234.53 13202 234.675C13200.6 234.858 13199.3 234.949 13197.9 235.116C13196.8 235.247 13195.7 235.423 13194.7 235.599C13193.2 235.843 13191.7 236.034 13190.2 236.267C13188.1 236.586 13186 236.788 13183.8 236.87C13182.8 236.944 13181.7 236.948 13180.6 236.884C13180 236.832 13179.4 236.818 13178.8 236.841L13178.5 236.856C13177.1 236.951 13175.8 236.667 13174.4 236.55C13174 236.513 13173.6 236.386 13173.2 236.309L13173 236.28C13172.7 236.229 13172.4 236.154 13172 236.083L13171.8 236.031C13170.6 235.794 13169.5 235.353 13168.3 235.269L13168.1 235.257C13168 235.257 13167.9 235.237 13167.8 235.198C13166.7 234.536 13165.3 234.486 13164.1 233.93L13163.9 233.826C13162.7 233.241 13161.4 233.248 13160.3 232.579C13159.4 232.717 13158.8 232.078 13158 231.941C13156.1 231.587 13154.4 230.62 13152.6 229.882L13152.3 229.788C13150.5 229.045 13148.6 228.215 13146.8 227.435C13145.5 226.81 13144.3 226.082 13143.1 225.257C13142.9 225.028 13142.6 224.83 13142.3 224.67C13141.8 224.494 13141.4 224.099 13141.1 223.584Z" fill="#00FFFF"/>
<path fill-rule="evenodd" clip-rule="evenodd" d="M13168.3 118.513C13167 123.908 13163.7 128.114 13158.6 131.518C13159.9 127.756 13161.6 123.355 13162.9 119.594C13161.6 122.16 13159.4 124.677 13156.9 126.045C13158.5 120.383 13161.8 115.882 13161.8 108.706C13161.8 106.125 13159 104.132 13159.1 103.083C13159.2 102.021 13159.8 101.072 13160.2 100.099C13162.7 94.6558 13169.2 120.745 13168.3 118.513Z" fill="#212121"/>
<path d="M13271.6 44.2031C13273 44.1736 13273.4 45.9147 13273.5 47.2305C13273.6 49.1963 13273.6 51.1621 13273.7 53.1279C13274.3 52.14 13275.9 52.386 13276.6 53.3027C13277.2 54.2195 13277.2 55.4484 13277.2 56.5811C13277.5 54.0668 13278.5 51.6413 13280.1 49.6445C13280.5 49.0178 13281.3 48.3742 13282 48.6143C13282.8 48.8682 13283 49.8956 13283.1 50.7354C13283.3 58.023 13281.1 65.3697 13276.9 71.3457C13276.1 72.5004 13275.7 73.8388 13275.4 75.2275C13275.5 76.1979 13275.6 77.2435 13275.4 78.1162C13274.1 88.0906 13271.9 97.9444 13268.8 107.521C13266.9 113.219 13264.7 118.918 13261 123.63C13259.1 126.115 13256.8 128.275 13254.4 130.411C13246.3 137.846 13236.3 146.394 13227.9 153.546C13227.9 153.545 13228.2 153.146 13228.9 152.4C13228.6 152.619 13228.4 152.837 13228.1 153.054C13227.7 153.052 13225.1 147.936 13222.3 143.695C13220 140.305 13217.3 137.552 13217.6 137.369C13224.4 132.434 13232 128.417 13238.4 122.938C13248.9 113.901 13256.2 102.549 13260.5 92.8076C13266 80.5417 13267.8 72.1157 13268.4 71.3496C13266.1 71.0357 13264.1 69.2724 13263.5 67.04C13262.8 64.7499 13263.7 62.1147 13265.6 60.6895C13267.8 59.096 13268.4 56.2301 13268.7 53.582C13268.9 50.9338 13268.8 48.1706 13269.9 45.7539C13270.2 45.0036 13270.8 44.2217 13271.6 44.2031Z" fill="#212121"/>
<path d="M13151.4 185.334C13152 187.05 13153.5 189.243 13153.5 189.243C13153.5 189.243 13143 204.156 13139 212.676C13135.2 220.594 13131.5 238.928 13119.9 227.92C13125.4 212.321 13130.9 196.638 13139 182.165C13142.6 175.582 13145.8 173.246 13145.8 173.246C13145.8 173.246 13149.3 179.331 13151.4 185.334Z" fill="#212121"/>
<path fill-rule="evenodd" clip-rule="evenodd" d="M13163 96.8567C13162.2 97.5261 13162.9 98.8344 13163.7 99.4054C13164.6 99.9763 13165.7 100.409 13166 101.395C13164.7 101.474 13163.5 100.371 13162.2 100.517C13160.8 100.678 13159.9 102.39 13160.2 103.808C13160.5 105.226 13161.5 106.352 13162.6 107.295C13164.4 108.765 13166.3 109.999 13168.3 110.954C13169 111.303 13169.9 112.359 13169.1 112.728C13168.5 112.336 13167.8 111.943 13167.1 111.551C13168.2 115.113 13169.4 118.747 13171.6 121.747C13173.9 124.747 13177.4 127.052 13181.2 126.837C13181.9 126.795 13182.9 126.95 13182.8 127.668C13182.4 127.78 13181.9 127.893 13181.4 128.005C13182.9 129.279 13185 129.591 13187 129.263C13188.9 128.935 13190.7 128.04 13192.4 127.12C13195.9 125.273 13199.4 123.215 13201.9 120.193C13203.7 118.12 13204.9 115.666 13205.9 113.156C13209.1 105.215 13210.3 96.4615 13209.2 87.966C13209.2 87.5392 13208.9 86.9741 13208.5 87.1067C13198.6 90.3198 13187.4 89.4353 13178.1 84.7027C13176.1 83.6788 13174.1 82.4103 13172.9 80.477C13177.2 83.1256 13181.9 85.1445 13186.8 86.4493C13191.6 87.7283 13196.6 88.3201 13201.5 87.5837C13206.4 86.8473 13211.2 84.7112 13214.6 81.1225C13219.2 76.2313 13220.9 69.062 13220.3 62.3521C13219.6 55.6423 13216.8 49.3161 13213.4 43.4771C13212.5 47.4632 13209 50.5078 13205.2 51.9614C13201.3 53.415 13197.1 53.5022 13193 53.3015C13188.9 53.1008 13184.8 52.6308 13180.7 53.0365C13178.2 53.2878 13175.5 53.9699 13173.8 55.8574C13171.2 58.7307 13171.8 63.1525 13172.5 66.9498C13171.4 66.349 13170.8 64.9198 13171.1 63.6764C13166.6 64.5139 13163.2 68.7423 13162.1 73.2109C13160.9 77.6795 13161.5 82.3923 13162.1 86.9738C13162.3 88.9184 13162.5 90.8631 13162.8 92.8077C13162.9 93.9951 13163.1 95.2678 13163.9 96.141C13166.5 98.8896 13168.3 102.354 13169.1 106.04C13171.9 101.296 13173.8 96.0597 13174.8 90.6498C13175 89.4315 13175.2 88.1576 13175.9 87.1374C13176.6 86.1172 13178 85.4508 13179.1 86.0045C13174.7 92.74 13174.5 101.871 13169 107.795C13168.1 105.545 13167.2 103.295 13166.3 101.045C13165.6 99.3285 13164.8 97.4137 13163 96.8567Z" fill="#212121"/>
<path fill-rule="evenodd" clip-rule="evenodd" d="M13228.1 163.728C13224.6 166.231 13220.9 168.585 13217.2 170.782C13216.4 176.449 13214.5 187.34 13213.1 196.52C13212.4 200.695 13212.4 204.247 13211.8 207.167C13210.7 213.104 13205.8 216.261 13200 215.973C13166 214.291 13165.4 232.355 13164.1 220.686C13162.8 209.018 13162.2 197.269 13162.4 185.529C13159.7 187.467 13157.1 189.405 13154.5 191.344C13153.6 190.074 13146.2 178.144 13146.6 173.796C13147 169.056 13152.3 162.174 13158.3 156.755C13162 153.38 13166.4 150.921 13169 148.835C13170.1 147.992 13175.6 142.996 13176.9 138.117C13178.2 133.012 13175.4 128.019 13177.9 127.35C13179.8 126.823 13181.1 128.388 13183.3 129.384C13185 130.15 13187.9 128.789 13188.5 129.871C13189.2 130.954 13188.3 135.232 13190 136.876C13193.1 139.923 13199.5 140.434 13200 140.378C13207 139.642 13214.2 136.485 13216.3 137.27C13223.5 139.97 13229 153.527 13230.1 158.178C13230.4 159.24 13230.6 160.386 13230.2 161.405C13229.8 162.41 13228.9 163.101 13228.1 163.728Z" fill="#212121"/>
<path fill-rule="evenodd" clip-rule="evenodd" d="M13219.7 139.628C13219.4 139.35 13219.2 139.105 13219 138.889C13218.1 137.845 13217.4 137.485 13217.6 137.369C13224.4 132.433 13232 128.417 13238.4 122.939C13248.9 113.901 13256.2 102.549 13260.5 92.8079C13263.9 85.3532 13259.1 102.455 13248 118.91C13238.9 132.443 13220 140.109 13219.7 139.628Z" fill="#373737"/>
<path d="M13152.5 189.243C13152.9 189.528 13152.6 190.081 13152.4 190.455C13144.3 202.688 13138 216.156 13134.2 230.328C13133.9 231.178 13133.7 232.083 13133 232.667C13132.4 233.25 13131.2 233.287 13130.7 232.515C13130.4 231.957 13130.7 231.269 13130.9 230.676C13133.6 223.679 13136.3 216.672 13139.6 209.927C13142.9 203.252 13146.7 196.848 13151 190.804C13151.4 190.215 13151.9 189.613 13152.5 189.243ZM13213.3 41.4399C13217.9 48.0792 13221.3 55.7335 13221.7 63.7827C13222.1 71.8319 13219 80.287 13212.5 85.146C13210 87.0664 13210.2 90.8462 13210.4 94.0259C13210.7 101.009 13209.9 108.18 13206.9 114.498C13203.9 120.815 13198.6 126.206 13191.9 128.385C13188.4 129.544 13188.3 135.086 13191.1 137.56C13193.8 140.034 13198 140.15 13201.7 139.757C13218.3 137.991 13233.5 128.597 13244.7 116.122C13255.8 103.646 13263.2 88.2595 13268.7 72.479C13262.4 100.219 13243.1 124.717 13217.6 137.369C13223.7 142.854 13228.1 150.202 13230.2 158.178C13230.4 159.239 13230.6 160.385 13230.2 161.405C13229.8 162.409 13228.9 163.1 13228.1 163.727C13224.6 166.23 13220.9 168.585 13217.2 170.782C13215.4 183.24 13213.7 195.698 13211.9 208.157C13209.9 191.605 13219.7 174.307 13213.9 158.681C13216 161.86 13217 165.764 13216.6 169.552C13220.1 167.849 13223.5 165.862 13226.6 163.618C13227.5 163.018 13228.3 162.357 13228.8 161.408C13229.3 160.228 13229 158.861 13228.7 157.618C13227 151.517 13223.9 145.794 13219.8 140.98C13218.5 139.428 13216.6 137.836 13214.6 138.4C13209.8 139.796 13204.8 140.853 13199.8 141.563C13198.7 146.239 13196.8 150.726 13194.2 154.757C13193.5 155.821 13192.8 156.901 13191.6 157.425C13189.9 158.184 13188 157.59 13186.3 156.888C13180.9 154.681 13176 151.455 13171.9 147.435C13162.6 152.071 13154.6 159.293 13149 168.075C13147 171.345 13147.1 175.635 13148.5 179.254C13149.8 182.874 13152.3 185.973 13154.7 189.008C13159.3 187.759 13162.9 183.29 13163.1 178.482C13163.2 176.286 13162.9 173.579 13164.8 172.396C13163.1 187.234 13163.5 202.293 13165.8 217.038C13166.1 218.577 13165.7 220.85 13164.1 220.686C13162.8 209.018 13162.2 197.269 13162.4 185.529C13159.7 187.467 13157.1 189.405 13154.5 191.343C13150.8 185.891 13147.9 179.98 13145.7 173.796C13136.5 191.511 13127.8 209.569 13119.9 227.92C13125.4 212.321 13130.9 196.637 13139 182.165C13147 167.692 13157.7 154.352 13171.7 145.475C13178.7 141.007 13179.2 129.244 13172.6 124.187C13170.7 122.729 13169.2 120.745 13168.3 118.513C13166.8 123.546 13163.4 128.007 13159 130.878C13160.3 127.117 13161.6 123.355 13162.9 119.593C13161.6 122.159 13159.6 124.322 13157.1 125.69C13158.7 120.029 13160.2 114.367 13161.8 108.706C13161.6 114.023 13160.5 119.305 13158.4 124.216C13160.4 120.945 13162.3 117.673 13164.3 114.402C13164.3 119.252 13163.2 124.113 13161 128.439C13163.1 126.031 13165.2 123.563 13166.3 120.613C13167.4 117.663 13167.5 114.089 13165.6 111.544C13163.4 108.575 13158.7 106.757 13159.1 103.083C13159.2 102.021 13159.8 101.072 13160.2 100.099C13162.7 94.6559 13161.2 88.3651 13160.5 82.439C13159.8 76.5129 13160.2 69.5588 13164.9 65.9399C13167.1 64.317 13170.2 63.1456 13170.5 60.4839C13171.2 54.3481 13178.5 51.3078 13184.7 51.3706C13190.9 51.4335 13197.2 53.2676 13203.1 51.4585C13207.8 50.0078 13211.8 46.1481 13213.3 41.4399ZM13177.9 127.35C13178.8 132.597 13178.5 138.066 13177.1 143.191C13176.9 143.713 13176.7 144.245 13176.4 144.667C13175.6 145.637 13174.1 145.803 13173.4 146.834C13177.7 150.977 13182.9 154.098 13188.6 155.871C13190.1 156.318 13191.9 156.573 13192.8 155.403C13196.1 151.423 13197.9 146.35 13198 141.231C13195.1 140.771 13192.2 140 13189.9 138.133C13187.7 136.266 13186.3 133.054 13187.4 130.337C13185.1 130.869 13182.6 130.339 13180.7 128.929C13179.8 128.262 13179 127.367 13177.9 127.35ZM13272.2 44.2026C13273.5 44.1733 13273.9 45.9143 13274 47.23C13274.1 49.196 13274.1 51.1624 13274.2 53.1284C13274.8 52.1401 13276.4 52.3854 13277.1 53.3022C13277.7 54.219 13277.7 55.4478 13277.7 56.5806C13278 54.0662 13279 51.6409 13280.6 49.644C13281.1 49.0174 13281.8 48.374 13282.5 48.6138C13283.3 48.8675 13283.5 49.895 13283.6 50.7349C13283.8 58.0226 13281.6 65.3701 13277.5 71.3462C13276.1 73.2934 13275.8 75.7613 13275.5 78.1157C13274.1 88.0903 13271.9 97.9447 13268.8 107.522C13266.9 113.22 13264.7 118.917 13261 123.629C13259.1 126.114 13256.8 128.274 13254.4 130.411C13246.4 137.845 13238.1 145.14 13229.8 152.292C13229.1 152.291 13229.4 151.141 13229.9 150.677C13239.4 142.528 13249.1 134.69 13257.5 125.502C13259.5 123.34 13261.4 121.091 13262.9 118.571C13264.3 116.145 13265.4 113.502 13266.3 110.849C13270.6 99.1882 13273.5 87.0617 13275.1 74.7593C13275.3 73.8764 13275.3 72.9201 13274.9 72.1489C13280.5 66.1663 13283.2 57.6924 13282.3 49.5864C13278.3 51.4167 13280 58.0459 13276.9 61.0981C13276.8 59.135 13276.7 57.1716 13276.7 55.2085C13276.6 54.6432 13276.6 53.9692 13276.1 53.7202C13275.2 53.3096 13274.5 54.4918 13274.4 55.4214C13274.3 56.351 13274.2 57.5732 13273.2 57.7271C13273.5 53.4419 13273.3 49.118 13272.5 44.8979C13270.3 46.9365 13270.4 50.343 13270.3 53.3325C13270.3 56.3222 13269.5 59.8905 13266.7 60.9292C13267.6 61.6823 13268.8 60.2722 13269.9 59.7632C13271.8 58.9119 13273.9 61.2659 13273.4 63.2505C13272.9 65.2352 13270.6 66.3646 13268.6 66.356C13269.6 64.693 13272.8 64.5504 13272.7 62.6138C13272.6 61.6559 13271.6 60.9981 13270.6 61.0044C13269.7 61.0108 13268.8 61.4945 13268 61.9653C13266.5 62.7963 13264.8 63.9261 13264.8 65.6187C13264.7 68.0847 13268 69.1644 13269.1 71.3726C13266.7 71.1281 13264.6 69.3296 13264 67.0396C13263.3 64.7496 13264.2 62.1143 13266.1 60.689C13268.3 59.0955 13269 56.2297 13269.2 53.5815C13269.4 50.9334 13269.3 48.1701 13270.4 45.7534C13270.7 45.0031 13271.3 44.2212 13272.2 44.2026ZM13213.4 43.4771C13212.5 47.4632 13209 50.5078 13205.2 51.9614C13201.3 53.4149 13197.1 53.502 13193 53.3013C13188.9 53.1006 13184.8 52.6309 13180.7 53.0366C13178.2 53.2878 13175.5 53.9696 13173.8 55.8569C13171.2 58.7303 13171.8 63.1524 13172.5 66.9497C13171.4 66.349 13170.8 64.9197 13171.1 63.6763C13166.6 64.5138 13163.2 68.7421 13162.1 73.2104C13160.9 77.679 13161.5 82.3926 13162.1 86.9741C13162.3 88.9186 13162.5 90.8636 13162.8 92.8081C13162.9 93.9953 13163.1 95.268 13163.9 96.1411C13166.5 98.8896 13168.3 102.354 13169.1 106.041C13171.9 101.296 13173.8 96.0597 13174.8 90.6499C13175 89.4316 13175.2 88.1574 13175.9 87.1372C13176.6 86.117 13178 85.4507 13179.1 86.0044C13174.7 92.7399 13174.5 101.871 13169 107.795C13168.1 105.545 13167.2 103.295 13166.3 101.045C13165.6 99.3287 13164.8 97.414 13163 96.8569C13162.2 97.5265 13162.9 98.8349 13163.7 99.4058C13164.6 99.9767 13165.7 100.409 13166 101.394C13164.7 101.474 13163.5 100.37 13162.2 100.516C13160.8 100.677 13159.9 102.39 13160.2 103.808C13160.5 105.226 13161.5 106.353 13162.6 107.295C13164.4 108.765 13166.3 109.999 13168.3 110.954C13169 111.303 13169.9 112.359 13169.1 112.728C13168.5 112.336 13167.8 111.944 13167.1 111.551C13168.2 115.113 13169.4 118.747 13171.6 121.748C13173.9 124.748 13177.4 127.052 13181.2 126.836C13181.9 126.795 13182.9 126.951 13182.8 127.668C13182.4 127.781 13181.9 127.893 13181.4 128.005C13182.9 129.279 13185 129.59 13187 129.262C13188.9 128.934 13190.7 128.04 13192.4 127.12C13195.9 125.273 13199.4 123.215 13201.9 120.193C13203.7 118.119 13204.9 115.666 13205.9 113.157C13209.1 105.216 13210.3 96.4617 13209.2 87.9663C13209.2 87.5396 13208.9 86.9747 13208.5 87.1069C13198.6 90.32 13187.4 89.4352 13178.1 84.7026C13176.1 83.6787 13174.1 82.4102 13172.9 80.4771C13177.2 83.1256 13181.9 85.1449 13186.8 86.4497C13191.6 87.7287 13196.6 88.3198 13201.5 87.5835C13206.4 86.8471 13211.2 84.7111 13214.6 81.1226C13219.2 76.2313 13220.9 69.0619 13220.3 62.3521C13219.6 55.6422 13216.8 49.3161 13213.4 43.4771ZM13180.6 116.035C13180.8 116.059 13181 116.333 13180.9 116.543C13180.6 117.168 13181.4 117.75 13182.1 117.93C13184.4 118.537 13186.7 119.147 13189.1 119.28C13191.4 119.412 13193.9 119.036 13195.9 117.79C13196.5 117.407 13197.3 116.935 13197.9 117.327C13197.4 118.8 13194.9 118.881 13194.7 120.438C13194.7 121.287 13193.9 122.03 13193.1 122.07C13192.3 122.11 13191.5 121.441 13191.3 120.601C13191.3 120.469 13191.2 120.417 13191 120.394C13190.4 120.288 13189.8 120.233 13189.2 120.448C13188.7 120.663 13188.2 121.214 13188.2 121.833C13188.2 122.533 13187.4 122.933 13186.7 122.939C13186 122.945 13185.2 122.67 13184.8 122.031C13184.4 121.391 13184.6 120.366 13185.3 120.105C13183.6 119.484 13182 118.863 13180.4 118.242C13180 118.085 13179.6 117.925 13179.1 117.998C13178.9 118.043 13178.6 118.177 13178.4 118.161C13178.1 118.144 13177.8 117.861 13177.9 117.616C13178 117.524 13178.1 117.465 13178.2 117.41C13178.7 117.031 13179.3 116.652 13179.9 116.273C13180.1 116.144 13180.3 116.01 13180.6 116.035ZM13187.3 120.328C13187.1 119.993 13186.5 120.043 13186.2 120.348C13185.9 120.653 13185.8 121.124 13185.9 121.552C13186.2 121.754 13186.7 121.711 13187 121.448C13187.3 121.185 13187.5 120.719 13187.3 120.328ZM13194 120.169C13193.8 119.845 13193.3 119.972 13193 120.14C13192.8 120.229 13192.6 120.349 13192.6 120.546C13192.5 120.788 13192.8 120.975 13193.1 120.946C13193.3 120.917 13193.5 120.747 13193.7 120.585L13193.7 120.58C13193.7 120.41 13193.8 120.26 13194 120.169ZM13195.7 99.1479C13196.1 99.0038 13196.6 99.2992 13196.5 99.7124C13195.3 100.901 13194.9 102.722 13195 104.424C13195 106.127 13195.5 107.795 13195.6 109.492C13195.7 110.698 13195.6 112.107 13194.6 112.809C13193.9 113.312 13193 113.291 13192.1 113.25C13191.6 113.226 13190.9 112.993 13191 112.494C13191.1 112.141 13191.5 112.006 13191.9 112.003C13192.6 111.999 13193.4 112.198 13193.9 111.777C13194.5 111.35 13194.5 110.526 13194.4 109.826C13194.1 106.543 13193.5 103.079 13194.9 100.073C13195.1 99.6907 13195.3 99.2922 13195.7 99.1479ZM13189.9 99.4614C13190.3 99.4039 13190.7 99.8459 13190.7 100.263C13190.7 100.68 13190.4 101.046 13190.1 101.34C13189.1 102.407 13187.5 102.9 13186.1 102.909C13184.6 102.917 13183.1 102.481 13181.7 101.902C13181.4 101.777 13181.1 101.638 13180.9 101.4C13180.7 101.161 13180.6 100.796 13180.7 100.5C13180.9 100.202 13181.3 100.07 13181.5 100.305C13182.5 101.375 13184.1 101.651 13185.6 101.676C13186.9 101.699 13188.4 101.457 13189.1 100.337C13189.3 99.9855 13189.5 99.5197 13189.9 99.4614ZM13199.7 100.504C13199.8 100.163 13200.3 100.072 13200.7 100.205C13201.1 100.337 13201.3 100.62 13201.6 100.852C13203 101.86 13205 101.888 13206.4 100.917C13206.6 100.743 13206.8 100.532 13207.2 100.527C13207.5 100.522 13207.7 100.897 13207.5 101.091C13205.9 102.517 13203.3 102.961 13201.3 102.188C13200.7 101.974 13200.1 101.654 13199.8 101.152C13199.7 100.956 13199.6 100.716 13199.7 100.504ZM13200.9 96.5825C13202.7 95.7893 13204.8 97.3198 13206.6 96.6304C13206.9 96.5146 13207.2 96.3348 13207.5 96.3657C13207.8 96.3968 13208.1 96.8134 13207.8 96.9731C13206.8 97.5731 13205.5 97.7944 13204.3 97.5737C13203.8 97.4702 13203.2 97.2745 13202.7 97.2114C13202.1 97.1484 13201.5 97.2467 13201.1 97.6323C13200.9 97.8726 13200.4 97.6281 13200.3 97.311C13200.3 96.994 13200.6 96.7288 13200.9 96.5825ZM13186.8 94.6235C13187.9 94.5916 13189.2 94.9554 13189.8 95.8257C13189.9 95.9404 13190 96.0763 13190 96.2183C13190 96.461 13189.6 96.5774 13189.4 96.5161C13189.1 96.4548 13188.9 96.2792 13188.7 96.1372C13187.5 95.2799 13185.7 95.6503 13184.3 96.1675C13182.8 96.6846 13181.3 97.3248 13179.8 96.8999C13179.6 96.8252 13179.3 96.6547 13179.3 96.396C13179.3 96.0437 13179.8 95.9917 13180.2 96.0063C13181.3 96.0514 13182.4 95.7187 13183.5 95.3716C13184.6 95.0245 13185.7 94.6555 13186.8 94.6235Z" fill="white"/>
<path fill-rule="evenodd" clip-rule="evenodd" d="M13187.4 130.337C13186.7 130.493 13186 130.558 13185.3 130.536C13183.7 130.482 13181.8 136.221 13185.3 142.767C13188.8 149.2 13195.4 151.773 13196.2 149.737C13197.3 147.045 13198 144.146 13198 141.232C13195.1 140.771 13192.2 140.001 13189.9 138.134C13187.7 136.267 13186.3 133.054 13187.4 130.337Z" fill="#373737"/>
<circle cx="13174.8" cy="113.614" r="2.072" fill="#FFB61D"/>
<circle cx="13201.1" cy="114.305" r="2.072" fill="#FFB61D"/>
<path fill-rule="evenodd" clip-rule="evenodd" d="M13178.6 188.659C13179.4 187.793 13180.9 188.213 13182 188.517C13185.1 189.326 13188.8 188.419 13191.1 186.308C13193.3 184.184 13197.5 186.719 13200.5 185.411C13202.3 184.622 13203.8 182.465 13205.6 183.021C13207.8 183.703 13210.6 183.16 13212.4 181.707L13212.4 181.275L13212.4 180.322C13210.6 181.924 13207.7 182.548 13205.4 181.835C13203.6 181.279 13202.1 183.437 13200.3 184.225C13197.3 185.534 13193.1 182.999 13190.8 185.123C13188.6 187.192 13185 188.104 13182 187.378L13181.4 187.222C13180.3 186.947 13179.1 186.71 13178.4 187.473C13176.3 189.882 13172.2 190.879 13169.2 189.708L13169.6 190.947L13169.8 191.009C13172.8 191.992 13176.6 190.983 13178.6 188.659ZM13175.8 175.109C13176.6 174.296 13178.1 174.734 13179.2 175.052C13182.2 175.899 13185.9 175.115 13188.3 173.141C13190.7 171.155 13194.7 173.686 13197.8 172.5C13199.6 171.785 13201.2 169.747 13202.9 170.323C13205.1 171.03 13213.2 166.804 13213.2 166.804C13211.1 166.748 13205.2 169.893 13202.9 169.229L13202.8 169.18C13201 168.604 13199.4 170.641 13197.6 171.356C13194.5 172.543 13190.5 170.012 13188.1 171.998C13185.8 173.932 13182.2 174.724 13179.2 173.958L13178.6 173.794C13177.6 173.505 13176.3 173.248 13175.6 173.966C13173.5 176.23 13167.5 175.245 13166.4 175.897C13166.4 175.897 13173.7 177.294 13175.8 175.109Z" fill="#FFB61D"/>
<path fill-rule="evenodd" clip-rule="evenodd" d="M13178 214.34C13178.8 213.475 13180.3 213.894 13181.4 214.198C13184.5 215.007 13188.2 214.1 13190.4 211.99C13192.7 209.865 13196.9 212.4 13199.9 211.092C13201.7 210.303 13203.2 208.146 13205 208.702C13207.2 209.384 13210 208.841 13211.8 207.388L13211.8 206.956L13211.8 206.003C13210 207.605 13207.1 208.229 13204.8 207.516C13202.9 206.96 13201.5 209.118 13199.7 209.907C13196.7 211.215 13192.5 208.68 13190.2 210.804C13188 212.873 13184.4 213.785 13181.4 213.059L13180.8 212.903C13179.7 212.628 13178.4 212.391 13177.8 213.154C13175.7 215.563 13171.6 216.56 13168.6 215.389L13169 216.628L13169.2 216.69C13172.1 217.674 13176 216.664 13178 214.34ZM13175.2 200.79C13176 199.977 13177.5 200.415 13178.6 200.733C13181.6 201.581 13185.3 200.796 13187.7 198.822C13190 196.836 13194.1 199.367 13197.1 198.181C13199 197.466 13200.5 195.428 13202.3 196.004C13204.5 196.711 13212.6 192.485 13212.6 192.485C13210.5 192.429 13204.6 195.574 13202.3 194.91L13202.1 194.861C13200.4 194.285 13198.8 196.322 13197 197.038C13193.9 198.224 13189.9 195.693 13187.5 197.679C13185.2 199.613 13181.5 200.405 13178.6 199.639L13178 199.475C13177 199.186 13175.7 198.929 13175 199.647C13172.8 201.911 13166.9 200.926 13165.8 201.579C13165.8 201.579 13173.1 202.975 13175.2 200.79Z" fill="#FFB61D"/>
<path fill-rule="evenodd" clip-rule="evenodd" d="M13171.8 68.1424C13173.8 69.3721 13181.1 55.8574 13192 55.8574C13215.1 55.8574 13216.8 49.3161 13213.4 43.4771C13212.5 47.4632 13209 50.5078 13205.2 51.9614C13201.3 53.415 13197.1 53.5022 13193 53.3015C13188.9 53.1008 13184.8 52.6308 13180.7 53.0365C13178.2 53.2878 13175.5 53.9699 13173.8 55.8574C13171.2 58.7307 13171.8 63.1525 13172.5 66.9498C13171.4 66.349 13170.8 64.9198 13171.1 63.6764C13166.6 64.5139 13163.2 68.7423 13162.1 73.2109C13160.9 77.6795 13161.5 82.3923 13162.1 86.9738C13162.3 88.9184 13162.5 90.8631 13162.8 92.8077C13162.8 92.8077 13163.8 77.142 13165.2 73.2109C13167.1 67.8593 13172.2 68.8854 13171.8 68.1424Z" fill="#373737"/>
<path fill-rule="evenodd" clip-rule="evenodd" d="M35.3986 1196.93C35.3446 1199.4 38.627 1200.48 39.7266 1202.68C37.3624 1202.44 35.2353 1200.64 34.601 1198.35C33.9668 1196.06 34.866 1193.43 36.7678 1192C38.8941 1190.41 39.5859 1187.54 39.7988 1184.89C40.0116 1182.25 39.9139 1179.48 41.0178 1177.07C41.3606 1176.32 41.95 1175.53 42.7749 1175.51C44.0917 1175.49 44.5641 1177.23 44.6168 1178.54C44.6956 1180.51 44.7743 1182.47 44.8531 1184.44C45.4085 1183.45 47.0397 1183.7 47.7066 1184.61C48.3735 1185.53 48.3577 1186.76 48.3145 1187.89C48.6248 1185.38 49.63 1182.95 51.1894 1180.96C51.6789 1180.33 52.4148 1179.69 53.173 1179.93C53.9743 1180.18 54.1717 1181.21 54.1994 1182.05C54.4397 1189.33 52.258 1196.68 48.0791 1202.66C46.7174 1204.6 46.4096 1207.07 46.0917 1209.43C44.7449 1219.4 42.5057 1229.26 39.4095 1238.83C37.5675 1244.53 35.3687 1250.23 31.6729 1254.94C29.7237 1257.43 27.3972 1259.59 25.0709 1261.72C16.9762 1269.16 8.75339 1276.45 0.407486 1283.6C-0.302141 1283.6 0.0237202 1282.45 0.560344 1281.99C9.98062 1273.84 19.7317 1266 28.1416 1256.81C30.1214 1254.65 32.0335 1252.4 33.5312 1249.88C34.9728 1247.46 36.0092 1244.81 36.9727 1242.16C41.2084 1230.5 44.1616 1218.37 45.762 1206.07C45.8769 1205.19 45.9713 1204.23 45.5261 1203.46C51.0809 1197.48 53.8429 1189 52.8804 1180.9C48.9041 1182.73 50.6446 1189.36 47.5075 1192.41C47.4362 1190.45 47.365 1188.48 47.2938 1186.52C47.2732 1185.96 47.1859 1185.28 46.6778 1185.03C45.8394 1184.62 45.1152 1185.8 45.0302 1186.73C44.9452 1187.66 44.7822 1188.89 43.8613 1189.04C44.1631 1184.75 43.9083 1180.43 43.1053 1176.21C40.9173 1178.25 40.9973 1181.66 40.9425 1184.64C40.8877 1187.63 40.1111 1191.2 37.3065 1192.24C38.2749 1192.99 39.4185 1191.58 40.5347 1191.08C42.4024 1190.22 44.5419 1192.58 44.0197 1194.56C43.4974 1196.55 41.2704 1197.68 39.2177 1197.67C40.2168 1196 43.4199 1195.86 43.3072 1193.93C43.2515 1192.97 42.2146 1192.31 41.2549 1192.32C40.2952 1192.32 39.412 1192.81 38.5758 1193.28C37.1003 1194.11 35.4356 1195.24 35.3986 1196.93Z" fill="white"/>
</svg>
