<svg width="307" height="251" viewBox="0 0 307 251" fill="none" xmlns="http://www.w3.org/2000/svg">
<rect width="252" height="251" fill="#212121"/>
<path fill-rule="evenodd" clip-rule="evenodd" d="M187.734 222C221.374 222 250.896 200.828 234.317 172.072C217.737 143.316 279.34 144.245 297.436 124.37C319.504 100.133 313.113 -2.75276 171.442 59.9711C148.749 70.0188 90.4654 49.6345 71.1326 59.7488C48.3761 71.6543 16.3589 96.0331 48.3761 121.006C64.1471 133.307 7.60418 165.234 32.3689 193.833C56.533 221.739 73.4716 195.137 110.261 200.828C147.051 206.52 162.749 222 187.734 222Z" fill="#00FFFF"/>
<path d="M114.919 165.484C114.919 165.484 120.523 162.859 122.615 161.032C124.707 159.206 127.308 154.668 127.308 154.668C127.308 154.668 155.875 175.217 174.502 172.286C178.794 171.611 187.157 168.769 187.69 163.763C189.146 150.092 168.998 146.599 173.4 139.666C176.086 135.434 184.431 141.732 184.431 141.732L219.045 158.691C219.045 158.691 207.087 188.051 178.067 189.227C142.369 190.675 114.919 165.484 114.919 165.484Z" fill="#212121"/>
<path fill-rule="evenodd" clip-rule="evenodd" d="M87.4757 50.5031C87.1508 50.376 85.4061 48.2482 83.1911 47.8609C82.1846 47.6849 83.0981 48.9615 81.9904 48.973C78.6912 49.0072 73.3297 48.3898 72.3364 48.973C71.5983 49.405 73.224 50.9143 72.3364 50.9836C63.9628 51.6373 51.1882 59.9649 48.4166 64.0051C47.5345 65.2908 54.6683 63.1094 53.5317 63.745C52.256 64.4585 50.8411 69.1299 49.9952 72.7378C49.4096 75.2223 49.0408 78.4198 48.9107 81.8981C48.8022 84.9011 48.8456 85.398 49.2794 87.04C49.7783 88.8764 50.1687 89.4165 50.8411 89.1572C51.0797 89.0708 51.1882 88.7467 51.1882 88.1418C51.1882 87.6665 51.4485 86.2406 51.7738 84.966L52.3378 82.6759L52.5764 83.6265C52.88 84.7283 54.6587 88.1418 56.2638 90.6263C56.3503 90.7582 56.7228 90.5905 57.0586 89.7819C57.3647 89.045 57.2405 87.8679 57.7604 86.6063C58.9447 83.7326 61.2702 79.9963 63.9628 77.0055C67.9423 72.5853 69.2626 67.4699 72.993 63.3635C79.9545 55.7003 88.6919 50.9786 87.4757 50.5031Z" fill="#212121"/>
<path fill-rule="evenodd" clip-rule="evenodd" d="M53.6311 64.7876C52.5143 65.682 50.8566 72.937 50.8282 73.0583C50.2426 75.5428 49.678 84.1706 50.2551 85.8041C50.8321 87.4376 52.448 81.5492 52.448 81.5492C52.448 81.5492 54.8902 87.8659 57.0482 89.5978C57.1404 89.6717 54.4832 81.7827 53.6311 77.1773C52.5062 71.0979 54.2666 64.2786 53.6311 64.7876Z" fill="#3F4143"/>
<path fill-rule="evenodd" clip-rule="evenodd" d="M95.2549 191.848C97.3372 191.394 100.851 189.814 102.196 189.274C103.541 188.734 107.64 182.969 109.115 176.466C110.178 171.669 110.72 164.842 110.113 163.697C110.023 163.535 109.695 160.43 110.569 161.444C112.51 163.697 114.814 167.235 122.086 160.896C124.066 159.17 126.691 156.942 126 154.972C124.066 149.46 115.683 138.363 114.405 137.522C112.877 136.517 105.154 137.371 93.6608 133.992C80.6262 130.16 75.1986 118.877 70.0978 120.345C65.9727 121.533 56.0893 128.833 53.6089 133.456C41.8989 155.28 56.0893 170.572 59.321 174.965L62.4588 176.314L62.5673 179.101L62.7191 180.851C63.0011 184.2 63.1095 184.502 64.6279 185.626C68.4237 188.499 75.9069 191.178 82.6744 192.129C85.8195 192.561 92.652 192.41 95.2549 191.848Z" fill="#212121"/>
<path fill-rule="evenodd" clip-rule="evenodd" d="M63.6925 178.081L63.8444 179.831C64.1263 183.18 64.2348 183.482 65.7531 184.606C67.9924 186.301 71.515 187.928 75.4168 189.173C78.1291 190.039 81.0245 190.719 83.7996 191.109C86.9448 191.541 93.7773 191.39 96.3801 190.828C97.6667 190.55 87.084 182.269 80.8497 184.606C76.062 186.4 64.7776 172.713 69.3657 169.137C74.5125 165.125 65.0812 149.303 64.7776 145.868C64.4739 142.434 63.278 141.613 63.2431 141.733C63.2082 141.854 63.2082 142.265 63.3021 143.255C63.7067 147.523 63.6925 178.081 63.6925 178.081Z" fill="#3F4143"/>
<path fill-rule="evenodd" clip-rule="evenodd" d="M62.563 144.888C63.0183 144.799 63.4593 145.095 63.548 145.549C65.185 153.926 72.1096 159.597 84.4916 162.563C96.9473 165.546 105.432 165.385 109.902 162.201C110.279 161.932 109.998 164.234 109.722 164.411C106.806 166.273 96.8928 169.052 85.063 166.54C69.9374 163.329 62.8354 150.661 61.8989 145.869C61.8103 145.415 62.1076 144.976 62.563 144.888Z" fill="#FFB61D"/>
<path fill-rule="evenodd" clip-rule="evenodd" d="M56.2555 129.774C56.6582 129.544 71.6813 146.694 92.2981 150.576C112.915 154.457 117.907 151.989 118.709 146.694C118.778 146.237 119.206 145.922 119.665 145.991C120.124 146.06 120.439 146.487 120.37 146.943C119.353 153.654 109.813 155.25 92.0155 152.225C74.4411 149.238 62.3921 142.141 55.9436 130.915C55.7132 130.514 55.8528 130.003 56.2555 129.774Z" fill="#FFB61D"/>
<path d="M109.211 45.5156C117.87 45.5014 121.46 46.8846 126.858 48.9658C127.51 49.2172 128.189 49.4795 128.906 49.75C144.753 55.7293 150.296 67.5789 151.674 70.5264C151.732 70.6494 151.782 70.7577 151.826 70.8486C156.359 80.3542 157.733 89.3079 155.955 99.6992C155.716 101.101 155.564 102.287 155.607 102.335C155.651 102.378 156.15 102.163 156.735 101.86C157.602 101.385 157.972 101.32 158.752 101.428C160.097 101.622 160.682 101.947 161.181 102.746C161.919 103.956 161.941 105.857 161.247 109.162C161.116 109.745 161.117 109.745 162.288 109.745C163.762 109.745 164.283 110.113 164.739 111.452C164.999 112.251 165.043 112.771 164.891 113.699C164.711 114.797 166.695 115.672 175.848 119.713C176.607 120.048 177.414 120.405 178.274 120.785C183.37 123.031 187.642 124.22 187.752 124.221C187.883 124.22 188.208 123.745 188.468 123.141C189.358 121.175 191.527 119.77 194.563 119.208C195.952 118.951 197.945 119.004 199.096 119.575C200.394 120.22 202.068 122.449 202.567 124.048L202.828 124.825L204.064 124.264C205.126 123.767 205.583 123.681 207.252 123.681C209.399 123.681 209.747 123.789 212.132 125.365C213.737 126.402 214.779 127.785 215.278 129.514L215.625 130.658L216.752 130.227C219.16 129.319 222.067 130.075 224.214 132.171C225.429 133.402 226.318 134.601 226.318 137.14C226.318 139.284 224.626 147.877 223.932 150.038C222.349 154.834 217.601 168.725 212.263 174.71C207.505 180.045 205.765 181.071 202.847 182.792C202.492 183.001 202.119 183.221 201.721 183.46C193.349 188.494 184.13 190.784 172.439 190.784C165.476 190.784 160.292 190.157 153.004 188.386C138.385 184.864 124.308 177.346 114.851 167.991C114.548 167.69 114.108 167.24 113.617 166.737C111.997 165.081 109.821 162.857 110.187 163.52C110.794 164.665 110.252 171.491 109.189 176.287C107.714 182.789 103.616 188.554 102.27 189.096C102.006 189.202 101.658 189.349 101.253 189.519C99.5998 190.214 97.0027 191.305 95.3296 191.67C92.7268 192.232 85.8939 192.382 82.7485 191.95C75.9812 191 68.4975 188.321 64.7017 185.447C63.1838 184.324 63.0754 184.021 62.7935 180.673L62.6411 178.923L61.644 178.21C60.0607 177.065 56.2645 173.349 55.0063 171.643C53.971 170.278 52.5258 167.259 51.7798 165.7C51.5102 165.137 51.3321 164.763 51.2974 164.729C50.9066 164.403 49.4969 159.824 49.1499 157.707C47.6535 148.785 49.779 138.328 54.5073 131.242C57.8693 126.187 62.8151 122.233 67.5435 120.785C68.9963 120.332 71.6408 120.138 71.231 120.526C71.122 120.613 70.1675 120.958 69.0835 121.282C62.4464 123.291 57.9134 127.44 54.2261 134.915C49.888 143.686 48.7812 153.432 51.9263 162.117C52.0408 162.427 52.1615 162.78 52.2925 163.162C52.8559 164.808 53.6094 167.008 54.8765 168.726C56.3731 170.735 60.6673 175.077 61.7954 175.726L62.5327 176.136L62.4028 175.077C61.8172 170.431 61.7092 148.331 62.2515 144.097C62.49 142.239 62.7066 141.72 63.2485 141.72C63.5084 141.721 63.5522 142.587 63.5522 146.517C63.5523 156.022 64.6366 176.567 65.4175 181.904C65.4604 182.18 65.5018 182.444 65.5396 182.688C65.6734 183.554 65.7694 184.175 65.7866 184.194C66.0701 184.389 70.2547 186.139 71.8813 186.744C78.0197 189.034 86.0678 190.244 91.5337 189.704C95.8497 189.272 98.9672 188.562 101.049 186.985C101.614 186.553 103.485 184.972 104.46 182.855C106.239 178.945 107.996 172.657 109.059 166.284C109.384 164.297 109.732 162.742 109.84 162.828C109.947 162.913 109.644 162.373 109.167 161.597C107.975 159.631 106.934 157.642 106.934 157.318C106.935 156.585 107.845 157.363 109.45 159.522C110.404 160.818 111.64 162.222 112.161 162.633C112.681 163.065 114.135 164.297 115.393 165.377C122.616 171.642 129.362 176.114 136.975 179.766C148.883 185.426 162.613 188.537 173.784 188.083C190.984 187.392 205.04 180.781 212.263 169.979C213.024 168.83 218.515 159.785 218.206 159.436C218.047 159.259 217.296 159.423 216.561 159.584C216.011 159.704 215.469 159.822 215.191 159.795C213.976 159.665 209.414 158.379 208.988 155.31C208.933 154.919 208.042 153.784 208.029 153.768C208.022 153.769 207.118 153.972 206.016 154.488C203.89 155.482 201.786 154.942 199.075 152.695C197.643 151.507 196.971 150.319 196.95 149.022C196.95 148.267 196.253 147.332 196.06 147.219C195.868 147.106 194.934 147.478 194.651 147.78C193.545 148.968 189.533 148.852 187.905 147.985C186.978 147.492 185.541 146.041 185.237 144.918C185.209 144.827 185.176 144.68 185.137 144.499C184.961 143.688 184.637 142.192 183.87 141.979C183.609 141.85 182.329 141.244 181.006 140.64C179.705 140.013 178.122 139.279 177.514 138.998C176.495 138.501 176.321 138.479 175.411 138.717C174.413 138.954 173.741 140.121 173.741 140.64C173.741 141.439 174.087 142.93 175.02 144.248C176.495 146.344 178.73 148.31 182.352 150.708C185.605 152.868 186.321 153.559 187.406 155.568C188.512 157.642 188.967 159.782 189.01 163.044C189.032 165.421 181.733 174.71 171.572 173.803C161.41 172.895 150.293 170.022 143.331 166.565C135.934 162.871 129.405 158.097 123.418 151.939C120.599 149.066 120.382 148.784 117.844 144.528C114.656 139.149 114.46 138.782 114.612 138.177C114.642 138.053 114.664 137.962 114.631 137.899C114.546 137.735 114.082 137.765 112.4 137.875C109.775 138.069 104.96 137.788 102.053 137.291C94.5484 135.995 87.8678 132.992 81.2739 127.979C80.7101 127.548 80.298 127.332 80.3628 127.505C80.4707 127.764 80.1449 127.894 78.9966 128.066C77.2399 128.369 75.6562 128.023 74.897 127.202C73.7257 125.928 72.2066 122.039 72.0981 120.008C72.0548 118.993 71.9028 118.409 71.686 118.258C71.5126 118.128 71.3608 117.847 71.3608 117.631C71.3606 117.394 71.2518 117.308 71.0571 117.372C70.8836 117.437 70.5805 117.307 70.3638 117.069C70.3411 117.044 70.2014 116.947 69.9712 116.786L69.0903 116.164C66.5615 114.343 61.0632 110.061 59.9731 105.749C58.5633 100.172 57.9565 96.5455 57.7612 95.0547C57.3925 92.4192 57.3703 92.311 56.2642 90.626C54.6591 88.1415 52.8804 84.7278 52.5767 83.626L52.3384 82.6748L51.7749 84.9648C51.4496 86.2392 51.1891 87.666 51.189 88.1416C51.1889 88.7454 51.0801 89.0693 50.8423 89.1562C50.1699 89.4155 49.7787 88.8754 49.2798 87.0391C48.8461 85.3975 48.8032 84.9002 48.9116 81.8975C49.0418 78.4194 49.41 75.2217 49.9956 72.7373C50.8415 69.1295 52.1871 65.7375 53.2065 64.6357C53.6617 64.1395 54.2255 63.988 54.2261 64.376C54.2261 64.5055 54.0732 64.5916 53.8999 64.5918C53.0538 64.5935 51.1674 70.6424 50.4517 75.5459C50.1047 78.0303 49.9526 85.7629 50.2778 85.7646C50.3652 85.7622 50.6468 85.115 50.9282 84.3389C51.5138 82.6758 52.4034 81.228 52.8589 81.2275C53.0752 81.2277 53.0971 81.3361 52.9673 81.5732C52.7287 81.9837 53.0547 83.2152 53.6187 84.0361C53.6945 84.1537 53.8685 84.4315 54.104 84.8066C54.4744 85.3968 54.9966 86.2287 55.5269 87.0605L57.0669 89.5459L56.937 86.7373C56.8286 84.9658 56.8719 83.2368 57.0454 82.0918C57.284 80.2124 57.8484 78.6996 58.2388 78.8076C58.4984 78.8736 58.4983 79.6317 58.1733 82.502C58.0215 83.7333 57.9561 84.7925 57.9995 84.8574C58.0647 84.9 58.2383 84.6626 58.4116 84.3174C58.6071 83.993 59.1716 83.215 59.6919 82.6104C60.2341 82.0054 60.9282 80.9684 61.2534 80.2988C61.8612 79.0671 64.4636 75.9348 65.7866 74.833C66.307 74.4009 66.8059 73.6226 67.3696 72.3701C71.0353 64.0311 77.5864 56.7068 85.6333 51.9971C87.693 50.7878 87.8454 50.6571 87.3687 50.4844C87.1082 50.3763 86.1317 49.9232 85.2427 49.4912C84.6066 49.1822 84.0148 48.9057 83.6978 48.7578H83.6968C83.5716 48.6995 83.4893 48.6608 83.4644 48.6484C83.3993 48.6053 83.2689 48.7782 83.1821 49.0156C82.9869 49.6634 82.6623 49.577 82.3804 48.7998C82.2502 48.4327 81.924 48.0652 81.6421 47.957C80.97 47.6978 80.9701 47.1358 81.6421 46.9629C82.2279 46.8337 83.3779 47.3528 85.2427 48.6055C85.8932 49.0374 86.7826 49.5768 87.1948 49.793C87.6068 50.009 88.0194 50.2689 88.0845 50.377C88.1508 50.4627 88.9314 50.2245 89.8198 49.8145C96.2181 46.8981 99.5063 45.5317 109.211 45.5156ZM138.949 128.131C132.767 132.776 125.11 136.038 117.237 137.378C115.372 137.68 114.981 137.81 115.436 137.939C115.87 138.048 116.239 138.458 116.738 139.322C119.124 143.535 125.154 151.139 129.795 155.05C140.814 164.296 156.041 170.281 168.643 171.383C172.656 171.728 177.927 170.865 180.92 169.374C182.677 168.488 184.607 166.975 185.301 165.96C186.364 164.361 187.163 162.59 187.189 161.877C187.406 155.977 181.685 151.939 178.361 149.887C174.129 147.274 171.918 143.47 171.918 141.353C171.919 139.473 172.808 138.242 173.285 137.594L173.741 136.989L173.263 136.687C170.292 134.872 167.168 133.122 164.218 131.609C162.245 130.594 159.945 129.32 159.121 128.736L157.581 127.721L157.039 128.218C156.041 129.168 154.24 129.838 152.744 129.838C151.443 129.838 151.312 129.794 150.619 129.104L149.859 128.347L148.926 128.974C147.56 129.902 145.304 130.917 144.631 130.918C142.961 130.918 140.705 129.492 140.12 128.088L139.86 127.461L138.949 128.131ZM165.975 116.465C164.674 115.709 164.413 115.644 164.413 116.141C164.413 116.789 163.09 119.792 162.071 121.412C161.529 122.298 160.466 123.897 159.707 124.956L158.361 126.878L159.923 127.569C160.248 127.719 163.82 129.429 168.111 131.482C175.029 134.794 183.816 138.998 183.87 138.998C183.957 138.996 184.363 138.06 184.455 136.968C184.671 134.613 185.474 131.416 186.407 129.19C186.841 128.197 187.188 126.954 187.188 126.846C187.186 126.796 186.834 126.654 186.258 126.423C185.571 126.147 184.565 125.743 183.458 125.215C177.992 122.601 167.299 117.265 165.975 116.465ZM162.851 124.912C163.62 124.977 182.155 134.333 183.5 135.109C184.122 135.468 183.045 135.996 182.785 136.082C181.252 136.212 179.448 135.924 177.969 135.066C177.195 134.52 171.11 131.152 167.073 128.918C165.228 127.897 163.81 127.113 163.524 126.943C162.613 126.403 161.745 125.819 161.593 125.646C161.138 125.063 161.572 124.804 162.851 124.912ZM159.337 103.222C158.795 102.854 157.537 103.071 156.431 103.719C155.498 104.237 155.173 104.583 154.739 105.49C154.457 106.117 154.218 106.722 154.218 106.873C154.217 107.329 152.244 112.015 151.463 113.419C149.121 117.632 146.41 121.175 142.875 124.632L140.575 126.9L141.226 127.699C141.617 128.196 142.224 128.629 142.788 128.823C144.327 129.385 145.239 129.276 146.8 128.412C148.384 127.526 149.555 126.381 151.355 124.005C152.027 123.119 152.961 121.844 153.459 121.196C156.648 116.94 158.188 113.981 159.337 109.854C160.379 106.095 160.378 103.913 159.337 103.222ZM161.887 111.327C161.066 111.327 160.458 112.09 159.424 114.78C158.07 118.305 150.514 127.867 150.509 127.872L150.965 128.326C151.355 128.715 151.573 128.757 152.332 128.649C153.524 128.455 155.574 127.591 156.485 126.749C156.875 126.36 157.764 125.236 158.458 124.221C161.452 119.792 162.449 117.74 163.1 114.629C163.49 112.706 163.199 112.144 162.895 111.69C162.721 111.431 162.346 111.327 161.887 111.327ZM65.1577 77.793C65.0059 77.6417 59.9091 83.4723 59.2144 85.333C59.0619 85.7413 58.6499 86.4557 58.3247 86.8877L57.7612 87.6094C57.7612 87.6094 57.9368 88.6196 58.1304 89.8887C58.5875 92.8859 58.4772 93.6937 58.9976 96.1992C59.3446 97.9708 59.692 99.5053 59.7788 99.6133C59.8441 99.7439 60.1259 100.738 60.4077 101.839C61.015 104.28 62.0339 106.699 62.9448 107.888C64.7018 110.135 67.0234 112.684 68.1079 113.548C68.7585 114.066 69.3223 114.499 69.3657 114.499C69.3763 114.477 68.9038 113.491 68.3032 112.295C65.8522 107.434 64.42 102.594 63.7476 97.0205C63.5957 95.7895 63.3574 94.7525 63.0972 94.3203C62.5766 93.4561 62.5764 92.332 63.1187 91.2734C63.4003 90.7119 63.5522 89.999 63.5522 89.2217V88.0332L62.5112 89.1133C61.4918 90.1719 60.5162 90.6041 60.5161 89.9561C60.5169 89.48 62.1216 87.1903 62.9673 86.4775C63.639 85.9163 63.726 85.7206 63.9429 84.0361C64.0947 83.0207 64.4422 81.228 64.7241 80.04C65.0272 78.8541 65.2002 77.8396 65.1577 77.793ZM53.4019 72.8672C53.7267 72.5438 54.0077 72.3927 54.0083 72.5C54.0071 72.7814 52.9246 73.7736 52.3823 73.9902C52.0353 74.1414 52.1433 74.206 52.9888 74.4004C53.5733 74.5298 53.9635 74.7249 53.8784 74.8115C53.5959 75.092 52.0995 74.9627 51.7524 74.6172C51.2102 74.0987 51.3409 73.7313 52.1001 73.5801C52.4905 73.515 53.0767 73.1911 53.4019 72.8672ZM60.7759 73.1904C61.1225 72.5001 61.2752 72.3703 61.3403 72.6504C61.3837 72.8663 61.2746 73.2777 61.0796 73.5586C60.6028 74.2927 60.6462 74.3794 61.3833 74.2715C62.1199 74.1637 62.2503 74.4008 61.6226 74.7461C61.1021 75.0053 60.5809 75.0053 59.9087 74.7246C59.3883 74.5302 59.4313 74.0989 59.9731 74.0986C60.1469 74.0979 60.5158 73.6869 60.7759 73.1904ZM66.5679 51.5C68.6716 50.8953 71.0362 50.8088 71.7085 51.3057C72.0767 51.5862 71.9453 51.6083 70.3413 51.6299C66.871 51.63 62.8579 53.402 56.3296 57.7441C52.9466 59.9905 49.0217 63.209 49.02 63.7285C49.0216 63.8356 49.6503 63.6196 50.4302 63.2744C52.1001 62.5185 53.8137 62.129 54.5728 62.3018C55.3748 62.5178 55.2006 62.799 54.1167 62.9502C53.5958 63.0369 51.9695 63.6849 50.5386 64.3975C49.0899 65.0866 47.8559 65.6691 47.7622 65.6514C45.5498 65.4137 48.6299 61.7406 54.2261 57.9814C59.5832 54.3738 63.206 52.4722 66.5679 51.5ZM65.8296 57.5928C66.8918 57.5712 67.1316 57.6362 67.1968 57.9385C67.2616 58.2405 67.1304 58.2836 66.5454 58.1973C66.1552 58.1326 65.5913 58.1763 65.2876 58.2842L64.7456 58.4785L65.2446 58.6299C65.8945 58.8459 65.8511 59.2133 65.0493 59.7314C64.6806 59.9691 63.6387 60.9847 62.7495 62L61.1235 63.8359L62.8804 63.9014C63.855 63.9445 64.6354 64.0523 64.6372 64.1602C64.6372 64.3762 64.5496 64.3982 62.5112 64.8086C60.1905 65.2622 59.8222 65.0676 60.4946 63.793C60.9298 62.9278 64.4205 59.4072 64.8325 59.4072C64.9623 59.4069 65.0708 59.3206 65.0708 59.2344C65.0696 59.1264 64.506 58.9536 63.8345 58.8457C61.4053 58.4568 62.7282 57.6361 65.8296 57.5928ZM76.0464 54.8057C76.2228 54.6336 78.3455 54.8709 78.6489 55.1084C78.7791 55.2162 78.9749 55.194 79.105 55.0645C79.4085 54.7632 79.8206 55.0009 79.8208 55.4756C79.8207 55.7344 79.7551 55.7558 79.5601 55.5615C79.3867 55.3889 79.2345 55.3892 79.0396 55.54C78.8661 55.6912 78.7359 55.6913 78.6274 55.5186C78.5623 55.4106 78.1499 55.3028 77.7163 55.3027C77.3167 55.3027 77.1273 55.3032 77.0884 55.3789C77.0543 55.4472 77.1405 55.5767 77.3042 55.8213C77.6499 56.3594 77.6292 56.3606 76.8345 56.4248L76.8267 56.4258C76.1982 56.469 76.0461 56.5777 76.0894 56.8799C76.0916 56.8949 76.0941 56.9099 76.0962 56.9238C76.1204 57.0825 76.1342 57.1747 76.0991 57.2031C76.0507 57.2409 75.9106 57.1619 75.5825 56.9766C75.5643 56.9663 75.5453 56.9553 75.5259 56.9443C75.1138 56.7283 75.0705 56.6201 75.3091 56.4473C75.4614 56.3177 75.8729 56.1234 76.1978 56.0586L76.8052 55.9072L76.3501 55.4316C76.1116 55.1509 75.9814 54.8921 76.0464 54.8057ZM68.4116 49.1455C67.9997 48.0654 70.19 47.6546 74.5278 47.957C78.1499 48.2163 80.0373 48.5837 81.5122 49.3398C82.3574 49.7932 82.4444 49.8798 81.9897 49.8799C81.6862 49.8799 80.8617 49.7499 80.146 49.5771C79.4303 49.3827 77.3905 49.188 75.5903 49.1016L72.3374 48.9727L72.9448 49.5771C73.2698 49.901 73.5294 50.3978 73.5298 50.6787C73.5298 51.3052 73.357 51.3051 72.728 50.6787C72.1425 50.0955 70.4071 49.4691 69.3442 49.4688C68.8241 49.4688 68.4771 49.3612 68.4116 49.1455Z" fill="white"/>
<path d="M211.026 149.46C213.725 142.137 213.316 140.577 212.848 140.424C212.848 140.424 211.818 141.008 211.362 142.239C210.516 144.551 207.621 150.6 206.536 151.68C205.256 152.955 205.256 152.955 203.955 152.955C202.654 152.955 198.9 151.003 198.389 149.078C197.571 146 201.092 135.304 201.179 134.699L200.593 134.289C200.202 134.656 195.124 149.995 188.446 145.998C187.682 145.54 186.06 143.384 185.93 142.239C185.207 138.912 188.524 127.278 189.088 124.888C189.592 122.749 192.22 120.764 195.452 120.764C200.419 120.764 199.752 125.089 201.977 126.613C202.963 127.288 204.583 126.064 205.083 125.971C207.881 125.452 208.953 126.056 211.004 127.678C212.588 128.929 213.759 131.406 215.049 132.279C215.765 132.764 216.525 132.101 216.774 131.977C217.795 131.467 219.984 131.847 220.592 132.279C221.482 132.666 223.664 134.755 224.008 135.97C225.571 141.477 220.638 153.684 218.775 155.974C215.693 159.765 208.328 156.784 211.026 149.46Z" fill="#212121"/>
<path fill-rule="evenodd" clip-rule="evenodd" d="M86.3272 129.394C92.2705 133.132 98.3986 135.573 105.383 136.243C110.892 136.761 118.321 136.048 123.657 134.32C128.147 132.872 134.22 128.863 138.276 125.471C146.15 118.903 151.117 108.644 153.286 97.7554C153.59 96.2215 154.053 92.3657 154.031 88.5417C154.031 84.0912 152.065 71.9292 146.106 64.9167C133.818 50.4533 113.617 43.9379 96.6406 49.5049C90.5165 51.5131 83.9961 55.1515 79.0724 59.9044C72.8689 65.9321 68.2922 74.1418 66.4702 82.5243C64.5614 91.3821 67.0444 101.968 71.3608 110.653C74.8096 117.567 80.4925 125.7 86.3272 129.394ZM144.241 103.286C140.163 115.493 129.535 124.61 116.173 127.375C114.134 127.786 112.725 127.937 109.861 127.98C107.844 128.045 105.827 128.023 105.415 127.98C96.0663 126.857 88.9518 123.422 82.4013 116.897C79.5381 114.024 78.3234 112.468 76.5448 109.4C73.7467 104.539 72.2501 99.5702 71.7946 93.5858C70.2329 73.0832 84.9607 55.994 105.697 54.2225C113.831 53.5311 122.854 56.0156 129.708 60.855C132.246 62.6482 136.844 67.1851 138.276 69.3024C138.862 70.145 144.545 78.4195 145.542 83.1725C146.822 89.3513 146.323 97.0857 144.241 103.286Z" fill="#212121"/>
<path fill-rule="evenodd" clip-rule="evenodd" d="M154.039 88.5418C154.039 103.043 147.152 118.897 138.264 125.667C134.024 128.897 128.482 132.809 123.656 134.32C116.584 136.535 105.383 136.243 105.383 136.243C105.383 136.243 116.811 134.721 121.046 133.024C133.19 128.156 139.819 120.683 143.913 113.513C151.993 99.3607 154.039 88.1895 154.039 88.5418Z" fill="#3F4143"/>
<path fill-rule="evenodd" clip-rule="evenodd" d="M105.632 125.388C99.8406 124.653 94.0926 122.601 89.4508 119.555C86.6961 117.761 82.5315 113.549 80.5143 110.545C77.6295 106.225 75.7207 101.601 74.788 96.6322C74.1156 93.0243 74.1373 87.4719 74.8097 84.2529C75.5038 80.969 76.3931 78.4629 77.9765 75.287C79.8202 71.6143 81.7724 68.9137 84.7006 65.9971C89.6894 61.0281 95.4808 57.8738 102.378 56.3615C104.612 55.8862 112.703 55.4973 112.985 55.8646C113.05 55.9726 113.484 56.2535 113.939 56.4912C114.395 56.7504 115.61 57.6578 116.607 58.5436C118.104 59.8398 118.776 60.6608 120.078 62.6916C120.967 64.0743 121.683 65.3274 121.683 65.4354C121.683 65.673 122.377 66.1051 122.767 66.1051C123.31 66.1051 123.678 64.4848 123.787 61.633C123.852 60.0559 123.982 58.7596 124.069 58.7596C124.373 58.7596 127.713 60.596 129.275 61.633C132.333 63.6638 135.391 66.5156 137.647 69.497C138.667 70.8365 138.818 71.1822 138.818 72.0031C138.818 72.7593 139.035 73.3426 139.708 74.5093C141.4 77.4475 142.723 81.1418 143.525 85.2251C144.046 87.9688 144.046 93.1539 143.504 96.0273C142.029 103.935 137.647 111.799 131.943 116.789C127.106 121.002 121.965 123.595 115.892 124.869C113.809 125.323 107.562 125.625 105.632 125.388ZM90.1232 110.61C90.3185 110.394 90.4486 110.07 90.3835 109.919C90.364 109.874 90.0925 109.746 89.6951 109.56L89.6949 109.56L89.6949 109.56C88.7681 109.126 87.157 108.372 86.4588 107.586C83.6824 104.431 82.6629 102.077 82.0339 97.2155C81.4266 92.4842 81.9368 89.2856 83.0317 84.1448C83.5658 81.6371 84.9853 79.5657 85.8685 78.2769C86.4691 77.4007 86.8216 76.8863 86.4792 76.8425C85.6333 76.7129 85.5032 76.7777 84.6138 77.6203C82.7051 79.4351 81.8375 80.8826 80.9265 83.6695C79.5166 88.0337 79.2441 99.8276 82.0339 105.144C84.8237 110.461 89.6244 111.172 90.1232 110.61ZM120.967 92.4626C120.599 95.8187 119.037 100.672 117.215 102.789C116.369 103.783 113.264 105.49 110.642 105.144C108.111 104.81 106.131 103.632 104.439 101.104C102.986 98.9223 102.235 96.2736 101.728 92.9379C100.851 87.1776 104.678 80.4721 106.326 78.8085C107.996 77.1018 109.189 76.4969 110.708 76.4753C112.183 76.4753 113.137 76.7993 114.634 77.858C117.367 79.7591 121.683 85.9409 120.967 92.4626ZM91.7283 74.5957C92.1621 74.0988 92.2272 73.8611 92.0971 72.9321C92.0103 72.068 91.8368 71.7223 91.3813 71.355C90.5787 70.7069 89.581 70.7069 88.8435 71.3982C88.3229 71.8951 88.2579 72.068 88.3229 73.2562C88.388 74.5309 88.4314 74.6173 89.1472 75.0062C90.1016 75.5247 91.0342 75.3734 91.7283 74.5957ZM105.263 61.2657C101.359 64.0527 99.6671 65.1978 97.9101 66.278C96.5219 67.1422 96.0881 67.1638 96.0881 66.386C96.0881 65.9755 96.3918 65.5218 97.1727 64.8089L98.2572 63.8151L96.1532 63.5342C93.7889 63.2317 91.4897 62.5836 90.9909 62.0867C90.1666 61.2441 90.8824 61.0497 93.225 61.4818C94.2661 61.6546 96.2833 61.8707 97.7149 61.9139L100.318 62.0219L102.205 60.6608C106.348 57.6794 110.642 55.9943 112.703 56.5128C113.983 56.8152 113.831 57.1609 112.378 57.3337C110.708 57.5282 109.688 58.0899 105.263 61.2657Z" fill="#212121"/>
<path d="M110.837 102.184C110.837 102.076 110.968 101.968 111.141 101.968C111.315 101.968 111.531 102.076 111.597 102.184C111.662 102.314 111.531 102.4 111.293 102.4C111.033 102.4 110.837 102.314 110.837 102.184Z" fill="#212121"/>
<path d="M112.139 101.99C112.139 101.752 112.681 101.536 113.289 101.536C113.766 101.558 113.766 101.558 113.354 101.86C112.877 102.227 112.139 102.292 112.139 101.99Z" fill="#212121"/>
<path d="M108.777 101.428C108.712 101.255 108.625 100.953 108.56 100.78C108.495 100.564 108.604 100.456 108.886 100.456C109.124 100.456 109.319 100.586 109.319 100.759C109.319 100.931 109.385 101.212 109.45 101.407C109.536 101.644 109.471 101.752 109.233 101.752C109.037 101.752 108.821 101.601 108.777 101.428Z" fill="#212121"/>
<path d="M109.927 100.888C109.818 100.24 110.057 100.024 110.838 100.024C111.076 100.024 111.271 100.24 111.358 100.607C111.532 101.234 111.25 101.536 110.491 101.536C110.143 101.536 109.992 101.385 109.927 100.888Z" fill="#212121"/>
<path d="M107.714 100.996C107.302 100.672 107.302 100.672 107.757 100.672C108.039 100.672 108.235 100.802 108.235 100.996C108.235 101.385 108.235 101.385 107.714 100.996Z" fill="#212121"/>
<path d="M112.074 100.975C111.792 100.694 111.922 99.8511 112.269 99.7215C112.898 99.4838 113.18 99.5919 113.31 100.154C113.397 100.478 113.441 100.759 113.397 100.78C113.224 100.975 112.204 101.104 112.074 100.975Z" fill="#212121"/>
<path d="M114.004 100.521C113.939 100.456 113.874 100.175 113.874 99.9158C113.874 99.5486 114.048 99.3973 114.568 99.2893C115.024 99.2029 115.306 99.2461 115.436 99.4189C115.653 99.7646 115.653 100.197 115.457 100.305C115.067 100.521 114.156 100.65 114.004 100.521Z" fill="#212121"/>
<path d="M106.716 99.8511C106.716 99.5919 106.912 99.3758 107.194 99.311C107.757 99.1598 107.736 99.1382 107.844 99.6999C107.888 100.024 107.779 100.154 107.324 100.197C106.846 100.262 106.716 100.175 106.716 99.8511Z" fill="#212121"/>
<path d="M108.365 99.8728C108.061 99.5488 108.256 98.9438 108.668 98.9438C108.95 98.9438 109.102 99.0951 109.102 99.3543C109.102 99.7648 108.603 100.11 108.365 99.8728Z" fill="#212121"/>
<path d="M109.667 99.2247C109.493 98.8142 109.862 98.5117 110.578 98.5117C110.903 98.5117 111.055 98.6413 111.055 98.9222C111.055 99.1599 110.859 99.3759 110.578 99.4623C109.862 99.6351 109.818 99.6351 109.667 99.2247Z" fill="#212121"/>
<path d="M115.935 99.1599C116 99.0519 116.109 98.9438 116.174 98.9438C116.239 98.9438 116.217 99.0519 116.152 99.1599C116.087 99.2895 115.978 99.3759 115.913 99.3759C115.848 99.3759 115.87 99.2895 115.935 99.1599Z" fill="#212121"/>
<path d="M111.618 98.7925C111.445 98.3604 111.662 98.1443 112.356 98.0363C112.746 97.9931 112.92 98.0795 112.963 98.382C113.115 99.0949 111.879 99.4838 111.618 98.7925Z" fill="#212121"/>
<path d="M106.412 98.4252C106.217 97.7123 106.261 97.6475 106.825 97.6475C107.128 97.6475 107.367 97.7339 107.367 97.8419C107.367 97.9499 107.432 98.1876 107.497 98.3604C107.562 98.5765 107.432 98.7061 107.063 98.7709C106.651 98.8573 106.499 98.7709 106.412 98.4252Z" fill="#212121"/>
<path d="M113.657 98.1878C113.657 97.799 113.809 97.6261 114.221 97.5181C114.829 97.3669 115.176 97.6693 115.176 98.3607C115.176 98.6415 115.002 98.7279 114.416 98.7279C113.744 98.7279 113.657 98.6631 113.657 98.1878Z" fill="#212121"/>
<path d="M105.762 98.1878C105.697 98.015 105.74 97.8638 105.849 97.8638C105.979 97.8638 106.066 98.015 106.066 98.1878C106.066 98.3607 106.022 98.5119 105.979 98.5119C105.936 98.5119 105.849 98.3607 105.762 98.1878Z" fill="#212121"/>
<path d="M107.952 98.3606C107.649 98.0797 107.822 97.4748 108.213 97.3668C108.451 97.302 108.69 97.3236 108.755 97.3884C109.015 97.626 108.863 98.2526 108.538 98.3822C108.126 98.5334 108.126 98.5334 107.952 98.3606Z" fill="#212121"/>
<path d="M115.696 98.2095C115.458 97.5829 115.718 97.1076 116.325 97.0428C116.781 96.978 116.911 97.0644 116.911 97.4101C116.911 98.123 116.672 98.5119 116.238 98.5119C116 98.5119 115.761 98.3823 115.696 98.2095Z" fill="#212121"/>
<path d="M109.471 97.9284C109.211 97.6907 109.297 97.2587 109.666 97.129C110.078 96.9778 110.946 97.4099 110.707 97.6475C110.404 97.9068 109.623 98.1012 109.471 97.9284Z" fill="#212121"/>
<path d="M111.358 97.3884C111.163 97.0859 111.857 96.5674 112.421 96.5674C112.681 96.5674 112.79 96.697 112.747 96.9347C112.66 97.3667 111.554 97.7124 111.358 97.3884Z" fill="#212121"/>
<path d="M105.415 97.2369C105.415 97.1288 105.35 96.8912 105.285 96.6967C105.219 96.5023 105.241 96.3511 105.371 96.3511C105.653 96.3511 105.87 97.172 105.61 97.3449C105.501 97.4097 105.415 97.3665 105.415 97.2369Z" fill="#212121"/>
<path d="M106.001 96.7399C105.87 96.2646 106.131 95.9189 106.63 95.9189C106.912 95.9189 107.194 96.7615 107.02 97.0424C106.781 97.4097 106.109 97.1936 106.001 96.7399Z" fill="#212121"/>
<path d="M107.519 96.8481C107.194 96.5241 107.389 95.7463 107.823 95.6383C108.148 95.5519 108.321 95.6599 108.495 96.0488C108.625 96.3296 108.69 96.6105 108.647 96.6537C108.43 96.8481 107.649 96.9994 107.519 96.8481Z" fill="#212121"/>
<path d="M113.375 96.848C113.094 96.5671 113.224 96.3943 113.874 96.1566C114.417 95.9838 114.568 96.0054 114.677 96.2646C114.872 96.7831 113.788 97.28 113.375 96.848Z" fill="#212121"/>
<path d="M115.284 96.3513C115.067 96.0056 115.371 95.7031 115.935 95.7031C116.607 95.7031 116.803 96.2648 116.195 96.4377C115.544 96.6105 115.436 96.5889 115.284 96.3513Z" fill="#212121"/>
<path d="M117.128 95.8326C117.128 95.5085 117.518 95.1628 117.692 95.3357C117.844 95.4869 117.54 96.135 117.323 96.135C117.215 96.135 117.128 96.0054 117.128 95.8326Z" fill="#212121"/>
<path d="M105.133 95.552C105.046 95.4872 104.981 95.2063 105.003 94.9687C105.003 94.5582 105.024 94.5582 105.22 95.0335C105.437 95.552 105.393 95.8112 105.133 95.552Z" fill="#212121"/>
<path d="M105.545 95.2277C105.35 94.4716 105.371 94.4067 105.935 94.4067C106.564 94.4067 106.955 95.2061 106.478 95.5086C105.979 95.811 105.697 95.7246 105.545 95.2277Z" fill="#212121"/>
<path d="M113.007 95.6599C113.007 95.5951 113.115 95.2495 113.245 94.8606C113.549 93.9964 114.222 93.9532 114.373 94.7958C114.438 95.1198 114.46 95.4007 114.438 95.4223C114.33 95.5519 113.007 95.7464 113.007 95.6599Z" fill="#212121"/>
<path d="M107.085 95.1196C106.998 95.0548 106.933 94.7955 106.933 94.5579C106.933 94.2122 106.998 94.1906 107.258 94.4067C107.432 94.5579 107.584 94.8171 107.584 94.9684C107.584 95.2924 107.324 95.3789 107.085 95.1196Z" fill="#212121"/>
<path d="M114.894 94.6878C114.764 94.0181 115.046 93.7156 115.718 93.802C116.043 93.8452 116.152 94.0397 116.152 94.515C116.152 95.0551 116.065 95.1847 115.588 95.2279C115.111 95.2927 115.002 95.1847 114.894 94.6878Z" fill="#212121"/>
<path d="M117.019 94.7741C116.737 93.9099 116.824 93.6506 117.41 93.5858C117.93 93.521 117.995 93.5858 117.995 94.1476C117.995 94.6228 117.865 94.8173 117.54 94.9037C117.301 94.9685 117.063 94.9037 117.019 94.7741Z" fill="#212121"/>
<path d="M104.808 93.5429C104.808 93.1324 104.851 92.9595 104.916 93.1756C104.959 93.37 104.959 93.7157 104.916 93.9317C104.851 94.1262 104.808 93.9533 104.808 93.5429Z" fill="#212121"/>
<path d="M105.35 93.8234C105.068 93.5642 105.198 92.7216 105.545 92.592C106.044 92.3976 106.283 92.6352 106.283 93.3482C106.283 93.8018 106.174 93.9747 105.892 93.9747C105.675 93.9747 105.415 93.9099 105.35 93.8234Z" fill="#212121"/>
<path d="M106.651 93.2404C106.564 92.9164 106.521 92.5707 106.608 92.5059C106.825 92.2898 106.955 92.6355 106.89 93.262L106.825 93.867L106.651 93.2404Z" fill="#212121"/>
<path d="M113.657 93.0891C113.657 92.8515 113.766 92.7218 113.874 92.7866C114.004 92.8515 114.091 93.0675 114.091 93.2403C114.091 93.4132 114.004 93.5428 113.874 93.5428C113.766 93.5428 113.657 93.3484 113.657 93.0891Z" fill="#212121"/>
<path d="M114.634 93.3698C114.33 93.0457 114.568 92.4624 115.067 92.3327C115.696 92.1815 115.718 92.1815 115.913 92.808C116.043 93.1969 115.957 93.2833 115.393 93.3698C115.046 93.4346 114.699 93.413 114.634 93.3698Z" fill="#212121"/>
<path d="M116.629 92.9596C116.39 92.7435 116.455 92.0306 116.694 92.0306C116.824 92.0306 116.911 91.9442 116.911 91.8145C116.911 91.7065 116.781 91.5985 116.607 91.5985C116.238 91.5985 115.935 90.5399 116.238 90.2374C116.629 89.8485 117.063 90.259 117.323 91.3176C117.475 91.8793 117.627 92.5275 117.692 92.7435C117.778 93.0244 117.692 93.1108 117.28 93.1108C116.998 93.1108 116.694 93.046 116.629 92.9596Z" fill="#212121"/>
<path d="M117.8 91.8142C117.648 91.1661 117.258 89.8698 116.976 88.9192C116.542 87.5366 116.499 87.1909 116.737 87.0397C116.889 86.9316 117.084 86.8452 117.149 86.8452C117.388 86.8452 118.256 91.2741 118.169 92.1383L118.104 93.0025L117.8 91.8142Z" fill="#212121"/>
<path d="M104.591 91.7062C104.591 91.3605 104.634 91.2309 104.699 91.4469C104.743 91.6414 104.743 91.9438 104.699 92.0951C104.634 92.2247 104.591 92.0735 104.591 91.7062Z" fill="#212121"/>
<path d="M105.024 91.6632C105.111 90.907 105.74 90.7342 105.914 91.4255C106.066 91.9872 106.109 91.9224 105.458 92.1385C105.003 92.2681 104.959 92.2249 105.024 91.6632Z" fill="#212121"/>
<path d="M114.178 91.4687C114.004 90.8422 114.373 90.4749 115.067 90.5613C115.588 90.6262 115.783 91.5552 115.349 91.836C114.807 92.1817 114.308 92.0304 114.178 91.4687Z" fill="#212121"/>
<path d="M106.283 91.2961C106.283 90.9288 106.391 90.7344 106.63 90.7344C106.847 90.7344 106.933 90.8856 106.89 91.2097C106.782 91.901 106.283 91.9658 106.283 91.2961Z" fill="#212121"/>
<path d="M104.352 90.3884C104.352 90.1508 104.417 90.0859 104.482 90.2588C104.547 90.41 104.525 90.6045 104.46 90.6693C104.395 90.7557 104.33 90.6261 104.352 90.3884Z" fill="#212121"/>
<path d="M104.764 90.3238C104.764 89.9997 104.894 89.8701 105.22 89.8701C105.523 89.8701 105.632 89.9781 105.588 90.2374C105.48 90.7991 104.764 90.8639 104.764 90.3238Z" fill="#212121"/>
<path d="M105.957 90.1292C105.805 89.7403 105.805 89.7403 106.456 89.5675C106.847 89.4378 106.933 89.5027 106.933 89.8267C106.933 90.3452 106.153 90.6045 105.957 90.1292Z" fill="#212121"/>
<path d="M113.809 89.8268C113.657 89.2867 113.939 89.0059 114.698 89.0059C115.067 89.0059 115.176 89.1355 115.176 89.546C115.176 89.87 115.046 90.0861 114.872 90.0861C114.698 90.0861 114.416 90.1509 114.243 90.2157C114.048 90.2805 113.896 90.1509 113.809 89.8268Z" fill="#212121"/>
<path d="M115.696 89.3299C115.523 88.8978 115.783 88.5737 116.282 88.5737C116.586 88.5737 116.694 88.725 116.694 89.1138C116.694 89.5027 116.586 89.654 116.26 89.654C116.022 89.654 115.761 89.5027 115.696 89.3299Z" fill="#212121"/>
<path d="M104.547 89.0272C104.547 88.5735 105.046 88.055 105.263 88.2926C105.35 88.3574 105.415 88.6599 105.415 88.9407C105.415 89.2864 105.285 89.4376 104.981 89.4376C104.699 89.4376 104.547 89.2864 104.547 89.0272Z" fill="#212121"/>
<path d="M105.74 88.768C105.567 88.2279 105.762 87.9902 106.499 87.8822C107.172 87.7958 107.389 88.5087 106.803 88.9408C106.239 89.3513 105.892 89.2865 105.74 88.768Z" fill="#212121"/>
<path d="M113.592 88.6387C113.44 88.509 113.375 87.7097 113.505 87.7097C113.527 87.7097 113.852 87.6232 114.243 87.5152C114.894 87.3208 114.937 87.3424 114.915 87.9257C114.894 88.3578 114.763 88.5738 114.438 88.6603C113.852 88.8115 113.766 88.8115 113.592 88.6387Z" fill="#212121"/>
<path d="M112.79 88.1416C112.79 87.9904 112.855 87.9255 112.941 87.9904C113.006 88.0768 113.006 88.2064 112.941 88.2928C112.855 88.3576 112.79 88.2928 112.79 88.1416Z" fill="#212121"/>
<path d="M115.219 87.7961C115.284 87.4288 115.957 86.8887 116.109 87.0615C116.174 87.1263 116.282 87.3856 116.347 87.6665C116.499 88.0985 116.434 88.1418 115.827 88.1418C115.306 88.1418 115.154 88.0553 115.219 87.7961Z" fill="#212121"/>
<path d="M104.764 87.7744C104.764 87.6664 104.873 87.4503 104.981 87.2775C105.155 87.0182 105.198 87.0398 105.198 87.4503C105.198 87.7096 105.111 87.9256 104.981 87.9256C104.873 87.9256 104.764 87.8608 104.764 87.7744Z" fill="#212121"/>
<path d="M105.415 87.2988C105.415 86.6939 105.871 86.4994 106.218 86.9531C106.434 87.2772 106.434 87.3852 106.218 87.5364C105.762 87.8173 105.415 87.7309 105.415 87.2988Z" fill="#212121"/>
<path d="M112.009 87.0182C111.619 86.5861 111.619 86.5645 111.987 86.6941C112.204 86.7805 112.486 86.8454 112.595 86.8454C112.703 86.8454 112.79 86.9966 112.79 87.1694C112.79 87.6231 112.486 87.5799 112.009 87.0182Z" fill="#212121"/>
<path d="M107.345 86.9967C106.412 86.2838 106.282 84.6851 107.15 84.6851C107.736 84.6851 108.278 85.5924 108.191 86.435C108.126 87.2128 107.866 87.3856 107.345 86.9967Z" fill="#212121"/>
<path d="M113.289 87.1262C113.376 87.0614 113.506 87.0614 113.592 87.1262C113.658 87.2127 113.592 87.2775 113.441 87.2775C113.289 87.2775 113.224 87.2127 113.289 87.1262Z" fill="#212121"/>
<path d="M116.564 86.2836C116.629 86.0892 116.694 85.8948 116.694 85.8516C116.694 85.8083 116.803 85.7651 116.911 85.7651C117.041 85.7651 117.128 85.9596 117.128 86.1972C117.128 86.4565 116.976 86.6293 116.781 86.6293C116.542 86.6293 116.477 86.5213 116.564 86.2836Z" fill="#212121"/>
<path d="M105.198 86.2188C105.198 85.7218 105.654 84.9009 105.914 84.9009C106.37 84.9009 106.044 86.2836 105.567 86.37C105.372 86.4132 105.198 86.3484 105.198 86.2188Z" fill="#212121"/>
<path d="M110.078 85.9811L109.428 85.8299L110.013 85.6787C110.621 85.5058 111.055 85.6355 111.055 86.0028C111.055 86.2188 111.033 86.2188 110.078 85.9811Z" fill="#212121"/>
<path d="M109.319 84.9441C109.319 84.0583 109.818 83.9287 110.274 84.7064C110.577 85.2249 110.599 85.333 110.317 85.333C110.144 85.333 109.862 85.3978 109.666 85.4626C109.406 85.5706 109.319 85.441 109.319 84.9441Z" fill="#212121"/>
<path d="M113.093 85.2468C112.117 84.8147 111.488 83.6697 111.488 82.3086C111.488 81.3364 111.575 81.0988 112.161 80.5587C112.529 80.213 112.898 79.9321 113.007 79.9321C113.484 79.9321 115.241 81.5957 115.826 82.6327L116.499 83.8209L115.783 84.5771C114.959 85.4413 114.048 85.6789 113.093 85.2468Z" fill="#212121"/>
<path d="M108.56 84.6848C108.495 84.5768 108.538 84.4688 108.647 84.4688C108.777 84.4688 108.885 84.5768 108.885 84.6848C108.885 84.8144 108.842 84.9008 108.798 84.9008C108.733 84.9008 108.625 84.8144 108.56 84.6848Z" fill="#212121"/>
<path d="M105.719 84.3393C105.784 84.1449 105.849 83.9504 105.849 83.9072C105.849 83.864 106.044 83.8208 106.283 83.8208C106.825 83.8208 106.847 84.1665 106.304 84.4689C105.719 84.7714 105.567 84.7498 105.719 84.3393Z" fill="#212121"/>
<path d="M107.432 84.0802C106.933 84.0153 106.782 83.7345 107.107 83.54C107.194 83.4752 107.584 83.3672 107.975 83.2808C108.56 83.1512 108.669 83.1944 108.669 83.5616C108.669 84.0153 108.213 84.2098 107.432 84.0802Z" fill="#212121"/>
<path d="M109.102 83.3453C109.102 83.0861 109.124 82.9348 109.167 82.978C109.189 83.0212 109.362 83.2373 109.514 83.4533C109.774 83.7558 109.753 83.8206 109.449 83.8206C109.232 83.8206 109.102 83.6478 109.102 83.3453Z" fill="#212121"/>
<path d="M106.065 83.1943C106.065 83.0647 106.174 82.9135 106.282 82.8487C106.412 82.7839 106.499 82.8703 106.499 83.0431C106.499 83.2375 106.412 83.3888 106.282 83.3888C106.174 83.3888 106.065 83.3024 106.065 83.1943Z" fill="#212121"/>
<path d="M106.868 82.8703C106.695 82.4382 108.235 81.9629 108.495 82.3734C108.69 82.719 108.495 82.8703 107.671 83.0431C107.172 83.1511 106.955 83.1079 106.868 82.8703Z" fill="#212121"/>
<path d="M108.907 82.1789C108.907 81.9413 108.972 81.8765 109.037 82.0493C109.102 82.2005 109.081 82.395 109.016 82.4598C108.95 82.5462 108.885 82.4166 108.907 82.1789Z" fill="#212121"/>
<path d="M107.064 81.8331C107.324 81.3578 108.083 80.5801 108.278 80.5801C108.495 80.5801 108.517 81.5955 108.3 81.7251C108.191 81.7683 107.844 81.8763 107.519 81.9628C107.042 82.0708 106.933 82.0492 107.064 81.8331Z" fill="#212121"/>
<path d="M108.799 81.336C108.56 80.6879 108.669 80.407 109.189 80.3206C109.731 80.2126 109.731 80.2126 109.384 80.8823C108.951 81.7465 108.972 81.7465 108.799 81.336Z" fill="#212121"/>
<path d="M108.668 80.0399C108.668 79.9967 109.102 79.6942 109.645 79.3918C110.295 79.0029 110.751 78.8733 111.076 78.9597C111.467 79.0893 111.358 79.1757 110.404 79.6294C109.341 80.1047 108.668 80.2775 108.668 80.0399Z" fill="#212121"/>
<path d="M120.707 60.8981C120.121 60.0556 118.885 58.6945 117.995 57.8735C117.106 57.0526 116.521 56.3828 116.694 56.3828C117.171 56.3828 120.815 57.3766 121.726 57.7655C122.485 58.0896 122.507 58.1328 122.312 58.8025C122.203 59.1914 122.117 60.1636 122.117 60.963C122.117 61.7839 122.052 62.4321 121.965 62.4321C121.856 62.4321 121.314 61.7407 120.707 60.8981Z" fill="#212121"/>
<path d="M76.5665 126.338C75.6772 125.884 75.482 125.625 74.3541 123.4C72.7273 120.246 72.6839 119.511 74.224 121.304C74.8313 122.017 76.2412 123.486 77.3474 124.566C79.2345 126.381 79.3212 126.511 78.6922 126.424C78.2367 126.36 78.0632 126.403 78.1716 126.576C78.4319 126.965 77.6077 126.856 76.5665 126.338Z" fill="#212121"/>
<path fill-rule="evenodd" clip-rule="evenodd" d="M112.917 165.7C112.737 165.274 112.938 164.784 113.365 164.604L113.833 164.407C118.376 162.47 120.984 161.307 122.756 159.46C124.528 157.613 124.74 154.9 125.073 153.25C125.165 152.797 126.194 153.592 126.649 153.683C127.104 153.774 127.399 154.215 127.307 154.668C126.907 156.653 125.829 158.545 124.094 160.341C122.364 162.132 119.016 164.05 114.017 166.146C113.59 166.326 113.097 166.126 112.917 165.7Z" fill="white"/>
<path fill-rule="evenodd" clip-rule="evenodd" d="M133.463 79.4977C133.862 79.2614 134.378 79.3917 134.615 79.7887C136.991 83.7643 138.264 88.3089 138.264 93.0371C138.264 107.361 126.605 118.974 112.224 118.974C108.402 118.974 104.696 118.153 101.302 116.589C100.881 116.395 99.2901 114.85 100.892 115.478C102.494 116.106 108.692 117.517 112.268 117.517C125.722 117.517 135.24 106.437 135.24 93.0371C135.24 88.6123 133.463 84.6847 133.171 80.6446C133.137 80.1763 133.065 79.7341 133.463 79.4977Z" fill="white"/>
<path fill-rule="evenodd" clip-rule="evenodd" d="M50.2717 142.821C50.5686 142.466 51.0983 141.748 51.4548 142.044C52.9171 143.257 54.4776 144.663 56.1468 144.934C57.8838 145.216 59.9445 145.216 62.3261 144.929C62.7867 144.874 63.2052 145.201 63.261 145.659C63.3167 146.118 62.9886 146.535 62.528 146.59C59.9988 146.895 57.7825 146.895 55.8762 146.586C53.9022 146.265 52.0665 145.399 50.3796 143.999C50.0231 143.703 49.9748 143.176 50.2717 142.821Z" fill="white"/>
<path d="M68.1071 113.548C67.0226 112.684 64.7017 110.135 62.9448 107.888C62.0338 106.7 61.0143 104.28 60.407 101.839C60.125 100.737 59.843 99.7431 59.778 99.6134C59.6912 99.5054 59.3441 97.9715 58.9971 96.1999C58.4765 93.6938 58.5866 92.8864 58.1295 89.8888C57.9359 88.6196 57.7607 87.6096 57.7607 87.6096L58.3247 86.8884C58.6501 86.4563 59.0616 85.7413 59.214 85.3329C59.9081 83.4727 65.0054 77.6417 65.1572 77.7929C65.2006 77.8361 65.0271 78.8515 64.7234 80.0398C64.4414 81.228 64.0944 83.0212 63.9425 84.0366C63.7256 85.7218 63.6389 85.9162 62.9665 86.4779C62.1205 87.1909 60.5154 89.4809 60.5154 89.9562C60.5154 90.6044 61.4915 90.1723 62.511 89.1137L63.5521 88.0334V89.2217C63.5521 89.9994 63.4003 90.7124 63.1183 91.2741C62.576 92.3327 62.576 93.4562 63.0966 94.3203C63.3569 94.7524 63.5955 95.7894 63.7473 97.0209C64.4197 102.595 65.8513 107.434 68.3023 112.295C68.9097 113.505 69.3869 114.499 69.3652 114.499C69.3218 114.499 68.7578 114.067 68.1071 113.548Z" fill="#212121"/>
<path fill-rule="evenodd" clip-rule="evenodd" d="M158.361 126.878L159.923 127.57C160.247 127.719 163.819 129.428 168.111 131.482C175.029 134.793 183.816 138.999 183.869 138.999C183.956 138.999 184.363 138.061 184.455 136.968C184.672 134.613 185.474 131.415 186.407 129.19C186.841 128.196 187.188 126.954 187.188 126.846C187.188 126.797 186.835 126.655 186.258 126.423C185.571 126.147 184.565 125.743 183.457 125.215C177.991 122.601 167.298 117.264 165.975 116.465C164.673 115.709 164.413 115.644 164.413 116.141C164.413 116.789 163.09 119.792 162.07 121.412C161.528 122.298 160.465 123.897 159.706 124.956L158.361 126.878ZM183.501 135.11C184.123 135.469 183.045 135.995 182.785 136.082C181.252 136.212 179.448 135.924 177.97 135.066C177.197 134.521 171.11 131.153 167.073 128.918C165.227 127.897 163.809 127.113 163.524 126.943C162.613 126.403 161.745 125.82 161.593 125.647C161.138 125.064 161.572 124.804 162.851 124.912C163.621 124.977 182.157 134.334 183.501 135.11Z" fill="#212121"/>
<path d="M142.788 128.823C142.224 128.628 141.616 128.196 141.226 127.699L140.575 126.9L142.874 124.631C146.41 121.175 149.013 117.397 151.355 113.184C152.136 111.78 154.457 106.116 154.739 105.49C155.173 104.583 155.498 104.237 156.431 103.718C157.537 103.07 158.795 102.854 159.337 103.221C160.379 103.913 160.379 106.095 159.337 109.854C158.188 113.98 156.648 116.94 153.459 121.196C152.96 121.844 152.028 123.119 151.355 124.005C149.555 126.381 148.384 127.526 146.8 128.412C145.239 129.276 144.328 129.384 142.788 128.823Z" fill="#212121"/>
<path d="M150.965 128.326L150.509 127.873C150.509 127.873 158.069 118.305 159.424 114.78C160.458 112.09 161.066 111.327 161.887 111.327C162.346 111.327 162.721 111.432 162.895 111.691C163.198 112.144 163.491 112.706 163.1 114.629C162.45 117.74 161.452 119.792 158.459 124.221C157.765 125.237 156.875 126.36 156.485 126.749C155.574 127.592 153.524 128.456 152.331 128.65C151.572 128.758 151.355 128.715 150.965 128.326Z" fill="#212121"/>
<path fill-rule="evenodd" clip-rule="evenodd" d="M163.664 118.322C164.101 117.325 164.413 116.456 164.413 116.141C164.413 115.644 164.673 115.709 165.975 116.465C167.298 117.264 177.991 122.601 183.457 125.215C185.496 126.187 187.188 126.738 187.188 126.846C187.188 126.954 163.2 119.379 163.664 118.322Z" fill="#3F4143"/>
<path fill-rule="evenodd" clip-rule="evenodd" d="M89.4503 119.554C86.6956 117.761 82.5311 113.548 80.5138 110.545C77.629 106.224 75.7202 101.601 74.7875 96.6321C74.1151 93.0242 74.1368 87.4718 74.8092 84.2528C75.5033 80.9689 76.3926 78.4628 77.976 75.2869C79.8197 71.6142 81.7719 68.9136 84.7001 65.997C87.5716 63.1369 74.8092 74.9647 77.976 96.1271C80.5138 113.861 91.4204 120.847 89.4503 119.554Z" fill="#3F4143"/>
</svg>
