<svg width="225" height="225" viewBox="0 0 225 225" fill="none" xmlns="http://www.w3.org/2000/svg">
<path fill-rule="evenodd" clip-rule="evenodd" d="M64.6734 168.867C24.5683 156.062 24.8155 172.136 6.94011 148.433C-10.9352 124.731 5.58776 89.8091 58.0434 79.021C110.499 68.2329 183.39 17.326 222.302 101.978C233.236 125.766 212.165 189.126 136.462 189C82.2698 188.908 91.7785 177.28 64.6734 168.867Z" fill="#00FFFF"/>
<path fill-rule="evenodd" clip-rule="evenodd" d="M127.128 119.273C126.979 119.156 127.017 118.797 127.062 118.555C127.343 117.021 128.698 115.995 129.894 115.036C131.09 114.078 132.327 112.791 132.203 111.236C132.035 109.134 133.003 107.142 133.595 105.123C134.186 103.104 134.291 100.617 132.784 99.1903C132.262 98.6959 131.596 98.3859 131.07 97.8958C130.544 97.4058 130.166 96.6104 130.465 95.9479C130.21 96.1007 129.955 96.2534 129.7 96.4061C129.629 95.3814 128.465 94.9254 127.589 94.4345C126.087 93.5926 124.988 91.8919 125.109 90.1341C125.23 88.3764 126.763 86.7575 128.47 86.8567C129.203 86.8992 130.145 87.1312 130.509 86.4742C131.854 84.0475 135.343 83.7679 136.927 81.4995C137.273 81.0053 138.938 79.5293 138.774 80.5731C138.408 82.8938 140.441 82.2204 141.243 83.1918C144.738 87.426 145.007 93.8423 144.377 99.9231C143.028 112.935 134.986 125.455 127.128 119.273Z" fill="#212121"/>
<path fill-rule="evenodd" clip-rule="evenodd" d="M136.615 84.3661C137.429 83.4907 138.615 82.9731 139.81 82.9731C141.785 83.9969 143.739 85.382 145.671 87.1284C146.882 86.6489 147.736 86.5515 148.232 86.8362C148.975 87.2632 149.431 88.0731 149.647 88.9033C150.339 91.5654 148.867 94.3196 147.058 96.3906C146.269 97.2937 145.389 98.1565 144.906 99.2543C144.422 100.352 144.444 101.784 145.324 102.599C147.523 104.638 148.257 107.853 148.134 110.85C148.011 113.846 147.157 116.759 146.679 119.719C146.148 123.005 146.081 126.365 146.482 129.669C146.606 130.69 146.784 131.734 147.317 132.613C147.85 133.492 148.814 134.179 149.839 134.103C149.476 134.623 148.601 134.659 148.197 134.171C148.595 134.585 148.993 134.999 149.392 135.413C148.91 135.312 148.428 135.211 147.946 135.11C151.974 137.401 156.146 139.439 160.429 141.209C160.178 140.367 159.296 139.909 158.498 139.544C156.269 138.525 154.039 137.505 151.81 136.486C155.159 136.789 158.393 138.244 160.842 140.549C163.793 143.325 168.569 143.169 171.769 145.654C172.455 146.187 173.072 146.867 173.303 147.705C173.626 148.882 173.108 150.169 172.256 151.043C171.403 151.916 170.262 152.444 169.121 152.876C165.71 154.168 162.044 154.778 158.399 154.658C158.09 154.115 158.399 153.391 158.902 153.02C159.405 152.648 160.046 152.535 160.658 152.403C163.258 151.844 165.748 150.775 167.946 149.276C168.439 148.939 168.975 148.334 168.658 147.828C168.541 147.639 168.332 147.532 168.131 147.436C164.681 145.789 160.826 144.997 157.005 145.15C158.133 144.947 159.261 144.743 160.389 144.539C157.408 142.761 154.274 141.239 151.034 139.996C150.026 139.609 148.8 139.276 147.943 139.933C145.853 141.536 143.763 143.139 141.673 144.742C144.368 144.789 147.051 145.452 149.458 146.666C148.907 147.87 147.669 148.729 146.349 148.823C146.973 148.182 147.598 147.541 148.223 146.901C143.774 144.142 137.428 147.025 132.972 144.277C130.985 143.051 129.667 140.842 127.513 139.943C125.458 139.084 123.117 139.608 120.954 140.142C119.536 140.493 118.046 140.882 117 141.902C117.029 140.876 118.004 140.134 118.962 139.768C119.921 139.403 120.985 139.234 121.792 138.6C122.61 137.957 123.028 136.942 123.674 136.125C124.319 135.309 125.463 134.665 126.375 135.167C126.094 132.999 127.936 131.231 129.184 129.437C130.606 127.393 131.366 124.897 131.324 122.408C129.74 123.25 129.027 125.421 129.804 127.038C130.15 127.756 129.462 128.662 128.668 128.719C127.873 128.775 127.144 128.191 126.784 127.479C126.425 126.768 126.36 125.949 126.306 125.154C126.23 124.031 126.167 122.884 126.456 121.796C127.004 119.734 128.724 118.201 130.508 117.032C132.293 115.864 134.252 114.908 135.748 113.387C137.398 111.71 138.376 109.388 138.424 107.035C139.112 110.171 137.56 84.1521 136.615 84.3661ZM129.357 127.507C129.373 126.859 129.172 126.207 128.793 125.681C128.661 126.332 128.881 127.044 129.357 127.507Z" fill="#212121"/>
<path fill-rule="evenodd" clip-rule="evenodd" d="M107.016 126.485C105.716 127.398 104.371 128.361 103.614 129.756C102.858 131.15 102.893 133.108 104.127 134.108C107.148 136.556 106.181 141.429 107.984 144.867C108.974 146.754 110.878 148.541 110.344 150.603C109.926 152.218 108.188 153.062 106.64 153.698C105.914 153.996 105.145 154.301 104.365 154.199C103.586 154.098 102.822 153.428 102.918 152.651C103.09 151.26 105.533 151.008 105.577 149.608C105.589 149.214 105.388 148.85 105.192 148.508C103.87 146.197 102.547 143.887 101.225 141.576C99.6778 144.806 99.0568 148.469 99.4532 152.025C99.5776 153.141 98.7426 154.187 97.7273 154.674C96.712 155.162 95.5489 155.214 94.4227 155.257C93.5001 155.292 92.518 155.313 91.7258 154.841C90.9336 154.368 90.4894 153.204 91.0858 152.501C91.6224 151.869 92.6064 151.954 93.3892 151.677C95.4682 150.94 95.5574 148.082 95.2617 145.904C94.6906 141.694 94.1195 137.484 93.5483 133.275C93.2591 131.143 92.9359 128.921 91.7016 127.157C87.4561 121.086 93.0107 111.829 88.9965 105.605C87.7643 103.694 86.5249 101.71 86.1121 99.4766C85.6994 97.2429 86.2979 94.6741 88.15 93.3498C89.54 92.356 89.707 90.4078 89.8972 88.7137C90.2455 85.6111 91.0967 82.5651 92.4076 79.7294C89.4179 77.5566 85.7939 76.2612 82.0997 76.0447C82.2141 76.7175 82.4578 77.3683 82.8138 77.9513C80.6874 77.1552 79.0487 75.1845 78.6593 72.9547C78.3189 73.7427 77.9786 74.5307 77.6382 75.3187C74.7108 69.3539 76.8177 62.2679 78.9607 55.9809C79.5847 54.1502 80.2087 52.3196 80.8327 50.489C81.5835 48.2865 82.657 45.7719 84.9193 45.1973C86.3118 44.8437 88.1885 46.1806 87.4538 47.4109C85.6278 46.9536 86.618 48.7911 87.3059 48.0136C88.8662 46.25 90.1384 44.1544 92.006 42.7085C95.5666 39.952 100.864 40.1275 104.73 42.4409C108.595 44.7543 111.128 48.8571 112.381 53.1726C112.563 53.7972 112.716 54.4873 112.448 55.0798C112.179 55.6723 111.299 56.0038 110.855 55.5278C110.235 54.8646 109.375 56.1182 109.416 57.0232C109.624 61.6613 112.583 65.6818 113.96 70.1173C115.302 74.4432 115.111 79.0732 114.908 83.5967C114.624 89.8871 113.84 107.291 113.585 109.69C113.105 114.211 112.107 118.696 112.168 123.242C112.246 129.082 114.068 134.747 115.987 140.266C116.786 142.563 117.638 144.91 119.228 146.754C120.817 148.598 123.326 149.856 125.7 149.298C124.016 150.982 121.139 150.923 119.048 149.778C116.956 148.633 115.484 146.644 114.147 144.675C113.293 143.419 110.973 145.918 109.965 144.781C111.205 144.522 112.377 143.949 113.342 143.131C111.234 137.583 109.125 132.034 107.016 126.485ZM96.187 60.4844C95.9712 60.2661 95.6344 60.0497 95.3832 60.2264C95.6598 60.5056 95.5777 61.0448 95.2303 61.2296C94.8168 61.0788 94.964 60.4679 94.8483 60.0447C94.6993 59.5002 94.0683 59.2635 93.5167 59.1349C90.6859 58.4749 87.3941 58.3623 85.5131 56.1537C85.3381 55.9481 85.173 55.7221 84.9356 55.5926C84.4504 55.3281 83.8107 55.5732 83.4662 56.0043C83.1217 56.4354 83.0061 57.001 82.9257 57.5461C82.5186 60.307 82.7554 63.16 83.612 65.8168C83.7666 66.2963 83.9494 66.7835 84.2939 67.1521C85.2356 68.1597 86.8639 67.8766 88.2261 67.6454C89.4936 67.4303 90.7807 67.3301 92.0664 67.3466C92.6623 67.3542 93.2496 67.2187 93.83 67.0839C95.3637 66.7278 96.8975 66.3717 98.4313 66.0156C98.4505 63.9747 97.6244 61.9386 96.187 60.4844Z" fill="#212121"/>
<path fill-rule="evenodd" clip-rule="evenodd" d="M152.639 180.19L156.289 180.73C156.957 180.828 157.694 180.966 158.1 181.497C157.913 181.66 157.629 181.635 157.382 181.599C155.97 181.397 154.558 181.194 153.146 180.992L154.826 182.922C155.115 183.254 155.427 183.602 155.851 183.734C156.223 183.85 156.757 183.887 156.801 184.267C156.289 184.482 155.682 184.35 155.21 184.06C154.739 183.77 154.376 183.342 154.021 182.921C153.451 182.244 152.881 181.567 152.311 180.89C152.162 180.713 152.011 180.451 152.163 180.277C152.273 180.151 152.472 180.165 152.639 180.19ZM172.184 165.173C172.297 165.66 171.793 166.036 171.379 166.299C168.058 168.407 166.415 172.385 164.972 176.113C164.86 176.401 164.831 176.853 165.129 176.9C165.708 175.811 166.843 175.055 168.047 174.959C167.133 175.596 166.767 176.807 166.71 177.94C166.653 179.073 166.838 180.212 166.735 181.341C166.167 181.286 166.02 180.511 166.027 179.925C166.041 178.765 166.055 177.604 166.068 176.444C163.971 177.736 163.466 180.578 163.171 183.073C163.054 183.25 162.758 183.174 162.655 182.988C162.552 182.802 162.583 182.571 162.618 182.36C163.477 177.281 165.43 172.401 168.296 168.171C165.527 169.656 163.163 171.929 161.539 174.671C161.123 173.896 161.716 172.97 162.303 172.323C165.069 169.272 168.457 166.821 172.184 165.173ZM146.425 162.473C147.887 163.49 149.35 164.507 150.812 165.523C153.132 167.136 155.474 168.769 157.354 170.876C157.225 168.951 157.709 166.989 158.719 165.344C158.838 165.149 159.048 164.931 159.256 165.026C159.403 165.092 159.445 165.277 159.469 165.437C159.884 168.201 160.298 170.965 160.712 173.729C159.522 171.515 158.938 168.979 159.043 166.468C158.318 167.633 157.724 168.977 157.907 170.337C158.355 173.654 163.015 175.263 163.2 178.605C159.137 173.6 154.91 168.483 149.245 165.404C151.883 169.15 154.895 172.632 158.221 175.784C159.159 176.673 160.202 177.717 160.135 179.008C157.922 176.408 154.146 175.256 150.857 176.178C152.746 176.88 154.588 177.711 156.364 178.663C157.406 179.222 158.514 179.933 158.825 181.073C155.827 178.83 152.35 177.229 148.695 176.408C151.462 174.796 155.07 174.737 157.888 176.257C153.631 172.42 150.145 167.821 146.687 163.251C146.515 163.024 146.333 162.744 146.425 162.473ZM128.715 147.176C135.552 148.486 142.273 150.403 148.772 152.894C149.543 153.189 150.334 153.508 150.914 154.094C151.607 154.793 151.91 155.777 152.189 156.72C153.359 160.679 154.53 164.638 155.7 168.596C153.595 164.464 152.09 160.027 151.247 155.468C146.065 157.534 140.29 157.242 134.712 157.08C126.118 156.829 117.512 156.961 108.93 157.475C109.503 157.604 110.076 157.732 110.649 157.86C109.341 158.298 107.926 158.263 106.547 158.214C96.1337 157.846 85.7372 157.016 75.3981 155.726C73.194 155.451 70.8771 155.109 69.1262 153.744L64.3899 167.8C64.1196 168.602 63.2246 169.573 62.6458 168.955C61.9664 168.23 60.7911 168.985 60.1196 169.718C57.5682 172.503 55.0167 175.288 52.4652 178.073C53.9602 175.487 55.8498 173.128 58.0488 171.104C55.616 171.061 53.1861 172.148 51.6 173.99C52.2091 170.306 56.0034 167.449 59.7187 167.878C57.2411 168.22 54.908 169.517 53.312 171.44C56.005 171.09 58.5996 170.012 60.7459 168.35C61.5192 167.752 62.7257 167.807 63.4411 168.473C64.9334 164.013 66.4257 159.552 67.918 155.092C68.1341 154.446 68.3148 153.636 67.8239 153.163C76.2219 150.383 85.0456 148.889 93.892 148.75C86.8602 149.842 79.8284 150.934 72.7966 152.025C71.7153 152.193 70.4117 152.554 70.157 153.617C71.3699 153.925 72.5831 154.232 73.803 154.511C92.4731 158.776 111.928 156.142 131.079 156.373C137.699 156.452 144.487 156.855 150.776 154.789C141.269 150.383 130.957 147.718 120.503 146.965C123.168 146.235 126.001 146.655 128.715 147.176ZM49.7057 151.291C52.7218 152.012 55.4333 153.626 58.0914 155.218C60.0553 156.394 62.2433 157.922 62.4345 160.177L62.4398 160.256L62.3848 160.193C60.2775 157.822 57.7862 155.79 55.0357 154.202C56.9258 156.335 58.8159 158.468 60.706 160.601C61.1947 161.153 61.7027 161.845 61.8345 162.532C61.8607 162.5 61.9014 162.479 61.9479 162.483L61.9335 162.473C62.0719 162.51 62.1438 162.665 62.0715 162.771C61.9973 162.78 61.9154 162.763 61.8604 162.722C61.8862 163.012 61.8369 163.299 61.6831 163.571C61.0239 162.501 60.1949 161.535 59.2363 160.72C59.9945 162.357 60.7528 163.993 61.5111 165.629C60.7398 165.374 60.0607 164.851 59.6183 164.172C59.5172 164.736 59.7672 165.347 60.235 165.68C59.4629 166.068 58.5896 166.253 57.7259 166.213C58.0738 166.465 58.4217 166.717 58.7697 166.969L51.5642 167.273C51.786 166.885 52.0932 166.546 52.4579 166.287C46.8408 165.685 42.7352 160.985 45.2521 162.683C49.3707 165.461 54.6494 166.472 59.5086 165.412C56.8189 164.629 54.2914 163.297 52.1275 161.524C53.6616 161.147 55.3616 161.517 56.6011 162.492L56.6906 162.564L53.3407 157.904C52.2239 156.35 51.1071 154.797 49.9904 153.243C53.3085 156.692 56.6267 160.141 59.9448 163.59C58.19 158.432 54.4701 153.964 49.7057 151.291ZM57.1706 166.257L57.1364 166.295C57.027 166.214 56.9174 166.441 57.0151 166.536C57.1361 166.574 57.2769 166.541 57.3688 166.454C57.3027 166.388 57.2366 166.322 57.1706 166.257ZM178.011 150.783C180.554 151.336 183.098 151.888 185.641 152.441C186.421 152.61 187.407 153.065 187.277 153.862C187.223 154.188 186.981 154.443 186.742 154.667C185.874 155.479 184.893 156.165 183.837 156.7L186.49 157.364C187.193 157.541 187.933 157.737 188.449 158.253C188.965 158.769 189.134 159.717 188.605 160.219C189.363 161.533 190.068 162.877 190.72 164.248C191.044 164.928 191.33 165.814 190.828 166.373C189.965 164.415 189.102 162.456 188.239 160.497C187.106 161.193 185.719 161.452 184.416 161.213C184.78 160.713 185.452 160.58 186.062 160.513C186.671 160.446 187.335 160.384 187.782 159.958C188.228 159.532 188.204 158.598 187.612 158.436C185.951 157.981 184.291 157.527 182.631 157.073C183.87 155.932 185.194 154.886 186.588 153.946C186.66 153.577 186.214 153.345 185.856 153.248C181.961 152.196 177.998 151.407 174 150.887C175.199 150.22 176.673 150.493 178.011 150.783ZM49.2455 161.577C49.4158 161.604 49.5507 161.739 49.6778 161.864C50.7515 162.917 52.0878 163.659 53.509 163.99C54.2195 164.156 55.0134 164.256 55.5 164.836C53.0938 165.091 50.5982 164.027 49.0096 162.07C48.9631 162.013 48.9157 161.951 48.9031 161.877C48.8725 161.695 49.0753 161.549 49.2455 161.577ZM54.1557 162.258C55.3755 163.222 56.8048 163.921 58.3162 164.293C57.1108 163.309 55.6748 162.606 54.1557 162.258ZM56.9259 161.539C57.3771 162.686 58.3279 163.629 59.4822 164.074C58.7827 163.093 57.9141 162.231 56.9259 161.539ZM80.2116 97.2969C78.5213 98.1196 76.9737 99.232 75.6571 100.57C72.6965 103.58 68.8767 105.743 64.7653 106.736L75.1741 100.845C75.0088 99.7017 73.2872 99.8716 72.2523 100.393C70.4579 101.298 68.7103 102.306 67.1027 103.51C66.1486 104.224 65.2456 105.006 64.4028 105.848C61.1061 109.14 58.7861 113.291 57.0372 117.602C54.5239 123.797 53.1085 130.527 53.7114 137.182C54.3144 143.836 57.0502 150.409 61.91 155.015C62.0804 154.491 62.2508 153.967 62.4212 153.443C63.1699 153.815 64.0572 153.902 64.8644 153.682C63.8961 153.121 62.8777 152.508 62.3655 151.516C61.8534 150.524 62.1249 149.048 63.1814 148.677C62.1514 147.756 61.4435 146.484 61.2053 145.127C62.3675 144.913 63.5298 144.7 64.692 144.486C63.5523 141.88 63.7802 138.724 65.2826 136.308C65.5182 135.929 65.8983 135.521 66.3323 135.63C67.0252 135.804 67.2279 137.144 67.8893 136.875L70.4731 133.22L72.9749 129.681L72.9337 129.742C71.9454 131.238 71.9063 133.314 72.8589 134.837C74.1866 133.437 75.9924 132.494 77.9041 132.204C78.0609 133.073 78.2178 133.941 78.3746 134.81C79.0786 134.227 79.8354 133.62 80.7432 133.504C81.6511 133.387 82.7148 133.996 82.7191 134.908C82.7226 135.658 82.0637 136.492 82.5458 137.069C83.2417 136.621 83.99 136.157 84.8187 136.16C85.6474 136.162 86.5262 136.857 86.3907 137.671C86.184 138.914 85.9772 140.156 85.7705 141.398C87.1754 140.94 89.0912 140.665 89.7977 141.958C90.3061 142.889 89.777 144.051 89.0884 144.858C88.3997 145.666 87.521 146.375 87.192 147.383C86.7355 146.445 87.5945 145.436 88.318 144.683C89.0416 143.93 89.6912 142.673 88.9386 141.948C87.9344 140.982 86.2056 142.551 84.9189 142.01C85.1994 140.339 85.48 138.667 85.7605 136.996C84.3044 136.99 82.8493 137.414 81.6252 138.199C81.5107 136.878 81.5911 135.541 81.8632 134.243C80.4399 134.542 79.0404 134.953 77.6826 135.472C77.3672 134.634 77.2359 133.728 77.3006 132.835L72.5661 135.594C72.4426 135.126 72.121 134.714 71.6967 134.48C72.1272 136.967 72.5576 139.454 72.988 141.941C71.6423 139.487 71.0151 136.647 71.2023 133.857C69.7292 134.798 68.6688 136.358 68.3378 138.07C67.4008 137.856 66.5739 137.206 66.1472 136.348C64.4247 138.763 64.1992 142.153 65.5869 144.773C64.4627 145.262 63.2705 145.596 62.0551 145.762L64.2156 149.177C63.6515 149.25 63.1138 149.513 62.7096 149.912C63.1192 151.761 64.6549 153.315 66.5051 153.752C65.6384 154.293 64.6037 154.563 63.5819 154.515C64.8517 154.881 66.0475 155.501 67.0782 156.326C65.6142 156.093 64.1967 155.574 62.9301 154.806C63.5643 156.144 64.7198 157.229 66.0984 157.781C65.2758 157.813 64.4453 157.62 63.7227 157.227C64.5099 158.269 64.9076 159.597 64.8226 160.898C64.2653 159.806 63.708 158.714 63.1507 157.622C63.0896 158.704 63.0284 159.787 62.9673 160.869C62.8402 160.717 62.7115 160.566 62.5813 160.416L62.4512 160.269L62.4813 160.197C62.9658 158.979 62.5955 157.549 61.8758 156.446C61.1377 155.313 60.0752 154.438 59.0901 153.511C54.9023 149.569 51.9686 144.518 49.0949 139.544C48.0137 137.672 46.9325 135.801 45.8513 133.929C44.3995 131.416 42.8953 128.562 43.6326 125.757C43.738 125.356 43.9048 124.944 44.2399 124.698C43.7195 125.288 44.1141 126.226 44.6487 126.802C45.1833 127.379 45.8812 127.91 45.9933 128.687C47.1977 137.033 52.3868 144.192 57.4159 150.976C51.2056 140.39 52.2158 126.761 57.2419 115.569C59.9763 109.48 64.0995 103.64 70.1614 100.805C71.5113 100.174 72.9305 99.7041 74.3459 99.2362C76.3011 98.5898 78.2563 97.9433 80.2116 97.2969ZM158.371 156.405C158.54 156.444 158.739 156.521 158.77 156.695C158.797 156.843 158.685 156.976 158.578 157.078C158.03 157.604 157.375 158.014 156.667 158.275C156.444 158.357 156.45 158.715 156.627 158.877C156.804 159.038 157.062 159.056 157.299 159.065C166.066 159.424 174.833 159.782 183.6 160.141C183.515 160.593 182.928 160.685 182.476 160.672C174.17 160.436 165.866 160.121 157.565 159.729C156.706 159.688 155.541 159.281 155.708 158.419C155.867 157.601 157.027 157.592 157.653 157.056L153.9 156.524C155.349 156.101 156.902 156.06 158.371 156.405ZM107.474 157.579L107.523 157.613C107.76 157.777 108.116 157.739 108.312 157.528C108.061 157.364 107.703 157.386 107.474 157.579ZM104.73 42.4409C108.595 44.7543 111.128 48.8571 112.381 53.1726C112.563 53.7972 112.716 54.4873 112.447 55.0798C112.186 55.6563 111.346 55.9857 110.891 55.5646L110.854 55.5278C110.235 54.8646 109.375 56.1182 109.415 57.0232C109.624 61.6613 112.583 65.6818 113.96 70.1173C115.302 74.4432 115.111 79.0732 114.907 83.5967C114.624 89.8871 114.34 96.1776 114.057 102.468C113.948 104.878 113.839 107.291 113.585 109.69C113.105 114.211 112.107 118.696 112.168 123.242C112.246 129.082 114.067 134.747 115.987 140.266C116.786 142.563 117.638 144.91 119.228 146.754C120.817 148.598 123.325 149.856 125.7 149.298C124.015 150.982 121.139 150.923 119.047 149.778C116.956 148.633 115.484 146.644 114.147 144.675C113.293 143.419 110.973 145.918 109.965 144.781C111.205 144.522 112.377 143.949 113.342 143.131C111.234 137.583 109.125 132.034 107.016 126.485C105.716 127.398 104.371 128.361 103.614 129.756C102.858 131.15 102.893 133.108 104.127 134.108C107.148 136.556 106.181 141.429 107.984 144.867C108.974 146.754 110.878 148.541 110.344 150.603C109.925 152.218 108.188 153.062 106.64 153.698C105.913 153.996 105.145 154.301 104.365 154.199C103.586 154.098 102.822 153.428 102.918 152.651C103.09 151.26 105.533 151.008 105.577 149.608C105.589 149.214 105.387 148.85 105.192 148.508C103.869 146.197 102.547 143.887 101.225 141.576C99.6777 144.806 99.0566 148.469 99.453 152.025C99.5775 153.141 98.7424 154.187 97.7271 154.674C96.7119 155.162 95.5488 155.214 94.4225 155.257C93.4999 155.292 92.5179 155.313 91.7257 154.841C90.9335 154.368 90.4893 153.204 91.0856 152.501C91.6223 151.869 92.6062 151.954 93.3891 151.677C95.4681 150.94 95.5572 148.082 95.2616 145.904L93.5482 133.275C93.2589 131.143 92.9357 128.921 91.7014 127.157C87.456 121.086 93.0105 111.829 88.9964 105.605C87.7641 103.694 86.5247 101.71 86.112 99.4766C85.6993 97.2429 86.2977 94.6741 88.1498 93.3498C89.5399 92.356 89.7068 90.4078 89.897 88.7137C90.2454 85.6111 91.0965 82.5651 92.4075 79.7294C89.4178 77.5566 85.7938 76.2612 82.0996 76.0447C82.214 76.7175 82.4577 77.3683 82.8136 77.9513C80.6872 77.1552 79.0486 75.1845 78.6591 72.9547C78.3188 73.7427 77.9784 74.5307 77.6381 75.3187C74.7107 69.3539 76.8176 62.2679 78.9606 55.9809C79.5846 54.1502 80.2086 52.3196 80.8326 50.489C81.5833 48.2865 82.6568 45.7719 84.9192 45.1973C86.3116 44.8437 88.1884 46.1806 87.4536 47.4109C85.6277 46.9536 83.6838 47.9426 82.4795 49.3844C81.2752 50.8263 80.6583 52.6531 80.0665 54.4338C78.0815 60.4072 76.0756 66.7713 77.5771 72.8832C77.8057 72.458 78.2415 72.1497 78.7197 72.0747C79.2133 73.4586 79.9712 74.7484 80.9409 75.8546C82.9912 75.1029 85.2534 74.9348 87.393 75.3752C87.23 75.5754 87.0671 75.7757 86.9041 75.9759C88.6038 77.1316 90.5724 77.8922 92.6097 78.1804C93.7052 76.3274 94.8007 74.4744 95.8961 72.6213L96.098 72.2793C97.0726 70.6228 98.0219 68.9111 98.3267 67.0209C94.9959 67.8531 91.5863 68.3717 88.158 68.5676C86.6637 68.6529 85.0014 68.6191 83.9004 67.6088C83.2315 66.995 82.8843 66.1121 82.6289 65.2425C81.7065 62.1004 81.7202 58.6917 82.6679 55.5572C81.3205 55.477 80.9413 53.4814 81.7231 52.3851C82.505 51.2887 83.865 50.7987 84.9984 50.0683C87.8599 48.2242 89.3149 44.7918 92.0059 42.7085C95.5665 39.952 100.864 40.1275 104.73 42.4409ZM139.81 82.9733C142.773 84.509 145.431 86.6295 147.588 89.1771C147.699 90.5512 147.917 91.9165 148.239 93.2568C148.681 91.9691 149.129 90.6002 148.834 89.271C148.539 87.9418 147.19 86.7486 145.887 87.1432C146.429 86.4784 147.488 86.4094 148.232 86.8364C148.975 87.2634 149.431 88.0733 149.647 88.9035C150.339 91.5656 148.867 94.3198 147.058 96.3908C146.269 97.2939 145.389 98.1567 144.906 99.2545C144.422 100.352 144.444 101.784 145.324 102.6C147.523 104.638 148.257 107.853 148.134 110.85C148.011 113.846 147.157 116.759 146.679 119.719C146.148 123.005 146.081 126.366 146.482 129.67C146.606 130.69 146.784 131.734 147.317 132.613C147.85 133.492 148.814 134.179 149.839 134.104C149.51 134.574 148.761 134.648 148.322 134.295L148.284 134.261L148.794 134.792C148.994 134.999 149.193 135.206 149.392 135.413C148.91 135.313 148.428 135.212 147.946 135.111C151.975 137.401 156.146 139.439 160.429 141.209C160.178 140.367 159.296 139.909 158.498 139.544C156.269 138.525 154.039 137.505 151.81 136.486C155.159 136.789 158.393 138.244 160.842 140.549C163.793 143.325 168.569 143.169 171.769 145.655C172.455 146.187 173.072 146.868 173.303 147.705C173.626 148.882 173.108 150.17 172.256 151.043C171.403 151.917 170.262 152.444 169.121 152.876C165.71 154.168 162.044 154.778 158.399 154.659C158.09 154.115 158.399 153.391 158.902 153.02C159.405 152.649 160.046 152.535 160.658 152.403C163.258 151.844 165.748 150.776 167.946 149.276C168.439 148.939 168.975 148.335 168.659 147.828C168.541 147.64 168.332 147.532 168.131 147.437C164.681 145.789 160.826 144.997 157.005 145.151L160.389 144.539C157.408 142.761 154.274 141.239 151.034 139.996C150.026 139.609 148.8 139.277 147.944 139.933C145.853 141.536 143.763 143.139 141.673 144.742C144.368 144.789 147.051 145.452 149.458 146.666C148.907 147.87 147.669 148.729 146.349 148.823C146.973 148.182 147.598 147.542 148.223 146.901C143.774 144.143 137.428 147.025 132.972 144.277C130.985 143.052 129.668 140.843 127.513 139.943C125.458 139.084 123.117 139.608 120.954 140.142C119.536 140.493 118.046 140.882 117 141.902C117.029 140.876 118.004 140.134 118.962 139.768C119.921 139.403 120.985 139.234 121.792 138.6C122.61 137.958 123.028 136.942 123.674 136.125C124.319 135.309 125.463 134.665 126.375 135.167C126.094 132.999 127.936 131.231 129.184 129.437C130.606 127.394 131.366 124.897 131.324 122.408C129.74 123.25 129.027 125.421 129.804 127.038C130.15 127.756 129.462 128.662 128.668 128.719C127.873 128.776 127.144 128.191 126.784 127.48C126.425 126.768 126.36 125.95 126.306 125.154C126.23 124.031 126.167 122.884 126.456 121.796C127.004 119.734 128.724 118.201 130.508 117.032C132.293 115.864 134.252 114.908 135.748 113.387C137.398 111.71 138.376 109.388 138.424 107.036C139.112 110.171 137.489 113.669 134.65 115.167C132.14 116.491 129.589 117.992 128.017 120.355C126.444 122.718 126.166 126.178 128.117 128.238C127.797 126.564 128.245 124.758 129.31 123.428C130.172 122.35 131.377 121.611 132.568 120.915C135.331 119.3 138.159 117.797 141.042 116.411C140.846 115.667 141.463 114.823 142.23 114.783C141.363 113.401 142.186 111.284 143.76 110.853C143.296 111.445 142.818 112.065 142.664 112.802C142.51 113.538 142.787 114.423 143.48 114.717C142.117 114.727 141.882 116.898 140.631 117.437C138.055 118.548 135.559 119.844 133.169 121.312C132.992 121.421 132.81 121.541 132.64 121.674C132.673 121.673 132.707 121.682 132.743 121.703C132.926 122.953 132.949 124.226 132.813 125.481C132.794 125.656 132.716 125.881 132.539 125.873C132.358 125.865 132.306 125.626 132.306 125.447L132.3 122.263C132.3 122.143 132.332 122.003 132.388 121.889C132.056 122.203 131.817 122.577 131.837 123.023C131.942 125.369 131.256 127.744 129.916 129.672C131.396 128.384 132.875 127.095 134.355 125.807C134.831 125.393 135.849 125.195 135.837 125.826C133.571 127.333 131.268 128.873 129.552 130.985C127.835 133.097 126.763 135.907 127.36 138.563C126.697 138.315 126.639 137.43 126.482 136.74C126.326 136.05 125.486 135.329 125.015 135.857C123.899 137.107 122.783 138.357 121.667 139.607C124.137 138.078 127.634 138.477 129.697 140.523C132.43 143.235 136.156 145.816 139.849 144.727C143.185 143.742 145.135 140.095 148.396 138.884C145.415 131.669 144.786 123.503 146.626 115.917C147.142 113.788 147.853 111.637 147.621 109.459C147.262 106.083 144.726 103.328 143.883 100.039C143.522 100.991 142.588 101.699 141.575 101.788C142.735 100.301 143.896 98.8137 145.057 97.3264C146.832 95.0506 147.232 91.7754 146.042 89.1452C144.851 86.515 142.12 84.651 139.237 84.5163C139.6 84.8683 139.963 85.2203 140.327 85.5722C139.665 85.8027 139.002 86.0331 138.34 86.2636C138.216 85.8174 138.091 85.3712 137.967 84.9249C138.462 84.5247 138.957 84.1245 139.452 83.7243C138.506 83.9383 137.561 84.1523 136.615 84.3663C137.429 83.4909 138.615 82.9733 139.81 82.9733ZM90.7918 45.4258C88.0124 47.4199 85.7299 50.0109 83.4734 52.5782C82.907 53.244 83.9754 54.0727 84.8284 54.2719C88.659 55.1668 92.6376 55.4299 96.5533 55.0474C95.507 56.5254 93.3754 56.7045 91.5803 56.4355C89.7852 56.1665 87.9411 55.5963 86.1955 56.0928C89.7646 57.6467 93.5843 58.6277 97.4626 58.9865L96.1545 59.7521C98.7841 61.1665 99.5919 64.6836 98.9423 67.5898C98.2926 70.4959 96.5436 73.0131 95.1345 75.6387C92.6021 80.357 91.1064 85.6241 90.7822 90.9648C94.3762 89.662 95.6027 85.2572 95.9401 81.4616C96.2776 77.6661 96.4315 73.3948 99.242 70.8106C97.1059 75.6248 96.3407 81.0342 97.0583 86.2491C94.0637 88.9684 91.0691 91.6877 88.0745 94.407C85.8812 96.3987 86.9735 99.9775 88.2189 102.661C88.3704 102.988 88.539 103.334 88.8496 103.517C89.6193 103.972 90.5622 103.055 90.6424 102.167C90.7227 101.279 90.3372 100.407 90.3523 99.5161C90.3675 98.6247 91.1224 97.6061 91.9728 97.8836C91.0504 97.0705 92.1712 95.6254 93.25 95.0333C96.1152 93.4606 99.3507 92.5628 102.619 92.4333C103.605 92.3942 104.047 91.2223 104.36 90.2905C104.673 89.3588 105.524 88.2837 106.42 88.6944C104.799 83.0158 108.079 77.1054 108.001 71.2022C109.991 76.7729 104.777 83.2787 107.383 88.591C106.369 89.2389 105.354 89.8869 104.34 90.5348C105.191 90.8803 105.915 91.5259 106.354 92.33C101.387 92.798 96.5094 94.1918 92.0484 96.4178C92.9827 97.029 92.6792 98.7566 91.5921 99.0153C89.9801 105.755 90.7296 113.031 93.6818 119.304C94.1715 116.669 96.0148 114.321 98.4636 113.213C95.9193 115.223 94.4248 118.332 93.8213 121.512C93.2177 124.691 93.4272 127.965 93.7784 131.181C94.1599 134.676 94.706 138.153 95.4142 141.597C95.8966 143.943 96.4555 146.363 95.956 148.704C95.4564 151.046 93.5407 153.288 91.1377 153.286C92.7345 154.221 94.6548 154.595 96.4873 154.327C98.2193 154.074 98.9624 151.939 98.8408 150.199C98.7192 148.459 98.1116 146.68 98.6258 145.013C98.8817 144.184 99.3987 143.458 99.7126 142.648C100.276 141.196 100.152 139.586 100.18 138.03C100.244 134.535 101.132 131.057 102.754 127.956C103.034 128.508 102.933 129.228 102.511 129.682C109.365 124.155 113.46 115.385 113.286 106.601L112.704 107.535C113.226 98.5035 113.749 89.4722 114.271 80.441C114.4 78.2072 114.529 75.9514 114.161 73.7442C113.116 67.4748 108.152 61.9254 108.884 55.6121C107.42 55.1158 105.956 54.6195 104.491 54.1232C106.503 54.2829 108.515 54.4425 110.527 54.6022C110.856 54.6283 111.234 54.6373 111.462 54.3994C111.695 54.1555 111.661 53.7672 111.589 53.4377C110.685 49.2864 106.646 46.6961 102.957 44.5658C104.992 44.8714 106.908 45.9106 108.27 47.4476C107.027 44.365 103.681 42.4516 100.352 42.2579C96.9332 42.0588 93.5713 43.4317 90.7918 45.4258ZM165.313 151.565C163.811 152.78 161.753 152.946 159.85 153.28C159.523 153.338 159.129 153.468 159.076 153.795C159.423 154.01 159.859 154.002 160.266 153.978C163.609 153.786 166.918 153.03 170.012 151.753C169.839 151.353 169.263 151.404 168.843 151.523C168.529 151.612 168.216 151.701 167.902 151.79C167.544 151.891 167.153 151.991 166.81 151.846C166.468 151.702 166.272 151.194 166.552 150.949C166.08 150.885 165.683 151.266 165.313 151.565ZM101.961 132.542C101.34 134.643 101.06 136.876 101.443 139.032C102.004 142.185 103.909 144.907 105.615 147.621C106.139 148.454 106.669 149.403 106.471 150.366C106.256 151.409 105.271 152.087 104.367 152.655C105.867 153.379 107.573 152.286 108.875 151.249C109.073 151.091 109.284 150.912 109.327 150.664C109.366 150.436 109.253 150.213 109.143 150.009C107.888 147.685 106.633 145.361 105.379 143.037L105.35 141.402C105.333 140.452 105.315 139.492 105.083 138.57C104.528 136.37 102.827 134.64 101.961 132.542ZM67.6367 151.482C67.7439 151.58 67.8007 151.726 67.9115 151.819C68.0818 151.962 68.3267 151.944 68.5459 151.974C68.765 152.003 69.0181 152.148 68.999 152.371C68.3772 152.711 67.5519 152.614 67.0225 152.139C66.8617 151.974 66.8588 151.677 67.0165 151.508C67.1742 151.339 67.4661 151.327 67.6367 151.482ZM157.502 150.177C157.644 150.201 157.828 150.284 157.796 150.425C157.781 150.495 157.714 150.54 157.652 150.576C156.914 151.005 156.076 151.261 155.225 151.316C154.917 151.336 154.655 151.533 154.418 151.737L154.363 151.784C154.112 152.003 153.84 152.235 153.51 152.27C153.179 152.306 152.798 152.033 152.862 151.705C152.918 151.415 153.25 151.285 153.533 151.205C154.046 151.06 154.559 150.915 155.072 150.77C155.14 150.679 155.166 150.557 155.138 150.447L151.445 150.501C151.305 150.503 151.155 150.503 151.036 150.428C150.917 150.353 150.852 150.174 150.943 150.067C153.119 149.776 155.338 149.813 157.502 150.177ZM148.58 136.634C148.193 137.168 148.428 137.967 148.917 138.41C149.406 138.853 150.074 139.03 150.713 139.193C151.321 139.347 151.928 139.502 152.536 139.656C152.701 139.698 152.891 139.736 153.029 139.636C153.113 139.575 153.129 139.444 153.09 139.356L153.084 139.345L153.416 139.538C158.368 142.397 163.586 144.794 168.981 146.686C169.827 146.983 170.019 148.19 169.572 148.967C169.125 149.744 168.276 150.184 167.47 150.576C167.152 150.731 166.882 151.287 167.235 151.314C168.249 150.823 169.42 150.662 170.529 150.86C171.543 151.041 172.534 150.138 172.679 149.119C172.824 148.099 172.285 147.077 171.519 146.389C170.753 145.701 169.784 145.29 168.826 144.912C162.882 142.564 156.557 140.969 151.19 137.499C150.542 137.08 149.571 136.68 149.112 137.3L148.58 136.634ZM116.222 146.376C117.389 147.936 119.054 149.12 120.913 149.714C121.48 149.895 122.087 150.023 122.669 149.899C122.658 149.615 122.296 149.513 122.015 149.464C120.955 149.28 119.963 148.734 119.243 147.938C118.882 147.539 118.583 147.074 118.149 146.753C117.607 146.351 116.879 146.216 116.222 146.376ZM77.5822 144.176C78.1099 144.205 77.7986 145.213 78.2452 145.496C78.4234 145.609 78.6538 145.555 78.8613 145.518C80.0921 145.296 81.4286 145.862 82.1287 146.901C82.3043 147.162 82.1335 147.543 81.8582 147.694C81.583 147.845 81.2491 147.828 80.9374 147.791C80.4507 147.734 80.1121 148.258 79.9435 148.72C79.775 149.181 79.5765 149.73 79.1017 149.851C78.7378 149.944 78.3671 149.731 78.0814 149.487C77.7957 149.242 77.5312 148.949 77.1746 148.831C76.8181 148.712 76.3335 148.87 76.2732 149.242C76.2078 149.645 75.6565 149.698 75.2525 149.649L73.8091 149.474C73.7216 149.076 74.2868 148.875 74.6902 148.928C75.0936 148.981 75.608 149.062 75.8145 148.711C75.9214 148.529 75.8953 148.284 76.0271 148.119C76.2448 147.847 76.6773 147.994 76.9822 148.162C77.3084 148.342 77.6347 148.522 77.9609 148.702C78.2598 148.867 78.5827 149.037 78.922 149.002C79.2613 148.968 79.5886 148.628 79.4752 148.306C79.3304 147.894 79.7676 147.498 80.1904 147.393C80.6133 147.288 81.0814 147.325 81.4566 147.103C80.7178 146.16 79.2522 145.889 78.2271 146.507C77.9192 146.693 77.633 146.213 77.6353 145.853C77.6376 145.493 77.6202 145.006 77.268 144.935C76.9998 144.881 76.7853 145.139 76.5926 145.334C76.3998 145.528 76.0332 145.662 75.8883 145.429C76.0713 144.689 76.8223 144.133 77.5822 144.176ZM89.8333 146.403C90.3356 146.589 90.8814 146.813 91.1221 147.274C91.3628 147.736 91.0168 148.457 90.4865 148.365C90.4024 148.251 90.3987 148.087 90.4774 147.969C90.5422 147.872 90.6598 147.795 90.663 147.68C90.6664 147.562 90.5486 147.479 90.4439 147.418C89.8959 147.096 89.348 146.774 88.8 146.452C89.0284 146.172 89.4873 146.274 89.8333 146.403ZM108.657 147.546L108.66 147.651C108.668 147.848 108.799 148.035 108.981 148.111C109.112 147.884 108.92 147.549 108.657 147.546ZM71.1 146.033C70.6667 146.486 70.0839 146.764 69.4859 146.802C69.6467 146.989 69.7784 147.207 69.8735 147.441C69.4707 147.593 69.0924 147.174 68.8369 146.801C68.7378 146.656 68.6389 146.448 68.7473 146.311C68.7901 146.257 68.8554 146.232 68.9178 146.211C69.6209 145.975 70.3726 145.913 71.1 146.033ZM111.444 119.79C110.351 121.78 109.058 123.662 107.59 125.397C107.32 125.717 107.502 126.199 107.688 126.574C110.566 132.393 111.892 138.888 114.896 144.644C115.155 145.14 115.475 145.671 116.01 145.84C116.545 146.008 117.258 145.506 117.049 144.988C113.802 136.936 110.906 128.45 111.444 119.79ZM70.9784 139.715C71.1186 139.812 71.1177 140.027 71.1077 140.205C71.0439 141.342 71.257 142.495 71.7203 143.522C71.8761 143.867 72.3803 143.756 72.6455 143.497C72.9107 143.239 73.1288 142.87 73.4832 142.806C73.8583 142.739 74.2136 143.074 74.3318 143.459C74.4499 143.845 74.3911 144.263 74.3312 144.663C74.2947 144.907 74.243 145.178 74.0529 145.319C73.8629 145.46 73.5153 145.31 73.569 145.07L73.7808 144.123C73.8083 144 73.8347 143.866 73.7835 143.752C73.6963 143.559 73.4327 143.54 73.2521 143.635C73.0715 143.73 72.9368 143.902 72.767 144.017C72.2231 144.387 71.4564 144.068 71.0759 143.512C70.6953 142.957 70.6013 142.243 70.5189 141.561C70.1845 142.702 70.0757 143.918 70.2015 145.107C70.0323 145.282 69.7943 144.978 69.7431 144.733C69.414 143.152 69.6588 141.445 70.4156 140.042C70.5355 139.819 70.7769 139.574 70.9784 139.715ZM81 142.363C80.1999 142.685 79.5289 143.306 79.1546 144.073C79.0715 144.243 78.7781 144.181 78.7005 144.008C78.6229 143.836 78.6942 143.635 78.7827 143.467C79.0127 143.031 79.3621 142.657 79.7841 142.394C79.2894 142.358 78.7947 142.321 78.3 142.284C79.0067 141.572 80.3378 141.611 81 142.363ZM74.7971 141.179C75.1572 141.233 75.4319 141.514 75.6602 141.791C75.431 141.813 75.2106 141.914 75.0467 142.072C75.3311 142.37 75.6156 142.668 75.9 142.966C75.1216 143.042 74.3262 142.514 74.1146 141.78C74.0161 141.438 74.4371 141.126 74.7971 141.179ZM159.288 112.384C161.692 119.826 162.999 127.611 163.156 135.419C164.665 134.086 166.62 133.252 168.639 133.08C167.578 133.453 166.898 134.486 166.521 135.532C166.144 136.578 165.99 137.697 165.558 138.722C168.868 137.708 172.492 137.713 175.8 138.735C172.964 139.544 170.285 140.888 167.952 142.673C167.547 142.448 167.9 141.841 168.273 141.566C169.779 140.456 171.451 139.565 173.218 138.931C170.407 138.379 167.448 138.58 164.74 139.508C165.237 137.826 165.662 136.124 166.013 134.408C164.076 135.308 162.307 136.557 160.818 138.074C160.431 137.727 160.993 137.184 161.392 136.851C162.465 135.957 162.51 134.368 162.439 132.984C162.165 127.629 161.45 122.265 159.811 117.152C159.965 122.915 158.781 128.71 156.376 133.965C156.264 134.209 155.882 134.453 155.797 134.198C155.872 133.907 155.947 133.616 156.021 133.325C155.317 132.429 154.983 131.257 155.111 130.13C153.853 131.619 152.758 133.242 151.854 134.963C151.455 135.066 151.42 134.398 151.616 134.04C152.681 132.089 154.028 130.287 155.604 128.707C155.775 130.088 155.947 131.469 156.119 132.849C158.892 126.547 159.839 119.476 158.821 112.681C158.856 112.478 159.087 112.332 159.288 112.384ZM79.3608 139.44C79.5239 139.538 79.5596 139.811 79.3821 139.883C79.0947 140 79.1417 140.388 79.2114 140.674C79.2811 140.961 79.2277 141.375 78.9152 141.392C78.6436 141.407 78.507 141.088 78.4919 140.833C78.4768 140.578 78.4693 140.268 78.2311 140.145C77.4825 140.588 76.7338 141.031 75.9851 141.473C75.7691 141.234 76.004 140.874 76.2506 140.662C76.9649 140.048 77.8522 139.611 78.7974 139.41C78.986 139.37 79.1978 139.342 79.3608 139.44ZM146.683 138.247C146.749 138.357 146.606 138.561 146.562 138.432L146.561 138.419C146.484 138.416 146.413 138.327 146.4 138.218C146.495 138.169 146.617 138.138 146.683 138.247ZM44.4567 127.799C44.4046 128.616 44.4059 129.436 44.4605 130.253C44.5115 131.017 44.6542 131.86 45.2603 132.33C45.453 132.48 45.7964 132.543 45.8921 132.319C45.9155 132.264 45.9168 132.203 45.9173 132.144C45.9268 130.864 45.6841 129.583 45.2069 128.395C45.075 128.067 44.7919 127.682 44.4567 127.799ZM91.1185 114.469L90.6977 117.971C90.5645 119.079 90.4311 120.196 90.515 121.309C90.6257 122.777 91.1106 124.19 91.6052 125.578C91.9162 126.45 92.2594 127.361 92.9617 127.967C92.5499 125.687 92.6494 123.317 93.2509 121.079C93.3041 120.881 93.3617 120.681 93.3582 120.476C93.3528 120.16 93.2041 119.867 93.0663 119.583C92.245 117.887 91.7002 116.059 91.4599 114.191C91.3545 114.03 91.1415 114.277 91.1185 114.469ZM128.793 125.681C128.661 126.332 128.881 127.044 129.357 127.508C129.373 126.859 129.172 126.207 128.793 125.681ZM138.3 80.6527C137.808 82.8153 135.422 83.7484 133.548 84.8446C132.215 85.624 131.013 86.6409 130.012 87.8366C129.775 88.1206 129.338 87.907 128.999 87.7707C127.939 87.3445 126.654 88.0206 126.173 89.0829C125.692 90.1453 125.918 91.4479 126.541 92.429C127.164 93.4102 128.132 94.1086 129.149 94.6342C129.468 94.4795 129.37 93.9504 129.092 93.727C128.814 93.5037 128.44 93.4463 128.144 93.2483C127.869 93.064 127.681 92.7719 127.516 92.4791C127.025 91.6046 126.672 90.5278 127.051 89.5958C127.431 88.6638 128.833 88.2228 129.413 89.0374C130.297 90.277 128.296 92.2144 129.211 93.4297C129.124 92.8336 129.46 92.1982 129.994 91.951C129.958 93.0658 129.923 94.1806 129.888 95.2954C130.155 95.0119 130.527 94.8352 130.909 94.8093C130.947 95.8325 131.064 96.8525 131.258 97.8567C131.491 97.7047 131.6 97.3772 131.505 97.1101L138.132 103.185C136.688 102.511 135.341 101.62 134.146 100.548C135.339 102.808 134.175 105.541 133.466 108.007C132.865 110.096 132.604 112.287 132.697 114.463C132.27 114.007 131.527 114.344 131.037 114.727C129.462 115.959 128.125 117.514 127.128 119.273C127.006 119.062 127.017 118.797 127.061 118.555C127.343 117.022 128.698 115.995 129.894 115.037C131.09 114.079 132.327 112.792 132.202 111.236C132.035 109.135 133.003 107.142 133.595 105.123C134.186 103.104 134.291 100.617 132.784 99.1905C132.262 98.6961 131.596 98.3861 131.07 97.896C130.544 97.406 130.166 96.6107 130.465 95.9482C130.21 96.1009 129.955 96.2536 129.7 96.4063C129.629 95.3816 128.465 94.9256 127.589 94.4347C126.087 93.5928 124.988 91.8921 125.109 90.1343C125.23 88.3766 126.763 86.7578 128.47 86.8569C129.203 86.8994 130.145 87.1314 130.509 86.4745C131.854 84.0477 135.343 83.7681 136.927 81.4997C137.273 81.0055 137.791 80.3431 138.3 80.6527ZM89.1242 104.692L89.0838 104.777C89.2134 104.807 89.343 104.838 89.4726 104.869C89.6423 104.688 89.6047 104.331 89.3689 104.254C89.133 104.177 88.908 104.571 89.1242 104.692ZM132.664 95.8733C132.689 96.2399 132.807 96.6005 133.004 96.9168C133.003 96.6903 133.383 96.6297 133.547 96.7942C133.712 96.9588 133.713 97.2118 133.703 97.4381C134.465 97.3587 135.008 98.0755 135.579 98.5595C136.909 99.6873 138.893 99.6882 140.676 99.5921C141.169 99.5656 141.824 99.6518 141.9 100.113C141.063 100.397 140.15 100.396 139.262 100.352C137.873 100.283 136.465 100.11 135.198 99.5677C133.931 99.0252 132.81 98.0682 132.366 96.8211C132.24 96.4642 132.272 95.9354 132.664 95.8733ZM133.658 94.3737C134.162 95.7054 135.99 96.4008 137.313 95.7644C137.55 95.6506 137.775 95.5005 138.035 95.4536C138.473 95.3747 138.899 95.6012 139.307 95.772C139.883 96.0126 140.526 96.1543 141.141 96.0329C141.756 95.9115 142.329 95.4843 142.475 94.9005C142.513 94.7503 142.526 94.5849 142.63 94.4669C142.735 94.3489 142.977 94.3358 143.028 94.4823C143.323 95.3259 142.667 96.2727 141.799 96.5938C140.931 96.9149 139.946 96.7441 139.077 96.427C138.784 96.3205 138.485 96.1958 138.173 96.2182C137.859 96.2407 137.581 96.4085 137.295 96.5318C135.964 97.1037 134.234 96.6254 133.428 95.4624C133.295 95.2706 133.183 95.05 133.202 94.8207C133.222 94.5914 133.418 94.3636 133.658 94.3737ZM147.349 93.3094C147.271 93.6849 147.321 94.0861 147.49 94.4304C147.753 94.3089 147.912 93.9953 147.853 93.7115L147.856 93.7102C147.851 93.4641 147.59 93.2569 147.349 93.3094ZM138.051 92.5779C138.274 92.6089 138.454 92.7983 138.612 92.9848C138.932 93.3622 139.229 93.7664 139.5 94.1933C138.712 94.4147 137.882 94.4322 137.088 94.2442C136.843 94.1863 136.742 93.8067 136.833 93.5337C136.923 93.2608 137.137 93.0755 137.34 92.9055C137.553 92.728 137.792 92.5418 138.051 92.5779ZM137.601 93.7197L137.676 93.7577L138.201 93.6395C138.259 93.5436 138.282 93.4184 138.261 93.303C137.999 93.1515 137.637 93.3799 137.601 93.7197ZM127.762 89.503C127.467 89.8063 127.408 90.2897 127.504 90.7079C127.673 91.4414 128.244 92.0393 128.342 92.7862C128.547 92.7287 128.637 92.4732 128.624 92.2548C128.61 92.0365 128.525 91.8273 128.516 91.6087C128.486 90.8775 129.275 90.1218 128.862 89.5264C128.619 89.1767 128.058 89.1997 127.762 89.503ZM143.024 86.8771C143.862 86.9352 144.515 87.6665 144.968 88.4159C145.334 89.0214 145.64 89.7584 145.433 90.4432C145.154 91.3648 144.125 91.7211 143.237 91.9464L142.302 92.1834C142.054 92.2464 141.795 92.3096 141.546 92.2485C141.202 92.164 140.949 91.8624 140.721 91.5769C140.258 90.9986 139.768 90.3412 139.802 89.5838C139.84 88.7017 140.568 88.0469 141.263 87.5602C141.794 87.1883 142.389 86.833 143.024 86.8771ZM136.258 88.082C137.057 88.646 137.57 89.6381 137.348 90.5641C137.126 91.49 136.047 92.2014 135.103 91.9053C134.239 91.634 133.344 91.3355 132.7 90.7203C132.057 90.105 131.749 89.076 132.247 88.347C132.525 87.9388 133.006 87.6902 133.499 87.5688C134.437 87.3381 135.479 87.5319 136.258 88.082ZM143.095 87.9111C142.57 87.9808 142.032 88.015 141.538 88.2171C141.044 88.4192 140.589 88.8299 140.483 89.3795C140.346 90.0912 140.812 90.7599 141.25 91.319C141.455 91.5812 141.83 91.5806 142.148 91.5333C143.116 91.3895 144.053 91.0186 144.873 90.4547C144.458 90.3532 144.043 90.2516 143.628 90.15C143.684 89.8859 144.027 89.8735 144.283 89.8835C144.538 89.8935 144.886 89.7229 144.794 89.4706C144.401 89.3464 143.989 89.2908 143.58 89.3066C143.459 89.3113 143.318 89.3363 143.264 89.4507C143.223 89.5396 143.253 89.645 143.271 89.7423C143.395 90.3937 142.814 91.0809 142.189 91.0224C141.565 90.9638 141.106 90.1793 141.336 89.561C141.565 88.9426 142.404 88.698 142.899 89.1053C143.01 89.0003 142.999 88.7857 142.878 88.694C143.243 88.4285 143.722 88.3468 144.147 88.4775C144.197 88.2368 144.006 88.0003 143.786 87.9219C143.566 87.8435 143.326 87.8805 143.095 87.9111ZM133.836 88.2715C133.224 88.3486 132.501 88.7504 132.612 89.3318C132.69 89.74 133.186 89.9785 133.615 89.9218C134.045 89.865 134.407 89.5908 134.711 89.2947L133.44 89.3951C133.273 89.4082 133.029 89.331 133.089 89.1822C133.106 89.1406 133.145 89.1117 133.184 89.0869C133.735 88.7331 134.532 88.7795 135.034 89.1947C135.525 89.35 135.998 89.6982 136.083 90.186C136.169 90.6738 135.667 91.223 135.178 91.0625C135.135 91.4248 135.716 91.537 136.047 91.3559C136.843 90.9199 136.918 89.7387 136.338 89.0581C135.759 88.3775 134.746 88.1569 133.836 88.2715ZM133.518 90.1355C133.454 90.6209 133.993 91.0839 134.491 90.9698C134.344 90.5954 134.016 90.2901 133.621 90.1608L133.518 90.1355ZM134.748 90.3767L135.276 90.7978L135.292 90.7214C135.515 90.6059 135.532 90.2496 135.321 90.1154C135.109 89.9811 134.772 90.1348 134.748 90.3767ZM142.274 89.637C141.996 89.6646 141.833 90.0826 142.018 90.3058L141.964 90.3104C142.134 90.5469 142.541 90.51 142.664 90.2432C142.787 89.9764 142.553 89.6094 142.274 89.637ZM83.4661 56.0043C83.1216 56.4354 83.0059 57.001 82.9255 57.5461C82.5185 60.307 82.7552 63.16 83.6118 65.8168C83.7664 66.2963 83.9493 66.7835 84.2938 67.1521C85.2354 68.1597 86.8637 67.8766 88.2259 67.6454C89.4934 67.4303 90.7806 67.3301 92.0662 67.3466C92.6621 67.3542 93.2494 67.2187 93.8298 67.0839C95.3636 66.7278 96.8974 66.3717 98.4312 66.0156C98.4504 63.9747 97.6242 61.9386 96.1869 60.4844C95.9711 60.2661 95.6342 60.0497 95.383 60.2264C95.6597 60.5056 95.5775 61.0448 95.2301 61.2296C94.8166 61.0788 94.9639 60.4679 94.8481 60.0447C94.6991 59.5002 94.0681 59.2635 93.5166 59.1349C90.6858 58.4749 87.394 58.3623 85.513 56.1537C85.3379 55.9481 85.1728 55.7221 84.9355 55.5926C84.4503 55.3281 83.8105 55.5732 83.4661 56.0043ZM103.814 47.5957C105.454 48.3614 106.911 49.5537 108.018 51.0359C108.167 51.2362 108.318 51.4663 108.298 51.7199C108.263 52.1806 107.735 52.3799 107.303 52.4716C106.538 52.6341 105.773 52.7966 105.009 52.959C104.729 53.0184 104.289 52.8905 104.403 52.6164C105.324 52.0262 106.429 51.7575 107.504 51.8623C107.59 51.6758 107.487 51.4565 107.373 51.2871C106.997 50.7277 106.483 50.2904 105.975 49.8607C105.15 49.1627 104.325 48.4646 103.5 47.7666C103.517 47.6227 103.691 47.528 103.814 47.5957ZM97.7883 45.33C98.5088 45.6623 98.7694 46.5239 98.9001 47.2927C98.9813 47.7702 99.0427 48.2593 98.9626 48.7371C98.8224 49.5733 98.2468 50.3036 97.5164 50.7591C96.7861 51.2147 95.9142 51.4166 95.0493 51.4629C93.0463 51.5702 91.0104 50.8443 89.5476 49.5011C88.9109 48.9165 88.997 47.841 89.5322 47.166C90.0673 46.491 90.9239 46.1421 91.7657 45.9154C92.7191 45.6588 93.7012 45.5222 94.6801 45.3864C95.3522 45.2931 96.0258 45.1996 96.7042 45.177C97.0727 45.1647 97.4548 45.1761 97.7883 45.33ZM89.7975 48.0486C89.5769 48.433 89.9403 48.8788 90.2739 49.1753C90.9273 49.7559 91.7462 50.3801 92.5991 50.1575C93.171 50.0083 93.7851 49.4997 94.2621 49.8425C94.2219 50.0274 94.0049 50.1165 93.8132 50.1406C93.6216 50.1647 93.4126 50.1586 93.2561 50.2695C93.0995 50.3803 93.0766 50.6722 93.262 50.7253C93.867 50.8988 94.4308 50.3891 94.8612 49.9385C95.2916 49.4878 95.9095 49.0127 96.487 49.2601C96.5636 49.293 96.6434 49.3518 96.6444 49.4336C96.6458 49.5531 96.4936 49.6042 96.3745 49.6304C95.7391 49.7698 95.171 50.1801 94.8477 50.733C95.6938 50.6122 96.4526 50.1742 97.1866 49.7451C97.7057 49.4416 98.2759 49.0687 98.3807 48.486C97.6553 48.6957 96.9009 48.8093 96.1447 48.8228C94.5619 48.8509 93.0229 49.8044 91.4798 49.4587C91.0895 49.3712 90.8209 49.0314 90.5858 48.7143C90.8295 48.4858 91.2195 48.6741 91.5377 48.7841C91.8559 48.8941 92.3667 48.7259 92.2482 48.4167C91.8747 48.2612 91.5013 48.1057 91.1279 47.9502C90.6773 47.7625 90.0372 47.6309 89.7975 48.0486ZM93.3509 48.1976C93.2402 48.2127 93.1175 48.2419 93.0589 48.335C92.9742 48.4697 93.0895 48.6556 93.2423 48.707C93.3951 48.7583 93.5624 48.717 93.7182 48.6754C94.1033 48.5726 94.4884 48.4698 94.8735 48.367C94.3912 48.1868 93.8622 48.128 93.3509 48.1976ZM96.8758 47.5355C96.2852 47.7527 95.6691 47.9868 95.2548 48.4524C96.1786 48.2953 97.119 48.2313 98.0562 48.2618C98.388 48.1172 98.2642 47.5697 97.9312 47.4278C97.5983 47.2858 97.2158 47.4105 96.8758 47.5355ZM97.3485 46.2348C97.0203 46.2609 96.7279 46.437 96.4213 46.5542C95.5501 46.8873 94.5774 46.7426 93.6434 46.6933C92.8232 46.6501 91.9958 46.6851 91.1905 46.8436C90.7575 46.9288 90.2513 47.135 90.1967 47.5639C90.9349 47.2247 91.7945 47.3458 92.6078 47.4045C94.4489 47.5375 96.3165 47.308 98.0668 46.7337C98.0598 46.4117 97.6767 46.2088 97.3485 46.2348ZM84.3657 46.3395C84.1478 46.4357 83.9231 46.5692 83.8363 46.7903C83.7494 47.0115 83.8911 47.3235 84.1294 47.3169C84.8519 46.8132 85.765 46.5882 86.6399 46.6982C86.9171 46.7331 87.2001 46.5086 87.2281 46.2317C86.3065 45.9052 85.2599 45.9446 84.3657 46.3395ZM93.9011 42.5594L93.9033 42.5918C93.6309 42.495 93.2952 42.6446 93.186 42.9113C93.635 42.8801 94.0794 42.7837 94.5008 42.6261C94.4995 42.3793 94.1097 42.4263 93.9011 42.5594ZM99.6455 41.5703C99.4624 41.6534 99.6773 41.9948 99.8321 41.8668L99.8365 41.881C99.9752 41.7705 99.8074 41.4975 99.6455 41.5703Z" fill="white"/>
</svg>
