<svg width="310" height="518" viewBox="0 0 310 518" fill="none" xmlns="http://www.w3.org/2000/svg">
<path fill-rule="evenodd" clip-rule="evenodd" d="M135.069 223.584C134.749 223.779 134.336 223.715 134.089 223.433C132.61 222.136 130.94 221.09 129.419 219.843C128.606 219.167 127.74 218.559 126.828 218.024C126.161 217.64 125.661 217.039 125.023 216.601L124.845 216.486C124.064 216.009 123.43 215.32 122.677 214.785C122.042 214.333 121.585 213.663 120.948 213.179C120.031 212.464 119.15 211.703 118.308 210.899C117.707 210.449 117.193 209.893 116.791 209.259C116.701 209.078 116.535 209.039 116.415 208.927C115.885 208.462 115.384 207.965 114.915 207.439C113.953 206.298 112.881 205.251 111.938 204.097C111.254 203.259 110.523 202.467 109.815 201.651C109.135 200.867 108.47 200.068 107.82 199.257C106.293 197.362 104.878 195.38 103.583 193.32C102.589 191.695 101.687 190.015 100.883 188.288C100.174 186.915 99.5571 185.497 99.0369 184.042C98.6597 182.867 98.1095 181.74 97.8446 180.553C97.5948 179.433 97.2821 178.319 97.0062 177.213C96.3667 174.653 95.8313 172.074 95.4 169.478C95.1444 167.95 94.9198 166.407 94.6409 164.888C94.3136 163.106 94.1912 161.301 93.8696 159.519C93.6821 158.475 93.6261 157.37 93.5033 156.299C93.3841 155.262 93.4108 154.215 93.2267 153.186C93.0789 152.153 92.9837 151.114 92.9414 150.072C92.8698 149.104 92.5687 148.087 92.8881 147.095C92.3874 146.4 92.731 145.596 92.6502 144.851C92.5693 144.107 92.538 143.349 92.4142 142.624C92.2864 141.878 92.1769 141.114 92.0717 140.372C91.8576 138.866 91.5009 137.389 91.285 135.892C91.1525 134.979 90.7553 134.171 90.5485 133.295C90.143 131.617 89.5716 129.984 88.8428 128.42C88.5378 127.798 88.3292 127.133 88.224 126.448C88.1573 125.926 87.6708 125.704 87.5276 125.228C87.296 124.459 86.935 123.729 86.6436 122.978C86.5922 122.723 86.4071 122.515 86.1595 122.435L86.3586 121.776C86.2525 121.507 86.1438 121.826 85.9984 121.741C85.8498 121.443 85.613 121.161 85.6553 120.755C85.6959 120.375 85.2637 120.262 85.1716 119.907C84.9683 119.137 84.1173 118.612 84.2957 117.68C83.7109 117.15 83.5127 116.383 83.1145 115.738C82.9048 115.437 82.8092 115.072 82.843 114.708L82.8531 114.624C82.9195 114.268 82.2181 114.227 82.489 113.773C81.5761 112.796 81.5308 111.455 81.1638 110.286C80.5757 108.411 79.8411 106.57 79.5677 104.581C79.4306 103.587 78.9996 102.593 78.841 101.582C78.4838 99.3097 77.971 97.0585 77.8866 94.7432C77.8522 93.7868 77.6046 92.8379 77.5792 91.8805L77.5501 90.774C77.509 89.1139 77.4855 87.453 77.5683 85.7927C77.5282 85.4078 77.5968 85.0193 77.7662 84.6714C78.0153 84.2853 77.5962 83.936 77.6325 83.511C77.6731 83.0065 77.9542 82.5713 77.9046 82.0194C77.8772 81.7153 78.0377 81.2627 78.0069 80.9099C77.9072 79.7629 78.4773 78.6988 78.3505 77.5548C78.3743 77.1255 78.4937 76.7069 78.6998 76.3295C79.1564 75.0292 78.994 73.5904 79.6272 72.3538C79.9294 71.7421 80.085 71.0693 80.0828 70.3884L80.0779 70.1251C80.0756 69.9302 80.0843 69.7425 80.1991 69.6319C80.6797 69.17 80.6642 68.5173 80.8642 67.9604C81.0783 67.364 81.0831 66.7001 81.3791 66.1063C81.7403 65.5374 81.9977 64.9089 82.1391 64.2501C82.2437 63.1089 82.7997 62.1664 83.2153 61.1631C83.4228 60.6619 83.4365 60.0249 84.078 59.7379C84.4043 59.5919 83.784 59.0875 84.252 58.8721L84.3064 58.8502C84.643 58.7311 84.679 58.4495 84.6517 58.0999C84.6267 57.7802 85.1972 57.6629 85.0998 57.3231C85.0024 56.9834 85.0139 56.5158 85.2023 56.4897C85.6736 56.4219 85.3061 55.8566 85.6964 55.8305C85.7367 55.817 85.7685 55.7855 85.7824 55.7454C86.1172 54.5932 87.0421 53.7622 87.4359 52.6211C87.7008 51.945 88.0912 51.3251 88.5864 50.7941C89.011 50.2719 89.3916 49.7155 89.7243 49.1305C90.3282 48.1546 91.1996 47.4043 91.7874 46.4308C91.9469 46.1674 92.6615 46.3909 92.3919 45.7451C92.8451 45.6695 92.7935 45.2041 93.0137 44.9579C93.2396 44.7823 93.4911 44.6426 93.7595 44.5438C94.0267 43.9497 94.4301 43.427 94.937 43.018C95.864 42.0685 96.8501 41.1785 97.8895 40.3535L98.7472 39.6765C99.8934 38.7742 101.066 37.9007 102.458 37.3848C102.816 37.2523 102.731 36.8662 103.033 36.7182C104.781 35.8472 106.434 34.8009 108.346 34.2444C109.147 34.0109 109.892 33.4775 110.711 33.2322C112.356 32.7393 113.92 32.0289 115.659 31.7703C116.688 31.6178 117.731 31.2956 118.78 31.1132C120.947 30.673 123.16 30.4954 125.369 30.5842L126.726 30.6712C127.933 30.7488 129.139 30.837 130.34 31.015C130.909 31.0993 131.42 31.3746 131.949 31.4011C132.465 31.4262 132.97 31.5579 133.432 31.7877C133.798 31.9636 134.183 31.689 134.566 31.9407C134.849 32.1964 135.239 32.2959 135.608 32.2107L135.681 32.1912C135.898 32.1118 136.248 32.391 136.536 32.5116C136.962 32.6497 137.373 32.8317 137.761 33.0548C138.056 33.2605 138.551 32.8543 138.685 33.4025C139.147 33.1581 139.492 33.4976 139.872 33.6452L139.923 33.6641C140.304 33.7926 140.668 33.9732 141.039 34.1308L142.277 34.6563C142.623 34.8642 143 35.0158 143.393 35.1054C144.125 35.1482 144.705 35.5977 145.41 35.7343C146.189 35.9461 146.939 36.2536 147.642 36.6497C148.277 36.9524 149.006 36.8047 149.639 37.1756C150.233 37.5806 150.906 37.8575 151.614 37.9888C152.34 38.0604 152.946 38.5263 153.594 38.566L153.716 38.5682C154.545 38.551 155.101 39.143 155.825 39.2225C157.403 39.3958 158.872 40.0644 160.417 40.2675C162.366 40.5237 164.271 41.0204 166.243 41.1831C167.525 41.2888 168.815 41.354 170.098 41.4604C171.384 41.5166 172.672 41.4636 173.948 41.3019C175.546 41.1429 177.129 40.8551 178.681 40.4413C180.249 40.0427 181.737 39.4108 183.292 38.9893C184.001 38.7969 184.658 38.4786 185.378 38.3065C186.153 38.1212 186.858 37.6332 187.633 37.445C189.575 36.9738 191.357 35.9809 193.36 35.7264C195.669 34.719 198.194 34.5432 200.59 33.8671C201.705 33.5516 202.899 33.5285 204.064 33.3845L204.313 33.3516C206.376 33.064 208.453 32.9857 210.53 32.8876C212.436 32.8132 214.345 32.8642 216.244 33.0405C217.612 33.1559 218.974 33.3378 220.343 33.4275C220.897 33.4643 221.363 33.9428 221.954 33.7067C223.094 34.244 224.421 34.0694 225.549 34.6488C226.385 34.5534 227.079 34.9768 227.771 35.3208C228.299 35.5845 228.884 35.3337 229.404 35.6765C229.869 36.0344 230.421 36.2632 231.003 36.3399C231.987 36.3619 232.759 36.8611 233.6 37.2012C235.552 37.9917 237.491 38.8159 239.416 39.674C240.047 39.9555 240.799 40.0225 241.275 40.6274C241.692 41.1582 242.524 41.0183 242.919 41.6278C243.063 41.8497 243.355 41.5204 243.597 41.7117C244.07 42.0849 244.774 42.0178 245.173 42.6108C245.468 43.0498 246.195 42.9162 246.515 43.4398L246.556 43.5154C246.735 43.8856 247.495 43.2209 247.55 43.9853C248.285 44.174 248.83 44.6895 249.445 45.0852C249.954 45.4122 250.625 45.3966 251.036 45.9634C251.387 46.4465 252.238 46.2867 252.496 46.9635C253.391 47.1288 253.933 47.9166 254.755 48.2436C255.373 48.5282 255.95 48.8943 256.47 49.3322C257.306 49.9676 258.16 50.5783 259.026 51.167C259.335 51.3836 259.633 51.6171 259.916 51.8665C260.076 52.0024 260.079 52.2413 260.323 52.3425C261.872 52.9845 263.062 54.1645 264.294 55.2306C265.008 55.7756 265.676 56.3767 266.294 57.0281L266.498 57.2471C266.674 57.4628 267.09 57.6271 267.229 57.9084C267.616 58.6914 268.318 59.1649 268.936 59.703L269.038 59.7934C269.387 60.0919 269.691 60.4395 269.939 60.8253C269.986 60.8988 269.986 61.04 270.045 61.0662C271.142 61.5522 271.659 62.6219 272.419 63.4401C273.155 64.2313 273.743 65.1591 274.496 65.9289C276.015 67.4811 291.341 91.8039 292.858 95.8028L293.292 96.9472C293.725 98.0934 294.15 99.2458 294.523 100.41L294.84 101.402C295.156 102.395 295.464 103.394 295.715 104.399L296.05 105.74C296.719 108.424 297.361 111.116 297.832 113.848C298.251 116.286 298.522 118.736 298.799 121.19C298.976 122.765 299.083 124.334 299.129 125.915C299.201 128.442 299.218 130.969 299.179 133.496C299.138 135.875 298.588 138.199 298.675 140.574C298.106 141.922 298.445 143.452 297.831 144.791C297.981 145.532 297.615 146.209 297.469 146.887C297.318 147.588 297.346 148.354 296.939 149.019C296.753 149.321 296.982 149.764 296.751 150.132C296.515 150.431 296.426 150.819 296.506 151.19C295.99 151.326 296.5 151.766 296.246 152.044C295.972 152.347 295.806 152.732 295.776 153.139C295.757 154.059 295.097 154.795 295.044 155.619C294.993 156.463 294.461 157.092 294.332 157.834L294.312 157.975C294.211 158.96 293.388 159.571 293.202 160.487C293.186 160.568 292.982 160.608 292.864 160.67C292.861 160.883 293.098 160.876 293.232 161.066C292.933 161.245 292.661 161.465 292.422 161.719C292.211 162.088 292.038 162.478 291.907 162.882L292.415 163.849C292.086 164.293 292.093 164.751 291.701 165.075C291.531 165.217 291.52 165.74 291.44 166.089C291.336 166.547 290.694 166.718 290.773 167.108C290.809 167.548 290.695 167.986 290.449 168.352C288.94 171.948 287.417 175.538 285.878 179.122C285.714 179.506 285.706 180.025 285.172 180.173C285.612 180.824 284.733 180.869 284.642 181.308C284.501 181.708 284.273 182.072 283.975 182.374C283.526 182.959 283.354 183.752 283.035 184.444C282.894 184.947 282.614 185.401 282.227 185.753C281.839 186.036 281.782 186.636 281.451 187.07C281.001 187.585 280.621 188.158 280.322 188.774C280.185 189.23 279.922 189.638 279.563 189.952C279.251 190.194 279.36 190.83 278.814 190.958C278.524 191.771 277.906 192.356 277.407 193.024L277.315 193.151C276.074 194.88 274.73 196.532 273.291 198.1C272.092 199.422 270.916 200.764 269.704 202.073C269.31 202.496 268.898 202.913 268.477 203.306C267.002 204.762 265.447 206.137 263.819 207.422C262.344 208.522 260.917 209.691 259.388 210.729C258.576 211.282 257.862 212.01 257.062 212.608C255.177 214.02 253.258 215.379 251.268 216.638C249.568 217.816 247.758 218.825 245.864 219.653C245.353 219.853 244.901 220.198 244.401 220.43C243.808 220.633 243.231 220.878 242.672 221.163C242.004 221.602 241.24 221.821 240.573 222.219C240.055 222.528 239.375 222.18 238.93 222.822C238.606 223.288 237.761 222.948 237.361 223.489C236.546 223.373 236.029 224.092 235.248 224.221L235.145 224.234C234.332 224.309 233.56 224.819 232.77 225.138C231.999 225.504 231.204 225.818 230.39 226.077C228.881 226.461 227.504 227.209 226.023 227.62C224.611 228.01 223.278 228.712 221.796 228.807C221.446 228.829 221.456 229.137 221.203 229.222C220.939 229.312 220.691 229.178 220.447 229.293C219.445 229.722 218.41 230.069 217.352 230.333C215.865 230.756 214.361 231.139 212.882 231.573C210.582 232.21 208.251 232.725 205.898 233.116C204.369 233.395 202.83 233.62 201.296 233.861L199.157 234.198C198.087 234.366 197.017 234.53 195.945 234.675C194.582 234.858 193.208 234.949 191.842 235.116C190.762 235.247 189.683 235.423 188.607 235.599C187.12 235.843 185.621 236.034 184.136 236.267C182.032 236.586 179.911 236.788 177.785 236.87C176.708 236.944 175.628 236.948 174.551 236.884C173.952 236.832 173.349 236.818 172.747 236.841L172.447 236.856C171.047 236.951 169.709 236.667 168.345 236.55C167.925 236.513 167.538 236.386 167.145 236.309L166.977 236.28C166.638 236.229 166.313 236.154 165.985 236.083L165.737 236.031C164.57 235.794 163.444 235.353 162.247 235.269L162.021 235.257C161.935 235.257 161.851 235.237 161.775 235.198C160.605 234.536 159.229 234.486 158.016 233.93L157.803 233.826C156.678 233.241 155.327 233.248 154.219 232.579C153.37 232.717 152.74 232.078 151.985 231.941C150.034 231.587 148.326 230.62 146.529 229.882L146.294 229.788C144.419 229.045 142.579 228.215 140.719 227.435C139.446 226.81 138.225 226.082 137.071 225.257C136.829 225.028 136.558 224.83 136.266 224.67C135.732 224.494 135.297 224.099 135.069 223.584Z" fill="#00FFFF"/>
<path fill-rule="evenodd" clip-rule="evenodd" d="M162.233 118.513C160.92 123.908 157.647 128.114 152.571 131.518C153.868 127.756 155.544 123.355 156.841 119.594C155.592 122.16 153.339 124.677 150.831 126.045C152.411 120.383 155.724 115.882 155.724 108.706C155.724 106.125 152.926 104.132 153.035 103.083C153.146 102.021 153.712 101.072 154.151 100.099C156.612 94.6558 163.118 120.745 162.233 118.513Z" fill="#212121"/>
<path d="M265.584 44.2031C266.901 44.1736 267.373 45.9138 267.426 47.2295C267.505 49.1956 267.583 51.1618 267.662 53.1279C268.218 52.1398 269.849 52.3851 270.516 53.3018C271.183 54.2185 271.166 55.4473 271.123 56.5801C271.433 54.066 272.439 51.6412 273.998 49.6445C274.487 49.0178 275.224 48.3732 275.982 48.6133C276.783 48.8671 276.981 49.8947 277.009 50.7344C277.249 58.0221 275.067 65.3696 270.888 71.3457C270.08 72.5002 269.645 73.8381 269.356 75.2266C269.463 76.1969 269.51 77.2424 269.393 78.1152C268.046 88.0898 265.807 97.9442 262.711 107.521C260.869 113.219 258.669 118.917 254.974 123.629C253.025 126.114 250.698 128.274 248.372 130.41C240.277 137.845 230.207 146.394 221.861 153.546C221.809 153.545 222.162 153.147 222.838 152.402C222.584 152.62 222.333 152.838 222.081 153.054C221.686 153.053 219.033 147.936 216.199 143.695C213.932 140.304 211.259 137.55 211.512 137.368C218.369 132.433 225.989 128.417 232.342 122.938C242.822 113.901 250.115 102.549 254.481 92.8076C259.978 80.5453 261.698 72.1201 262.356 71.3496C260.065 71.0354 258.028 69.272 257.41 67.04C256.776 64.7499 257.675 62.1138 259.577 60.6885C261.703 59.0949 262.395 56.2291 262.607 53.5811C262.82 50.9329 262.723 48.1695 263.827 45.7529C264.17 45.0028 264.759 44.2217 265.584 44.2031Z" fill="#212121"/>
<path d="M145.376 185.334C145.979 187.05 147.496 189.243 147.496 189.243C147.496 189.243 136.94 204.156 132.919 212.676C129.182 220.594 125.409 238.928 113.831 227.92C119.345 212.321 124.896 196.638 132.919 182.165C136.568 175.582 139.756 173.246 139.756 173.246C139.756 173.246 143.266 179.331 145.376 185.334Z" fill="#212121"/>
<path fill-rule="evenodd" clip-rule="evenodd" d="M156.941 96.8567C156.16 97.5261 156.832 98.8344 157.688 99.4054C158.545 99.9763 159.657 100.409 159.951 101.395C158.646 101.474 157.467 100.371 156.167 100.517C154.73 100.678 153.882 102.39 154.158 103.808C154.434 105.226 155.495 106.352 156.591 107.295C158.298 108.765 160.207 109.999 162.248 110.954C162.996 111.303 163.825 112.359 163.087 112.728C162.401 112.336 161.714 111.943 161.028 111.551C162.174 115.113 163.357 118.747 165.595 121.747C167.833 124.747 171.359 127.052 175.099 126.837C175.82 126.795 176.863 126.95 176.795 127.668C176.31 127.78 175.825 127.893 175.34 128.005C176.838 129.279 178.976 129.591 180.916 129.263C182.856 128.935 184.648 128.04 186.386 127.12C189.873 125.273 193.354 123.215 195.887 120.193C197.626 118.12 198.853 115.666 199.864 113.156C203.061 105.215 204.209 96.4615 203.168 87.966C203.115 87.5392 202.857 86.9741 202.447 87.1067C192.524 90.3198 181.338 89.4353 172.045 84.7027C170.034 83.6788 168.036 82.4103 166.876 80.477C171.177 83.1256 175.866 85.1445 180.748 86.4493C185.533 87.7283 190.562 88.3201 195.46 87.5837C200.358 86.8473 205.128 84.7112 208.537 81.1225C213.184 76.2313 214.888 69.062 214.224 62.3521C213.56 55.6423 210.761 49.3161 207.385 43.4771C206.415 47.4632 202.976 50.5078 199.135 51.9614C195.294 53.415 191.078 53.5022 186.975 53.3015C182.873 53.1008 178.757 52.6308 174.67 53.0365C172.139 53.2878 169.474 53.9699 167.772 55.8574C165.181 58.7307 165.752 63.1525 166.482 66.9498C165.344 66.349 164.716 64.9198 165.045 63.6764C160.498 64.5139 157.19 68.7423 156.027 73.2109C154.865 77.6795 155.429 82.3923 156 86.9738C156.243 88.9184 156.485 90.8631 156.728 92.8077C156.876 93.9951 157.063 95.2678 157.882 96.141C160.46 98.8896 162.265 102.354 163.038 106.04C165.816 101.296 167.749 96.0597 168.719 90.6498C168.937 89.4315 169.125 88.1576 169.827 87.1374C170.529 86.1172 171.93 85.4508 173.039 86.0045C168.621 92.74 168.423 101.871 162.963 107.795C162.067 105.545 161.172 103.295 160.276 101.045C159.593 99.3285 158.705 97.4137 156.941 96.8567Z" fill="#212121"/>
<path fill-rule="evenodd" clip-rule="evenodd" d="M222.002 163.728C218.497 166.231 214.886 168.585 211.181 170.782C210.368 176.449 208.476 187.34 207.018 196.52C206.354 200.695 206.354 204.247 205.787 207.167C204.634 213.104 199.791 216.261 193.97 215.973C159.898 214.291 159.39 232.355 158.084 220.686C156.777 209.018 156.186 197.269 156.315 185.529C153.685 187.467 151.054 189.405 148.423 191.344C147.577 190.074 140.183 178.144 140.559 173.796C140.968 169.056 146.226 162.174 152.229 156.755C155.969 153.38 160.34 150.921 162.964 148.835C164.025 147.992 169.549 142.996 170.83 138.117C172.171 133.012 169.299 128.019 171.808 127.35C173.789 126.823 175.055 128.388 177.279 129.384C178.99 130.15 181.812 128.789 182.474 129.871C183.135 130.954 182.258 135.232 183.933 136.876C187.039 139.923 193.449 140.434 193.97 140.378C200.908 139.642 208.168 136.485 210.262 137.27C217.46 139.97 222.927 153.527 224.096 158.178C224.363 159.24 224.582 160.386 224.185 161.405C223.794 162.41 222.88 163.101 222.002 163.728Z" fill="#212121"/>
<path fill-rule="evenodd" clip-rule="evenodd" d="M213.601 139.628C213.385 139.35 213.176 139.105 212.979 138.889C212.026 137.845 211.351 137.485 211.512 137.369C218.37 132.433 225.989 128.417 232.342 122.939C242.822 113.901 250.116 102.549 254.482 92.8079C257.824 85.3532 253.072 102.455 241.996 118.91C232.887 132.443 213.973 140.109 213.601 139.628Z" fill="#373737"/>
<path d="M146.462 189.243C146.808 189.528 146.579 190.081 146.331 190.455C138.214 202.688 131.914 216.156 128.122 230.328C127.895 231.178 127.644 232.083 126.983 232.667C126.323 233.25 125.108 233.287 124.685 232.515C124.379 231.957 124.605 231.269 124.835 230.676C127.548 223.679 130.266 216.672 133.561 209.927C136.822 203.252 140.643 196.848 144.971 190.804C145.393 190.215 145.838 189.613 146.462 189.243ZM207.259 41.4399C211.83 48.0792 215.273 55.7335 215.639 63.7827C216.005 71.8319 212.925 80.287 206.488 85.146C203.944 87.0664 204.121 90.8462 204.299 94.0259C204.689 101.009 203.831 108.18 200.826 114.498C197.821 120.815 192.502 126.206 185.847 128.385C182.308 129.544 182.222 135.086 185.002 137.56C187.782 140.034 191.912 140.15 195.614 139.757C212.258 137.991 227.472 128.597 238.61 116.122C249.749 103.646 257.153 88.2595 262.67 72.479C256.343 100.219 237.03 124.717 211.513 137.369C217.649 142.854 222.092 150.202 224.097 158.178C224.363 159.239 224.582 160.385 224.186 161.405C223.795 162.409 222.881 163.1 222.003 163.727C218.498 166.23 214.886 168.585 211.181 170.782C209.393 183.24 207.607 195.698 205.819 208.157C203.802 191.605 213.684 174.307 207.858 158.681C209.954 161.86 210.923 165.764 210.555 169.552C214.048 167.849 217.402 165.862 220.574 163.618C221.422 163.018 222.293 162.357 222.713 161.408C223.235 160.228 222.953 158.861 222.608 157.618C220.915 151.517 217.869 145.794 213.752 140.98C212.425 139.428 210.538 137.836 208.574 138.4C203.721 139.796 198.769 140.853 193.769 141.563C192.687 146.239 190.786 150.726 188.179 154.757C187.49 155.821 186.699 156.901 185.544 157.425C183.873 158.184 181.92 157.59 180.224 156.888C174.888 154.681 169.976 151.455 165.834 147.435C156.524 152.071 148.523 159.293 142.966 168.075C140.897 171.345 141.045 175.635 142.411 179.254C143.777 182.874 146.214 185.973 148.614 189.008C153.268 187.759 156.859 183.29 157.073 178.482C157.171 176.286 156.862 173.579 158.717 172.396C157.065 187.234 157.417 202.293 159.76 217.038C160.004 218.577 159.636 220.85 158.084 220.686C156.777 209.018 156.186 197.269 156.315 185.529C153.685 187.467 151.054 189.405 148.424 191.343C144.789 185.891 141.844 179.98 139.681 173.796C130.4 191.511 121.775 209.569 113.831 227.92C119.345 212.321 124.896 196.637 132.919 182.165C140.942 167.692 151.633 154.352 165.611 145.475C172.647 141.007 173.155 129.244 166.53 124.187C164.621 122.729 163.118 120.745 162.233 118.513C160.709 123.546 157.361 128.007 152.95 130.878C154.247 127.117 155.544 123.355 156.841 119.593C155.591 122.159 153.526 124.322 151.019 125.69C152.598 120.029 154.178 114.367 155.758 108.706C155.565 114.023 154.407 119.305 152.355 124.216C154.306 120.945 156.256 117.673 158.207 114.402C158.271 119.252 157.142 124.113 154.946 128.439C157.003 126.031 159.097 123.563 160.244 120.613C161.392 117.663 161.435 114.089 159.551 111.544C157.351 108.575 152.652 106.757 153.035 103.083C153.146 102.021 153.712 101.072 154.151 100.099C156.612 94.6559 155.184 88.3651 154.443 82.439C153.702 76.5129 154.127 69.5588 158.884 65.9399C161.017 64.317 164.113 63.1456 164.411 60.4839C165.099 54.3481 172.44 51.3078 178.622 51.3706C184.804 51.4335 191.145 53.2676 197.056 51.4585C201.795 50.0078 205.726 46.1481 207.259 41.4399ZM171.809 127.35C172.766 132.597 172.491 138.066 171.012 143.191C170.861 143.713 170.691 144.245 170.348 144.667C169.556 145.637 168.032 145.803 167.321 146.834C171.608 150.977 176.877 154.098 182.571 155.871C184.01 156.318 185.842 156.573 186.79 155.403C190.015 151.423 191.861 146.35 191.945 141.231C189.059 140.771 186.106 140 183.859 138.133C181.613 136.266 180.269 133.054 181.337 130.337C179.051 130.869 176.541 130.339 174.666 128.929C173.779 128.262 172.918 127.367 171.809 127.35ZM266.097 44.2026C267.413 44.1733 267.886 45.9143 267.938 47.23C268.017 49.196 268.096 51.1624 268.175 53.1284C268.73 52.1401 270.361 52.3854 271.028 53.3022C271.695 54.219 271.679 55.4478 271.636 56.5806C271.946 54.0662 272.951 51.6409 274.511 49.644C275 49.0174 275.736 48.374 276.494 48.6138C277.295 48.8675 277.493 49.895 277.521 50.7349C277.761 58.0226 275.579 65.3701 271.4 71.3462C270.039 73.2934 269.731 75.7613 269.413 78.1157C268.066 88.0903 265.828 97.9447 262.731 107.522C260.889 113.22 258.69 118.917 254.994 123.629C253.045 126.114 250.719 128.274 248.393 130.411C240.298 137.845 232.074 145.14 223.729 152.292C223.02 152.291 223.345 151.141 223.882 150.677C233.302 142.528 243.053 134.69 251.463 125.502C253.443 123.34 255.355 121.091 256.853 118.571C258.294 116.145 259.33 113.502 260.294 110.849C264.53 99.1882 267.484 87.0617 269.084 74.7593C269.199 73.8764 269.293 72.9201 268.848 72.1489C274.402 66.1663 277.164 57.6924 276.202 49.5864C272.226 51.4167 273.966 58.0459 270.829 61.0981C270.758 59.135 270.686 57.1716 270.615 55.2085C270.595 54.6432 270.507 53.9692 269.999 53.7202C269.161 53.3096 268.437 54.4918 268.352 55.4214C268.267 56.351 268.104 57.5732 267.183 57.7271C267.484 53.4419 267.23 49.118 266.427 44.8979C264.239 46.9365 264.318 50.343 264.264 53.3325C264.209 56.3222 263.433 59.8905 260.628 60.9292C261.596 61.6823 262.74 60.2722 263.856 59.7632C265.724 58.9119 267.863 61.2659 267.341 63.2505C266.819 65.2352 264.592 66.3646 262.539 66.356C263.538 64.693 266.742 64.5504 266.629 62.6138C266.573 61.6559 265.536 60.9981 264.576 61.0044C263.617 61.0108 262.733 61.4945 261.897 61.9653C260.422 62.7963 258.757 63.9261 258.72 65.6187C258.666 68.0847 261.948 69.1644 263.048 71.3726C260.684 71.1281 258.557 69.3296 257.923 67.0396C257.289 64.7496 258.187 62.1143 260.089 60.689C262.215 59.0955 262.907 56.2297 263.12 53.5815C263.333 50.9334 263.235 48.1701 264.339 45.7534C264.682 45.0031 265.272 44.2212 266.097 44.2026ZM207.385 43.4771C206.416 47.4632 202.976 50.5078 199.135 51.9614C195.294 53.4149 191.078 53.502 186.976 53.3013C182.873 53.1006 178.757 52.6309 174.67 53.0366C172.139 53.2878 169.474 53.9696 167.772 55.8569C165.181 58.7303 165.753 63.1524 166.483 66.9497C165.345 66.349 164.716 64.9197 165.045 63.6763C160.499 64.5138 157.19 68.7421 156.027 73.2104C154.865 77.679 155.43 82.3926 156.001 86.9741C156.244 88.9186 156.486 90.8636 156.729 92.8081C156.877 93.9953 157.063 95.268 157.882 96.1411C160.46 98.8896 162.265 102.354 163.038 106.041C165.816 101.296 167.749 96.0597 168.719 90.6499C168.937 89.4316 169.125 88.1574 169.827 87.1372C170.529 86.117 171.931 85.4507 173.039 86.0044C168.621 92.7399 168.423 101.871 162.963 107.795C162.067 105.546 161.172 103.295 160.276 101.045C159.593 99.3287 158.705 97.414 156.941 96.8569C156.16 97.5265 156.832 98.8349 157.688 99.4058C158.545 99.9767 159.658 100.409 159.952 101.394C158.647 101.474 157.468 100.37 156.168 100.516C154.731 100.677 153.883 102.39 154.159 103.808C154.435 105.226 155.495 106.353 156.591 107.295C158.298 108.765 160.208 109.999 162.249 110.954C162.996 111.303 163.825 112.359 163.088 112.728C162.402 112.336 161.715 111.944 161.028 111.551C162.174 115.113 163.357 118.747 165.596 121.748C167.834 124.748 171.36 127.052 175.1 126.836C175.82 126.795 176.864 126.951 176.796 127.668C176.311 127.781 175.826 127.893 175.341 128.005C176.839 129.279 178.976 129.59 180.916 129.262C182.856 128.934 184.648 128.04 186.387 127.12C189.873 125.273 193.354 123.215 195.888 120.193C197.626 118.119 198.854 115.666 199.864 113.157C203.061 105.216 204.209 96.4617 203.168 87.9663C203.116 87.5396 202.858 86.9748 202.448 87.1069C192.525 90.32 181.338 89.4352 172.045 84.7026C170.034 83.6787 168.036 82.4102 166.876 80.4771C171.177 83.1256 175.867 85.1449 180.748 86.4497C185.533 87.7287 190.562 88.3198 195.46 87.5835C200.358 86.8471 205.128 84.7111 208.537 81.1226C213.184 76.2313 214.889 69.0619 214.225 62.3521C213.561 55.6422 210.761 49.3161 207.385 43.4771ZM174.531 116.035C174.768 116.059 174.985 116.333 174.867 116.543C174.519 117.168 175.387 117.75 176.068 117.93C178.358 118.537 180.666 119.147 183.028 119.28C185.39 119.412 187.838 119.036 189.864 117.79C190.487 117.407 191.259 116.935 191.876 117.327C191.372 118.8 188.798 118.881 188.691 120.438C188.634 121.287 187.89 122.03 187.058 122.07C186.225 122.11 185.416 121.441 185.281 120.601C185.26 120.469 185.103 120.417 184.974 120.394C184.375 120.288 183.743 120.233 183.173 120.448C182.603 120.663 182.116 121.214 182.144 121.833C182.174 122.533 181.344 122.933 180.658 122.939C179.913 122.945 179.113 122.67 178.708 122.031C178.303 121.391 178.497 120.366 179.197 120.105C177.585 119.484 175.972 118.863 174.36 118.242C173.954 118.085 173.523 117.925 173.095 117.998C172.828 118.043 172.573 118.177 172.304 118.161C172.034 118.144 171.754 117.861 171.877 117.616C171.923 117.524 172.013 117.465 172.099 117.41C172.69 117.031 173.281 116.652 173.872 116.273C174.073 116.144 174.295 116.01 174.531 116.035ZM181.269 120.328C181.002 119.993 180.443 120.043 180.146 120.348C179.848 120.653 179.773 121.124 179.818 121.552C180.171 121.754 180.643 121.711 180.954 121.448C181.266 121.185 181.396 120.719 181.269 120.328ZM187.903 120.169C187.721 119.845 187.239 119.972 186.911 120.14C186.737 120.229 186.542 120.349 186.519 120.546C186.49 120.788 186.765 120.975 187.002 120.946C187.239 120.917 187.434 120.747 187.613 120.585L187.603 120.58C187.646 120.41 187.756 120.26 187.903 120.169ZM189.621 99.1479C190.012 99.0038 190.556 99.2992 190.489 99.7124C189.276 100.901 188.888 102.722 188.938 104.424C188.989 106.127 189.416 107.795 189.569 109.492C189.678 110.698 189.556 112.107 188.574 112.809C187.871 113.312 186.935 113.291 186.073 113.25C185.568 113.226 184.885 112.993 184.979 112.494C185.045 112.141 185.479 112.006 185.836 112.003C186.527 111.999 187.302 112.198 187.852 111.777C188.407 111.35 188.414 110.526 188.354 109.826C188.072 106.543 187.487 103.079 188.827 100.073C188.998 99.6907 189.23 99.2922 189.621 99.1479ZM183.886 99.4614C184.291 99.4039 184.636 99.8459 184.624 100.263C184.612 100.68 184.349 101.046 184.059 101.34C183.007 102.407 181.483 102.9 179.999 102.909C178.515 102.917 177.059 102.481 175.688 101.902C175.391 101.777 175.089 101.638 174.869 101.4C174.65 101.161 174.533 100.796 174.667 100.5C174.801 100.202 175.239 100.07 175.462 100.305C176.473 101.375 178.045 101.651 179.502 101.676C180.819 101.699 182.323 101.457 183.05 100.337C183.278 99.9855 183.476 99.5197 183.886 99.4614ZM193.64 100.504C193.779 100.163 194.28 100.072 194.646 100.205C195.011 100.337 195.285 100.62 195.587 100.852C196.898 101.86 198.962 101.888 200.305 100.917C200.546 100.743 200.793 100.532 201.098 100.527C201.403 100.522 201.689 100.897 201.466 101.091C199.823 102.517 197.281 102.961 195.197 102.188C194.622 101.974 194.059 101.654 193.751 101.152C193.631 100.956 193.553 100.716 193.64 100.504ZM194.889 96.5825C196.602 95.7893 198.792 97.3198 200.562 96.6304C200.859 96.5146 201.151 96.3348 201.474 96.3657C201.796 96.3968 202.046 96.8134 201.776 96.9731C200.761 97.5731 199.474 97.7944 198.282 97.5737C197.723 97.4702 197.186 97.2745 196.619 97.2114C196.052 97.1484 195.417 97.2467 195.044 97.6323C194.812 97.8726 194.31 97.6281 194.294 97.311C194.278 96.994 194.573 96.7288 194.889 96.5825ZM180.753 94.6235C181.887 94.5916 183.099 94.9554 183.778 95.8257C183.868 95.9404 183.95 96.0763 183.931 96.2183C183.897 96.461 183.576 96.5774 183.328 96.5161C183.081 96.4548 182.886 96.2792 182.678 96.1372C181.421 95.2799 179.684 95.6503 178.238 96.1675C176.793 96.6847 175.241 97.3248 173.764 96.8999C173.504 96.8252 173.211 96.6547 173.229 96.396C173.254 96.0437 173.765 95.9917 174.134 96.0063C175.268 96.0514 176.378 95.7187 177.453 95.3716C178.529 95.0245 179.619 94.6555 180.753 94.6235Z" fill="white"/>
<path fill-rule="evenodd" clip-rule="evenodd" d="M181.337 130.337C180.666 130.493 179.976 130.558 179.288 130.536C177.632 130.482 175.75 136.221 179.288 142.767C182.764 149.2 189.312 151.773 190.159 149.737C191.279 147.045 191.898 144.146 191.946 141.232C189.06 140.771 186.107 140.001 183.86 138.134C181.613 136.267 180.269 133.054 181.337 130.337Z" fill="#373737"/>
<circle cx="168.759" cy="113.614" r="2.072" fill="#FFB61D"/>
<circle cx="195.004" cy="114.305" r="2.072" fill="#FFB61D"/>
<path fill-rule="evenodd" clip-rule="evenodd" d="M172.585 188.659C173.329 187.793 174.84 188.213 175.985 188.517C179.032 189.326 182.734 188.419 185.003 186.308C187.286 184.184 191.479 186.719 194.472 185.411C196.276 184.622 197.737 182.465 199.555 183.021C201.786 183.703 204.545 183.16 206.367 181.707L206.368 181.275L206.375 180.322C204.561 181.924 201.655 182.548 199.325 181.835C197.506 181.279 196.045 183.437 194.241 184.225C191.249 185.534 187.056 182.999 184.772 185.123C182.549 187.192 178.949 188.104 175.938 187.378L175.337 187.222C174.265 186.947 173.011 186.71 172.355 187.473C170.284 189.882 166.186 190.879 163.169 189.708L163.542 190.947L163.721 191.009C166.701 191.992 170.588 190.983 172.585 188.659ZM169.76 175.109C170.546 174.296 172.026 174.734 173.148 175.052C176.136 175.899 179.864 175.115 182.233 173.141C184.617 171.155 188.651 173.686 191.697 172.5C193.533 171.785 195.1 169.747 196.879 170.323C199.061 171.03 207.121 166.804 207.121 166.804C205.087 166.748 199.127 169.893 196.873 169.229L196.713 169.18C194.934 168.604 193.367 170.641 191.531 171.356C188.485 172.543 184.451 170.012 182.067 171.998C179.746 173.932 176.118 174.724 173.162 173.958L172.573 173.794C171.522 173.505 170.288 173.248 169.594 173.966C167.407 176.23 161.436 175.245 160.341 175.897C160.341 175.897 167.65 177.294 169.76 175.109Z" fill="#FFB61D"/>
<path fill-rule="evenodd" clip-rule="evenodd" d="M171.963 214.34C172.707 213.475 174.218 213.894 175.363 214.198C178.41 215.007 182.112 214.1 184.381 211.99C186.664 209.865 190.857 212.4 193.85 211.092C195.654 210.303 197.115 208.146 198.933 208.702C201.164 209.384 203.923 208.841 205.745 207.388L205.746 206.956L205.753 206.003C203.939 207.605 201.033 208.229 198.702 207.516C196.884 206.96 195.423 209.118 193.619 209.907C190.627 211.215 186.434 208.68 184.15 210.804C181.927 212.873 178.327 213.785 175.316 213.059L174.715 212.903C173.643 212.628 172.389 212.391 171.733 213.154C169.662 215.563 165.564 216.56 162.547 215.389L162.92 216.628L163.099 216.69C166.079 217.674 169.965 216.664 171.963 214.34ZM169.138 200.79C169.924 199.977 171.404 200.415 172.526 200.733C175.514 201.581 179.242 200.796 181.611 198.822C183.995 196.836 188.029 199.367 191.075 198.181C192.911 197.466 194.478 195.428 196.257 196.004C198.439 196.711 206.499 192.485 206.499 192.485C204.464 192.429 198.505 195.574 196.251 194.91L196.091 194.861C194.312 194.285 192.745 196.322 190.909 197.038C187.863 198.224 183.829 195.693 181.445 197.679C179.124 199.613 175.496 200.405 172.54 199.639L171.951 199.475C170.9 199.186 169.666 198.929 168.972 199.647C166.785 201.911 160.814 200.926 159.719 201.579C159.719 201.579 167.028 202.975 169.138 200.79Z" fill="#FFB61D"/>
<path fill-rule="evenodd" clip-rule="evenodd" d="M165.7 68.1424C167.698 69.3721 175.018 55.8574 185.919 55.8574C209.023 55.8574 210.761 49.3161 207.385 43.4771C206.416 47.4632 202.976 50.5078 199.135 51.9614C195.294 53.415 191.078 53.5022 186.975 53.3015C182.873 53.1008 178.757 52.6308 174.67 53.0365C172.139 53.2878 169.474 53.9699 167.772 55.8574C165.181 58.7307 165.752 63.1525 166.482 66.9498C165.344 66.349 164.716 64.9198 165.045 63.6764C160.498 64.5139 157.19 68.7423 156.027 73.2109C154.865 77.6795 155.429 82.3923 156 86.9738C156.243 88.9184 156.485 90.8631 156.728 92.8077C156.728 92.8077 157.763 77.142 159.167 73.2109C161.078 67.8593 166.146 68.8854 165.7 68.1424Z" fill="#373737"/>
</svg>
