<svg width="40" height="40" viewBox="0 0 40 40" fill="none" xmlns="http://www.w3.org/2000/svg">
<path d="M18.3333 21.6667H6.66667C5.74619 21.6667 5 20.9205 5 20C5 19.0795 5.74619 18.3333 6.66667 18.3333H18.3333V6.66667C18.3333 5.74619 19.0795 5 20 5C20.9205 5 21.6667 5.74619 21.6667 6.66667V18.3333H33.3333C34.2538 18.3333 35 19.0795 35 20C35 20.9205 34.2538 21.6667 33.3333 21.6667H21.6667V33.3333C21.6667 34.2538 20.9205 35 20 35C19.0795 35 18.3333 34.2538 18.3333 33.3333V21.6667Z" fill="#212121"/>
</svg>
