<svg width="40" height="40" viewBox="0 0 40 40" fill="none" xmlns="http://www.w3.org/2000/svg">
<path d="M18.6667 21.3333H9.33333C8.59696 21.3333 8 20.7364 8 20C8 19.2636 8.59695 18.6667 9.33333 18.6667H18.6667V9.33333C18.6667 8.59696 19.2636 8 20 8C20.7364 8 21.3333 8.59695 21.3333 9.33333V18.6667H30.6667C31.403 18.6667 32 19.2636 32 20C32 20.7364 31.403 21.3333 30.6667 21.3333H21.3333V30.6667C21.3333 31.403 20.7364 32 20 32C19.2636 32 18.6667 31.403 18.6667 30.6667V21.3333Z" fill="white"/>
</svg>
