<svg width="27" height="27" viewBox="0 0 27 27" fill="none" xmlns="http://www.w3.org/2000/svg">
<path d="M5.625 21.375H7.22812L18.225 10.3781L16.6219 8.775L5.625 19.7719V21.375ZM3.375 23.625V18.8438L18.225 4.02187C18.45 3.81562 18.6984 3.65625 18.9703 3.54375C19.2422 3.43125 19.5281 3.375 19.8281 3.375C20.1281 3.375 20.4188 3.43125 20.7 3.54375C20.9813 3.65625 21.225 3.825 21.4313 4.05L22.9781 5.625C23.2031 5.83125 23.3672 6.075 23.4703 6.35625C23.5734 6.6375 23.625 6.91875 23.625 7.2C23.625 7.5 23.5734 7.78594 23.4703 8.05781C23.3672 8.32969 23.2031 8.57813 22.9781 8.80313L8.15625 23.625H3.375ZM17.4094 9.59063L16.6219 8.775L18.225 10.3781L17.4094 9.59063Z" fill="#00FFFF"/>
</svg>
